<svg xmlns="http://www.w3.org/2000/svg" width="80" height="80" viewBox="0 0 80 80"><defs><style>.a{fill:#fff;}.b{fill:none;stroke:#a18b80;stroke-linecap:round;stroke-linejoin:round;stroke-width:2px;}</style></defs><rect class="a" width="80" height="80"/><path class="b" d="M67.531,66.913H10.525A3.687,3.687,0,0,1,6.85,63.221V16.216a3.68,3.68,0,0,1,3.675-3.685H67.531a3.68,3.68,0,0,1,3.675,3.685V63.221a3.687,3.687,0,0,1-3.675,3.692Z" transform="translate(1.743 3.189)"/><path class="b" d="M64.118,34.572v23.04A3.687,3.687,0,0,1,60.443,61.3H34.7S49.409,56.694,64.118,34.572Z" transform="translate(8.832 8.799)"/><path class="b" d="M71.207,29.12H6.85v-12.9a3.68,3.68,0,0,1,3.675-3.685H67.531a3.68,3.68,0,0,1,3.675,3.685Z" transform="translate(1.743 3.189)"/><path class="b" d="M18.967,19.183a5.537,5.537,0,1,1,5.513-5.527" transform="translate(3.421 2.065)"/><path class="b" d="M34.357,19.183a5.537,5.537,0,1,1,5.513-5.527" transform="translate(7.338 2.065)"/><path class="b" d="M49.747,19.183a5.537,5.537,0,1,1,5.513-5.527" transform="translate(11.255 2.065)"/><path class="b" d="M6.85,33.1H71.207" transform="translate(1.743 8.425)"/><path class="b" d="M6.85,40.451H45.314" transform="translate(1.743 10.296)"/><path class="b" d="M6.85,47.794H45.314" transform="translate(1.743 12.165)"/><path class="b" d="M17.11,25.754V63.548" transform="translate(4.355 6.555)"/><path class="b" d="M27.37,25.754V63.548" transform="translate(6.966 6.555)"/><path class="b" d="M37.63,25.754V38.264" transform="translate(9.578 6.555)"/><path class="b" d="M47.89,25.754V39.948" transform="translate(12.189 6.555)"/><path class="b" d="M19.721,33.1H6.85v9.219H19.721Z" transform="translate(1.743 8.425)"/><path class="b" d="M29.981,47.794H17.11V57.931H29.981Z" transform="translate(4.355 12.165)"/><path class="b" d="M40.241,25.754H27.37v9.219H40.241Z" transform="translate(6.966 6.555)"/><path class="b" d="M64.118,34.572C49.409,56.694,34.7,61.3,34.7,61.3a29.866,29.866,0,0,0,2.324-24.409.759.759,0,0,1,.908-.989C42.18,37.081,54.994,39.948,64.118,34.572Z" transform="translate(8.832 8.799)"/><path class="b" d="M25.17,21.349H43.562" transform="translate(6.406 5.434)"/><path class="b" d="M47.89,21.349h7.358" transform="translate(12.189 5.434)"/><path class="b" d="M18.6,21.349H11.245" transform="translate(2.862 5.434)"/></svg>