<svg xmlns="http://www.w3.org/2000/svg" width="81" height="81" viewBox="0 0 81 81"><defs><style>.a{fill:#fff;}.b{fill:none;stroke:#a18b80;stroke-linecap:round;stroke-linejoin:round;stroke-width:2px;}</style></defs><rect class="a" width="81" height="81"/><path class="b" d="M12.57,28.953l-.8,2.408a.626.626,0,0,0,.1.578l1.526,2.047a.618.618,0,0,1-.506,1H10.321a.618.618,0,0,0-.514.265L8.3,37.3A.627.627,0,0,1,7.2,37.125l-.8-2.408a.635.635,0,0,0-.41-.409l-2.41-.755A.626.626,0,0,1,3.4,32.445l2.089-1.477a.634.634,0,0,0,.265-.522V27.894a.627.627,0,0,1,1-.514l2.016,1.509a.628.628,0,0,0,.57.088l2.41-.8a.626.626,0,0,1,.827.779Z" transform="translate(0.791 6.883)"/><path class="b" d="M24.914,11.968l-.8,2.408a.642.642,0,0,0,.088.578l1.518,2.055a.626.626,0,0,1-.506,1H22.648a.595.595,0,0,0-.514.265l-1.478,2.087a.627.627,0,0,1-1.109-.177l-.763-2.408a.642.642,0,0,0-.41-.417l-2.41-.755a.626.626,0,0,1-.177-1.108l2.089-1.477a.634.634,0,0,0,.265-.522V10.948a.619.619,0,0,1,1-.506l1.976,1.437a.627.627,0,0,0,.578.088l2.41-.8a.626.626,0,0,1,.811.8Z" transform="translate(3.92 2.604)"/><path class="b" d="M50.529,11.979l-.8,2.408a.625.625,0,0,0,.088.57l1.534,2.055a.626.626,0,0,1-.514,1H48.279a.635.635,0,0,0-.522.265l-1.47,2.087a.627.627,0,0,1-1.109-.177l-.8-2.408a.634.634,0,0,0-.41-.409l-2.41-.8a.626.626,0,0,1-.177-1.108l2.089-1.477a.618.618,0,0,0,.265-.514V10.9a.619.619,0,0,1,1-.506l2.008,1.493a.627.627,0,0,0,.578.1l2.41-.8a.626.626,0,0,1,.8.795Z" transform="translate(10.382 2.593)"/><path class="b" d="M62.019,28.951l-.8,2.408a.6.6,0,0,0,.088.57l1.526,2.055a.618.618,0,0,1-.506,1H59.77a.636.636,0,0,0-.522.265l-1.494,2.063a.627.627,0,0,1-1.109-.177l-.755-2.408a.626.626,0,0,0-.418-.409l-2.41-.8a.626.626,0,0,1-.177-1.108l2.024-1.461a.6.6,0,0,0,.265-.514V27.868a.627.627,0,0,1,1-.506l2.048,1.525a.611.611,0,0,0,.57.1l2.41-.8a.626.626,0,0,1,.811.771Z" transform="translate(13.287 6.877)"/><path class="b" d="M40.854,20.682A1.936,1.936,0,0,1,44.3,21.911l-.12,12.041A1.942,1.942,0,0,0,45.465,35.8l10.443,3.741a1.934,1.934,0,0,1,0,3.652L44.662,47.117a1.943,1.943,0,0,0-1.277,1.662l-.659,11.833a1.936,1.936,0,0,1-3.591.891l-6.057-10.05a1.937,1.937,0,0,0-2.314-.8l-11.07,3.909A1.935,1.935,0,0,1,17.477,51.6l7.037-9.569a1.942,1.942,0,0,0,.088-2.151l-6.21-10.147a1.917,1.917,0,0,1,.153-2.232,1.945,1.945,0,0,1,2.153-.6l10.443,3.741a1.945,1.945,0,0,0,2.209-.61Z" transform="translate(4.319 5.04)"/></svg>