<svg xmlns="http://www.w3.org/2000/svg" width="80" height="80" viewBox="0 0 80 80"><defs><style>.a{fill:#fff;}.b{fill:none;stroke:#a18b80;stroke-linecap:round;stroke-linejoin:round;stroke-width:2px;}</style></defs><rect class="a" width="80" height="80"/><path class="b" d="M23.162,5.952a.975.975,0,0,1,1.444.532l2.61,8.563a.976.976,0,0,1-.431,1.115.963.963,0,0,1-1.191-.139L19.349,9.764a.963.963,0,0,1,.165-1.495Z" transform="translate(4.848 1.476)"/><path class="b" d="M11.042,17.821a.988.988,0,0,0-.1.861,1,1,0,0,0,.608.608l8.513,2.762a.969.969,0,0,0,1-1.6l-6.118-6.334a.975.975,0,0,0-.8-.291.949.949,0,0,0-.722.431Z" transform="translate(2.768 3.515)"/><path class="b" d="M25,31.812l-3.18-.57" transform="translate(5.547 7.944)"/><path class="b" d="M9.95,44.775l1.583.279" transform="translate(2.53 11.385)"/><path class="b" d="M9.586,39.493l1.583.279" transform="translate(2.437 10.042)"/><path class="b" d="M9.222,34.211l1.6.291" transform="translate(2.345 8.699)"/><path class="b" d="M63.192,39.076l-20.737-3.7a1.622,1.622,0,0,0-1.875,1.267l-3.8,21.4a1.609,1.609,0,0,0,1.267,1.875l19.268,3.433" transform="translate(9.345 8.989)"/><path class="b" d="M37.671,57.921l-3.18-.557a1.609,1.609,0,0,1-1.267-1.875L36.468,37.26a1.634,1.634,0,0,1,1.875-1.267l3.167.57Z" transform="translate(8.441 9.146)"/><path class="b" d="M25.823,34.9c.469-6.017,1.951-18.862,6.891-17.988a3.636,3.636,0,0,1,2.939,4.206l-.215,1.191c-1.558,8.715.6,18.507,7.9,19.812L40.1,60.346l-.937-.165c-4.573-.811-7.3,1.963-15.48.507L9.811,58.154a3.218,3.218,0,1,1,1.127-6.334l-1.583-.279a3.218,3.218,0,1,1,1.127-6.334L8.9,44.929A3.218,3.218,0,0,1,10.026,38.6l-1.583-.279a3.23,3.23,0,0,1,1.14-6.334Z" transform="translate(1.541 4.288)"/></svg>