<svg xmlns="http://www.w3.org/2000/svg" width="81" height="81" viewBox="0 0 81 81"><defs><style>.a{fill:#fff;}.b{fill:none;stroke:#a18b80;stroke-linecap:round;stroke-linejoin:round;stroke-width:2px;}</style></defs><rect class="a" width="81" height="81"/><path class="b" d="M16.594,52.544V45.849" transform="translate(4.219 11.658)"/><path class="b" d="M15.517,22.071a12.659,12.659,0,0,0,3.656,9.189,12.933,12.933,0,0,0,18.384,0,12.66,12.66,0,0,0,3.656-9.189V18.054a12.66,12.66,0,0,0-3.656-9.189,12.933,12.933,0,0,0-18.384,0,12.66,12.66,0,0,0-3.656,9.189Z" transform="translate(3.944 1.28)"/><path class="b" d="M40.543,34.116a19.757,19.757,0,0,0-24.678,2.471A19.326,19.326,0,0,0,10.12,50.32v6.025H31.706" transform="translate(2.573 7.856)"/><path class="b" d="M45.026,42.313C50.186,30.7,61.865,37.019,61.582,47,61.2,61.058,45.026,65.751,45.026,65.751S28.842,61.058,28.47,47C28.18,37.019,39.859,30.707,45.026,42.313Z" transform="translate(7.237 9.168)"/></svg>