<svg xmlns="http://www.w3.org/2000/svg" width="19.914" height="19.914" viewBox="0 0 19.914 19.914"><defs><style>.a{fill:#fff;fill-rule:evenodd;}</style></defs><path class="a" d="M5.852.06C6.914.011,7.253,0,9.957,0S13,.011,14.062.06a7.307,7.307,0,0,1,2.417.463,4.881,4.881,0,0,1,1.764,1.148,4.881,4.881,0,0,1,1.148,1.764,7.308,7.308,0,0,1,.463,2.417c.048,1.062.06,1.4.06,4.105S19.9,13,19.854,14.062a7.309,7.309,0,0,1-.463,2.417,5.091,5.091,0,0,1-2.912,2.912,7.309,7.309,0,0,1-2.417.463c-1.062.048-1.4.06-4.105.06s-3.043-.011-4.105-.06a7.308,7.308,0,0,1-2.417-.463,4.881,4.881,0,0,1-1.764-1.148A4.881,4.881,0,0,1,.523,16.479,7.307,7.307,0,0,1,.06,14.062C.011,13,0,12.661,0,9.957S.011,6.914.06,5.852A7.307,7.307,0,0,1,.523,3.435,4.88,4.88,0,0,1,1.671,1.671,4.88,4.88,0,0,1,3.435.523,7.307,7.307,0,0,1,5.852.06Zm9.978,2.135a5.509,5.509,0,0,0-1.849-.343c-1.05-.048-1.365-.058-4.023-.058s-2.974.01-4.024.058a5.509,5.509,0,0,0-1.849.343A3.085,3.085,0,0,0,2.94,2.94a3.085,3.085,0,0,0-.745,1.145,5.509,5.509,0,0,0-.343,1.849C1.8,6.983,1.794,7.3,1.794,9.957s.01,2.974.058,4.023a5.509,5.509,0,0,0,.343,1.849,3.085,3.085,0,0,0,.745,1.145,3.085,3.085,0,0,0,1.145.745,5.512,5.512,0,0,0,1.849.343c1.05.048,1.365.058,4.024.058s2.974-.01,4.023-.058a5.512,5.512,0,0,0,1.849-.343,3.3,3.3,0,0,0,1.89-1.89,5.512,5.512,0,0,0,.343-1.849c.048-1.05.058-1.365.058-4.023s-.01-2.974-.058-4.024a5.512,5.512,0,0,0-.343-1.849,3.085,3.085,0,0,0-.745-1.145A3.084,3.084,0,0,0,15.829,2.195ZM9.957,4.844A5.113,5.113,0,1,0,15.07,9.957,5.113,5.113,0,0,0,9.957,4.844ZM6.638,9.957A3.319,3.319,0,1,0,9.957,6.638,3.319,3.319,0,0,0,6.638,9.957Zm8.634-4.12a1.195,1.195,0,1,0-1.195-1.195A1.195,1.195,0,0,0,15.272,5.837Z"/></svg>