<svg xmlns="http://www.w3.org/2000/svg" width="19.923" height="19.923" viewBox="0 0 19.923 19.923"><defs><style>.a{fill:#a18b80;fill-rule:evenodd;}</style></defs><path class="a" d="M5.854.06C6.917.011,7.256,0,9.962,0s3.045.011,4.107.06a7.311,7.311,0,0,1,2.418.463,4.883,4.883,0,0,1,1.764,1.149A4.883,4.883,0,0,1,19.4,3.436a7.312,7.312,0,0,1,.463,2.418c.048,1.063.06,1.4.06,4.107s-.011,3.045-.06,4.107a7.312,7.312,0,0,1-.463,2.418A5.093,5.093,0,0,1,16.487,19.4a7.312,7.312,0,0,1-2.418.463c-1.063.048-1.4.06-4.107.06s-3.045-.011-4.107-.06A7.312,7.312,0,0,1,3.436,19.4a4.883,4.883,0,0,1-1.764-1.149A4.883,4.883,0,0,1,.523,16.487,7.311,7.311,0,0,1,.06,14.069C.011,13.006,0,12.667,0,9.962S.011,6.917.06,5.854A7.311,7.311,0,0,1,.523,3.436,4.883,4.883,0,0,1,1.672,1.672,4.883,4.883,0,0,1,3.436.523,7.311,7.311,0,0,1,5.854.06ZM15.837,2.2a5.511,5.511,0,0,0-1.85-.343c-1.05-.048-1.365-.058-4.025-.058s-2.975.01-4.025.058a5.511,5.511,0,0,0-1.85.343,3.086,3.086,0,0,0-1.145.745A3.086,3.086,0,0,0,2.2,4.087a5.511,5.511,0,0,0-.343,1.85c-.048,1.05-.058,1.365-.058,4.025s.01,2.975.058,4.025a5.511,5.511,0,0,0,.343,1.85,3.086,3.086,0,0,0,.745,1.145,3.087,3.087,0,0,0,1.145.745,5.515,5.515,0,0,0,1.85.343c1.05.048,1.365.058,4.025.058s2.975-.01,4.025-.058a5.515,5.515,0,0,0,1.85-.343,3.3,3.3,0,0,0,1.891-1.891,5.515,5.515,0,0,0,.343-1.85c.048-1.05.058-1.365.058-4.025s-.01-2.975-.058-4.025a5.515,5.515,0,0,0-.343-1.85,3.087,3.087,0,0,0-.745-1.145A3.086,3.086,0,0,0,15.837,2.2ZM9.962,4.846a5.115,5.115,0,1,0,5.115,5.115A5.115,5.115,0,0,0,9.962,4.846ZM6.641,9.962A3.321,3.321,0,1,0,9.962,6.641,3.321,3.321,0,0,0,6.641,9.962Zm8.638-4.122a1.2,1.2,0,1,0-1.2-1.2A1.2,1.2,0,0,0,15.279,5.839Z"/></svg>