<svg xmlns="http://www.w3.org/2000/svg" width="80" height="80" viewBox="0 0 80 80"><defs><style>.a{fill:#fff;}.b{fill:none;stroke:#a18b80;stroke-linecap:round;stroke-linejoin:round;}</style></defs><rect class="a" width="80" height="80"/><path class="b" d="M49.676,10.665a.593.593,0,0,1,.232.105.582.582,0,0,1,.165.192.551.551,0,0,1,0,.493l-2.267,4.613a.562.562,0,0,1-.26.258.574.574,0,0,1-.366.046.589.589,0,0,1-.313-.192.575.575,0,0,1-.136-.338l-.191-5.077a.559.559,0,0,1,.048-.243.568.568,0,0,1,.149-.2.575.575,0,0,1,.221-.117.581.581,0,0,1,.251-.013Z" transform="translate(11.635 2.547)"/><path class="b" d="M39.9,10.955a.562.562,0,0,0-.23.115.552.552,0,0,0-.153.2.58.58,0,0,0,0,.493l2.532,4.475a.564.564,0,0,0,.275.24.574.574,0,0,0,.367.024.567.567,0,0,0,.3-.2.553.553,0,0,0,.114-.344l-.1-5.077a.572.572,0,0,0-.063-.238.583.583,0,0,0-.157-.191.536.536,0,0,0-.479-.1Z" transform="translate(9.865 2.584)"/><path class="b" d="M32.312,28.578a.572.572,0,0,1,.709.088.556.556,0,0,1,.13.216l1.516,4.9a.551.551,0,0,1-.014.361.56.56,0,0,1-.236.277.565.565,0,0,1-.692-.08L30.1,30.761a.549.549,0,0,1-.133-.207.544.544,0,0,1,.053-.475.555.555,0,0,1,.175-.174Z" transform="translate(7.483 7.123)"/><path class="b" d="M25.252,35.389a.559.559,0,0,0-.059.493.573.573,0,0,0,.137.213.582.582,0,0,0,.217.135l4.947,1.581a.567.567,0,0,0,.369,0,.558.558,0,0,0,.286-.229.545.545,0,0,0-.073-.682L27.52,33.271a.566.566,0,0,0-.213-.136.574.574,0,0,0-.251-.031.558.558,0,0,0-.239.075.547.547,0,0,0-.181.172Z" transform="translate(6.29 8.275)"/><path class="b" d="M24.135,12.712A.593.593,0,0,0,23.9,12.6a.6.6,0,0,0-.259,0,.585.585,0,0,0-.228.117.575.575,0,0,0-.155.2l-2.09,4.692a.551.551,0,0,0-.027.36.558.558,0,0,0,.2.3.573.573,0,0,0,.693,0l4.026-3.133a.532.532,0,0,0,.163-.188.523.523,0,0,0,.058-.24.545.545,0,0,0-.052-.241.552.552,0,0,0-.154-.194Z" transform="translate(5.281 3.147)"/><path class="b" d="M15.955,10a.568.568,0,0,0-.267.048.558.558,0,0,0-.213.166.545.545,0,0,0-.087.512L16.6,15.709a.558.558,0,0,0,.2.3.573.573,0,0,0,.693,0,.558.558,0,0,0,.2-.3l1.288-4.9A.536.536,0,0,0,19,10.567a.541.541,0,0,0-.1-.225.557.557,0,0,0-.191-.162.565.565,0,0,0-.243-.063Z" transform="translate(3.84 2.5)"/><path class="b" d="M18.262,23.7l1.34-.188" transform="translate(4.565 5.878)"/><path class="b" d="M24.3,29.292l-.67.1" transform="translate(5.907 7.323)"/><path class="b" d="M24.52,27.1l-.67.094" transform="translate(5.963 6.776)"/><path class="b" d="M24.744,24.912l-.67.094" transform="translate(6.019 6.228)"/><path class="b" d="M5,26.064l7.545-1.088a.744.744,0,0,1,.513.141.725.725,0,0,1,.282.446l1.288,8.645a.911.911,0,0,1-.177.685.93.93,0,0,1-.272.24.945.945,0,0,1-.345.119L6.472,36.319" transform="translate(1.25 6.243)"/><path class="b" d="M13,34.381l1.082-.181a.945.945,0,0,0,.345-.119.93.93,0,0,0,.273-.24.917.917,0,0,0,.158-.325.907.907,0,0,0,.019-.36l-1.053-7.1a.919.919,0,0,0-.367-.6.946.946,0,0,0-.693-.172l-1.09.218Z" transform="translate(2.918 6.317)"/><path class="b" d="M20.823,25.026c-.118-2.509-.567-7.847-2.657-7.55a1.527,1.527,0,0,0-.993.593,1.485,1.485,0,0,0-.28,1.111l.074.493c.537,3.626-.5,7.666-3.592,8.115l1.119,7.593.4-.051c1.936-.283,3.048.907,6.507.406l5.889-.841a1.361,1.361,0,0,0,.892-.526A1.325,1.325,0,0,0,27.9,32.5a1.374,1.374,0,0,0-1.008-.249l.677-.094a1.367,1.367,0,0,0,.5-.172,1.35,1.35,0,0,0,.4-.349,1.318,1.318,0,0,0,.076-1.489,1.343,1.343,0,0,0-.359-.387,1.37,1.37,0,0,0-1.013-.243l.67-.1a1.37,1.37,0,0,0,.512-.164,1.349,1.349,0,0,0,.406-.348,1.318,1.318,0,0,0,.085-1.5,1.343,1.343,0,0,0-.365-.39,1.371,1.371,0,0,0-1.028-.233l.67-.094a1.373,1.373,0,0,0,.5-.174,1.352,1.352,0,0,0,.394-.349,1.321,1.321,0,0,0,.079-1.484,1.347,1.347,0,0,0-.354-.388,1.374,1.374,0,0,0-1.007-.252Z" transform="translate(3.344 4.366)"/><path class="b" d="M44.67,23.7l-1.34-.188" transform="translate(10.833 5.878)"/><path class="b" d="M38.5,29.292l.67.1" transform="translate(9.625 7.323)"/><path class="b" d="M38.278,27.1l.67.094" transform="translate(9.57 6.776)"/><path class="b" d="M38.054,24.912l.67.094" transform="translate(9.514 6.228)"/><path class="b" d="M60.012,26.122l-7.965-1.146a.743.743,0,0,0-.516.144.724.724,0,0,0-.28.45l-1.288,8.638a.911.911,0,0,0,.177.685.93.93,0,0,0,.272.241.945.945,0,0,0,.345.119l7.361,1.059" transform="translate(12.488 6.243)"/><path class="b" d="M50.309,34.381,49.227,34.2a.945.945,0,0,1-.345-.119.93.93,0,0,1-.272-.24.917.917,0,0,1-.158-.325.907.907,0,0,1-.019-.36l1.053-7.1a.919.919,0,0,1,.367-.6.946.946,0,0,1,.693-.172l1.089.218Z" transform="translate(12.106 6.317)"/><path class="b" d="M45.012,25.026c.118-2.509.567-7.847,2.657-7.55a1.538,1.538,0,0,1,.561.2,1.517,1.517,0,0,1,.442.393,1.485,1.485,0,0,1,.285,1.115l-.074.493c-.537,3.626.5,7.666,3.592,8.115l-1.119,7.593-.4-.051c-1.936-.283-3.047.907-6.507.406L38.563,34.9a1.362,1.362,0,0,1-.892-.526,1.325,1.325,0,0,1,.281-1.872,1.374,1.374,0,0,1,1.008-.249l-.64-.094a1.358,1.358,0,0,1-.88-.528,1.322,1.322,0,0,1,.28-1.858,1.37,1.37,0,0,1,1-.254l-.67-.1a1.371,1.371,0,0,1-.512-.164,1.348,1.348,0,0,1-.406-.348,1.318,1.318,0,0,1-.085-1.5,1.343,1.343,0,0,1,.365-.39,1.371,1.371,0,0,1,1.028-.233l-.67-.094a1.361,1.361,0,0,1-.893-.523,1.325,1.325,0,0,1,.276-1.872,1.373,1.373,0,0,1,1.007-.252Z" transform="translate(9.152 4.366)"/><path class="b" d="M33.383,43.433l-1.848-.326" transform="translate(7.884 10.777)"/><path class="b" d="M24.616,50.881l.92.159" transform="translate(6.154 12.72)"/><path class="b" d="M24.4,47.846l.92.16" transform="translate(6.101 11.962)"/><path class="b" d="M24.192,44.812l.927.167" transform="translate(6.048 11.203)"/><path class="b" d="M55.608,47.6l-12.05-2.118a.953.953,0,0,0-.694.145.928.928,0,0,0-.4.581L40.26,58.456a.91.91,0,0,0,.144.686A.935.935,0,0,0,41,59.53l11.2,1.965" transform="translate(10.061 11.367)"/><path class="b" d="M40.771,58.39l-1.848-.319a.936.936,0,0,1-.592-.388A.91.91,0,0,1,38.187,57l1.884-10.436a.936.936,0,0,1,.4-.578.961.961,0,0,1,.693-.147l1.84.326Z" transform="translate(9.543 11.456)"/><path class="b" d="M33.832,45.171c.272-3.445,1.134-10.8,4-10.3a2.116,2.116,0,0,1,1.359.856,2.057,2.057,0,0,1,.349,1.551l-.125.682c-.905,4.99.346,10.6,4.593,11.343L42.128,59.741l-.545-.094c-2.657-.464-4.24,1.124-9,.29l-8.06-1.451a1.885,1.885,0,0,1-.695-.251,1.86,1.86,0,0,1-.542-.5,1.82,1.82,0,0,1-.049-2.073,1.854,1.854,0,0,1,.517-.522,1.893,1.893,0,0,1,1.423-.283l-.92-.159a1.888,1.888,0,0,1-.695-.251,1.856,1.856,0,0,1-.542-.5,1.82,1.82,0,0,1-.049-2.073,1.856,1.856,0,0,1,.517-.522,1.893,1.893,0,0,1,1.423-.283l-.92-.16a1.871,1.871,0,0,1-1.175-.769,1.821,1.821,0,0,1-.3-1.359,1.839,1.839,0,0,1,.753-1.175,1.892,1.892,0,0,1,1.372-.322l-.92-.16a1.875,1.875,0,0,1-1.094-.8,1.827,1.827,0,0,1-.261-1.315,1.846,1.846,0,0,1,.71-1.143A1.9,1.9,0,0,1,24.4,43.5Z" transform="translate(5.587 8.712)"/><path class="b" d="M49.676,10.665a.593.593,0,0,1,.232.105.582.582,0,0,1,.165.192.551.551,0,0,1,0,.493l-2.267,4.613a.562.562,0,0,1-.26.258.574.574,0,0,1-.366.046.589.589,0,0,1-.313-.192.575.575,0,0,1-.136-.338l-.191-5.077a.559.559,0,0,1,.048-.243.568.568,0,0,1,.149-.2.575.575,0,0,1,.221-.117.581.581,0,0,1,.251-.013Z" transform="translate(11.635 2.547)"/><path class="b" d="M39.9,10.955a.562.562,0,0,0-.23.115.552.552,0,0,0-.153.2.58.58,0,0,0,0,.493l2.532,4.475a.564.564,0,0,0,.275.24.574.574,0,0,0,.367.024.567.567,0,0,0,.3-.2.553.553,0,0,0,.114-.344l-.1-5.077a.572.572,0,0,0-.063-.238.583.583,0,0,0-.157-.191.536.536,0,0,0-.479-.1Z" transform="translate(9.865 2.584)"/><path class="b" d="M32.312,28.578a.572.572,0,0,1,.709.088.556.556,0,0,1,.13.216l1.516,4.9a.551.551,0,0,1-.014.361.56.56,0,0,1-.236.277.565.565,0,0,1-.692-.08L30.1,30.761a.549.549,0,0,1-.133-.207.544.544,0,0,1,.053-.475.555.555,0,0,1,.175-.174Z" transform="translate(7.483 7.123)"/><path class="b" d="M25.252,35.389a.559.559,0,0,0-.059.493.573.573,0,0,0,.137.213.582.582,0,0,0,.217.135l4.947,1.581a.567.567,0,0,0,.369,0,.558.558,0,0,0,.286-.229.545.545,0,0,0-.073-.682L27.52,33.271a.566.566,0,0,0-.213-.136.574.574,0,0,0-.251-.031.558.558,0,0,0-.239.075.547.547,0,0,0-.181.172Z" transform="translate(6.29 8.275)"/><path class="b" d="M24.135,12.712A.593.593,0,0,0,23.9,12.6a.6.6,0,0,0-.259,0,.585.585,0,0,0-.228.117.575.575,0,0,0-.155.2l-2.09,4.692a.551.551,0,0,0-.027.36.558.558,0,0,0,.2.3.573.573,0,0,0,.693,0l4.026-3.133a.532.532,0,0,0,.163-.188.523.523,0,0,0,.058-.24.545.545,0,0,0-.052-.241.552.552,0,0,0-.154-.194Z" transform="translate(5.281 3.147)"/><path class="b" d="M15.955,10a.568.568,0,0,0-.267.048.558.558,0,0,0-.213.166.545.545,0,0,0-.087.512L16.6,15.709a.558.558,0,0,0,.2.3.573.573,0,0,0,.693,0,.558.558,0,0,0,.2-.3l1.288-4.9A.536.536,0,0,0,19,10.567a.541.541,0,0,0-.1-.225.557.557,0,0,0-.191-.162.565.565,0,0,0-.243-.063Z" transform="translate(3.84 2.5)"/><path class="b" d="M18.262,23.7l1.34-.188" transform="translate(4.565 5.878)"/><path class="b" d="M24.3,29.292l-.67.1" transform="translate(5.907 7.323)"/><path class="b" d="M24.52,27.1l-.67.094" transform="translate(5.963 6.776)"/><path class="b" d="M24.744,24.912l-.67.094" transform="translate(6.019 6.228)"/><path class="b" d="M5,26.064l7.545-1.088a.744.744,0,0,1,.513.141.725.725,0,0,1,.282.446l1.288,8.645a.911.911,0,0,1-.177.685.93.93,0,0,1-.272.24.945.945,0,0,1-.345.119L6.472,36.319" transform="translate(1.25 6.243)"/><path class="b" d="M13,34.381l1.082-.181a.945.945,0,0,0,.345-.119.93.93,0,0,0,.273-.24.917.917,0,0,0,.158-.325.907.907,0,0,0,.019-.36l-1.053-7.1a.919.919,0,0,0-.367-.6.946.946,0,0,0-.693-.172l-1.09.218Z" transform="translate(2.918 6.317)"/><path class="b" d="M20.823,25.026c-.118-2.509-.567-7.847-2.657-7.55a1.527,1.527,0,0,0-.993.593,1.485,1.485,0,0,0-.28,1.111l.074.493c.537,3.626-.5,7.666-3.592,8.115l1.119,7.593.4-.051c1.936-.283,3.048.907,6.507.406l5.889-.841a1.361,1.361,0,0,0,.892-.526A1.325,1.325,0,0,0,27.9,32.5a1.374,1.374,0,0,0-1.008-.249l.677-.094a1.367,1.367,0,0,0,.5-.172,1.35,1.35,0,0,0,.4-.349,1.318,1.318,0,0,0,.076-1.489,1.343,1.343,0,0,0-.359-.387,1.37,1.37,0,0,0-1.013-.243l.67-.1a1.37,1.37,0,0,0,.512-.164,1.349,1.349,0,0,0,.406-.348,1.318,1.318,0,0,0,.085-1.5,1.343,1.343,0,0,0-.365-.39,1.371,1.371,0,0,0-1.028-.233l.67-.094a1.373,1.373,0,0,0,.5-.174,1.352,1.352,0,0,0,.394-.349,1.321,1.321,0,0,0,.079-1.484,1.347,1.347,0,0,0-.354-.388,1.374,1.374,0,0,0-1.007-.252Z" transform="translate(3.344 4.366)"/><path class="b" d="M44.67,23.7l-1.34-.188" transform="translate(10.833 5.878)"/><path class="b" d="M38.5,29.292l.67.1" transform="translate(9.625 7.323)"/><path class="b" d="M38.278,27.1l.67.094" transform="translate(9.57 6.776)"/><path class="b" d="M38.054,24.912l.67.094" transform="translate(9.514 6.228)"/><path class="b" d="M60.012,26.122l-7.965-1.146a.743.743,0,0,0-.516.144.724.724,0,0,0-.28.45l-1.288,8.638a.911.911,0,0,0,.177.685.93.93,0,0,0,.272.241.945.945,0,0,0,.345.119l7.361,1.059" transform="translate(12.488 6.243)"/><path class="b" d="M50.309,34.381,49.227,34.2a.945.945,0,0,1-.345-.119.93.93,0,0,1-.272-.24.917.917,0,0,1-.158-.325.907.907,0,0,1-.019-.36l1.053-7.1a.919.919,0,0,1,.367-.6.946.946,0,0,1,.693-.172l1.089.218Z" transform="translate(12.106 6.317)"/><path class="b" d="M45.012,25.026c.118-2.509.567-7.847,2.657-7.55a1.538,1.538,0,0,1,.561.2,1.517,1.517,0,0,1,.442.393,1.485,1.485,0,0,1,.285,1.115l-.074.493c-.537,3.626.5,7.666,3.592,8.115l-1.119,7.593-.4-.051c-1.936-.283-3.047.907-6.507.406L38.563,34.9a1.362,1.362,0,0,1-.892-.526,1.325,1.325,0,0,1,.281-1.872,1.374,1.374,0,0,1,1.008-.249l-.64-.094a1.358,1.358,0,0,1-.88-.528,1.322,1.322,0,0,1,.28-1.858,1.37,1.37,0,0,1,1-.254l-.67-.1a1.371,1.371,0,0,1-.512-.164,1.348,1.348,0,0,1-.406-.348,1.318,1.318,0,0,1-.085-1.5,1.343,1.343,0,0,1,.365-.39,1.371,1.371,0,0,1,1.028-.233l-.67-.094a1.361,1.361,0,0,1-.893-.523,1.325,1.325,0,0,1,.276-1.872,1.373,1.373,0,0,1,1.007-.252Z" transform="translate(9.152 4.366)"/><path class="b" d="M33.383,43.433l-1.848-.326" transform="translate(7.884 10.777)"/><path class="b" d="M24.616,50.881l.92.159" transform="translate(6.154 12.72)"/><path class="b" d="M24.4,47.846l.92.16" transform="translate(6.101 11.962)"/><path class="b" d="M24.192,44.812l.927.167" transform="translate(6.048 11.203)"/><path class="b" d="M55.608,47.6l-12.05-2.118a.953.953,0,0,0-.694.145.928.928,0,0,0-.4.581L40.26,58.456a.91.91,0,0,0,.144.686A.935.935,0,0,0,41,59.53l11.2,1.965" transform="translate(10.061 11.367)"/><path class="b" d="M40.771,58.39l-1.848-.319a.936.936,0,0,1-.592-.388A.91.91,0,0,1,38.187,57l1.884-10.436a.936.936,0,0,1,.4-.578.961.961,0,0,1,.693-.147l1.84.326Z" transform="translate(9.543 11.456)"/><path class="b" d="M33.832,45.171c.272-3.445,1.134-10.8,4-10.3a2.116,2.116,0,0,1,1.359.856,2.057,2.057,0,0,1,.349,1.551l-.125.682c-.905,4.99.346,10.6,4.593,11.343L42.128,59.741l-.545-.094c-2.657-.464-4.24,1.124-9,.29l-8.06-1.451a1.885,1.885,0,0,1-.695-.251,1.86,1.86,0,0,1-.542-.5,1.82,1.82,0,0,1-.049-2.073,1.854,1.854,0,0,1,.517-.522,1.893,1.893,0,0,1,1.423-.283l-.92-.159a1.888,1.888,0,0,1-.695-.251,1.856,1.856,0,0,1-.542-.5,1.82,1.82,0,0,1-.049-2.073,1.856,1.856,0,0,1,.517-.522,1.893,1.893,0,0,1,1.423-.283l-.92-.16a1.871,1.871,0,0,1-1.175-.769,1.821,1.821,0,0,1-.3-1.359,1.839,1.839,0,0,1,.753-1.175,1.892,1.892,0,0,1,1.372-.322l-.92-.16a1.875,1.875,0,0,1-1.094-.8,1.827,1.827,0,0,1-.261-1.315,1.846,1.846,0,0,1,.71-1.143A1.9,1.9,0,0,1,24.4,43.5Z" transform="translate(5.587 8.712)"/></svg>