<svg xmlns="http://www.w3.org/2000/svg" width="80" height="80" viewBox="0 0 80 80"><defs><style>.a{fill:#fff;}.b{fill:rgba(0,0,0,0);stroke:#a18b80;stroke-linecap:round;stroke-linejoin:round;}</style></defs><rect class="a" width="80" height="80"/><path class="b" d="M40.16,57.5v8.955a2.518,2.518,0,0,1-2.518,2.518H4.518A2.518,2.518,0,0,1,2,66.457V21.2a2.518,2.518,0,0,1,2.518-2.518H11.4v4.759a1.259,1.259,0,0,0,1.259,1.25H29.535a1.25,1.25,0,0,0,1.25-1.25V18.7h6.882a2.518,2.518,0,0,1,2.518,2.518v7.427M36.409,49.37l-.084.067a1.267,1.267,0,0,1-1.754-.294l-.436-.613Zm3.751-2.954-3.626-2.7a.327.327,0,0,1-.126-.092l-.789-.587-.411-.311a3.706,3.706,0,0,1-.361-.2L34.73,42.4a1.458,1.458,0,0,1-.269-.235c-.621.663-1.25,1.376-1.863,2.14a2.518,2.518,0,0,1-3.9-3.139,33.08,33.08,0,0,1,7.713-7.209,22.554,22.554,0,0,1,3.751-1.989Z" transform="translate(0.507 4.737)"/><path class="b" d="M32.815,33.655v2.031l-1.821-.839a17.276,17.276,0,0,1,1.821-1.192Z" transform="translate(7.86 8.535)"/><path class="b" d="M23.621,21.491H12.979" transform="translate(3.292 5.45)"/><path class="b" d="M31.089,40.523l-.789-.588-.411-.311a3.679,3.679,0,0,1-.361-.2l-.117-.117a1.463,1.463,0,0,1-.269-.235c-.621.663-1.25,1.376-1.863,2.14a2.518,2.518,0,0,1-3.9-3.139,33.08,33.08,0,0,1,7.713-7.209" transform="translate(5.826 7.827)"/><path class="b" d="M24.962,21.491h4.381a1.25,1.25,0,0,1,1.242,1.25V29.6" transform="translate(6.331 5.45)"/><path class="b" d="M35.645,54.037V60.91a1.251,1.251,0,0,1-1.25,1.25H6.271a1.259,1.259,0,0,1-1.259-1.25V22.742a1.259,1.259,0,0,1,1.259-1.25h4.372" transform="translate(1.271 5.45)"/><path class="b" d="M27.64,42.485l.436.613a1.267,1.267,0,0,0,1.754.294l.084-.067" transform="translate(7.01 10.774)"/><path class="b" d="M8.48,29.478H27.607" transform="translate(2.151 7.476)"/><path class="b" d="M25.735,33.97H8.48" transform="translate(2.151 8.615)"/><path class="b" d="M8.48,38.957H21.807" transform="translate(2.151 9.88)"/><path class="b" d="M9.485,21.172V18.251a1.267,1.267,0,0,1,1.259-1.259h5.69" transform="translate(2.405 4.309)"/><path class="b" d="M19.921,16.979h5.035a1.259,1.259,0,0,1,1.25,1.259v2.937" transform="translate(5.052 4.306)"/><path class="b" d="M18.1,20.261a3.13,3.13,0,1,0-3.13-3.13A3.13,3.13,0,0,0,18.1,20.261Z" transform="translate(3.798 3.55)"/><path class="b" d="M10.2,44.152a2.727,2.727,0,0,0-.839,1.964,2.778,2.778,0,1,0,5.556,0v.546a2.232,2.232,0,1,0,4.456,0,2.265,2.265,0,0,0,.4,1.284" transform="translate(2.375 11.197)"/><path class="b" d="M32.877,41.093c2.073,1.494,3.592,2.518,4.767,3.256l-.134,2.618a2.521,2.521,0,1,1-5.035-.269l.3-5.5v-.176" transform="translate(8.235 10.404)"/><path class="b" d="M34.075,41.079l-.067.143-.378.722-1.385,2.7a2.518,2.518,0,0,1-2.367,1.3,2.391,2.391,0,0,1-1.024-.294,2.433,2.433,0,0,1-1.108-1.217" transform="translate(7.037 10.418)"/><path class="b" d="M33.382,41.5l-.2-.151-3.626-2.7" transform="translate(7.495 9.8)"/><path class="b" d="M29.908,43.331l-.084.067A1.267,1.267,0,0,1,28.07,43.1l-.436-.613" transform="translate(7.008 10.776)"/><path class="b" d="M65.953,45.878l-4.2-4.2a1.259,1.259,0,0,0-1.771,0L48.018,53.607a1.259,1.259,0,0,0,0,1.771l4.2,4.2" transform="translate(12.085 10.478)"/><path class="b" d="M60.327,42.029,48.376,53.971l-1.762-1.779a1.225,1.225,0,0,1-.344-1.125,2.3,2.3,0,0,1,.067-.227,1.187,1.187,0,0,1,.277-.411L56.785,40.266a.84.84,0,0,1,.126-.117,1.267,1.267,0,0,1,1.678.117Z" transform="translate(11.728 10.115)"/><path class="b" d="M36.416,37.08,32.724,35.4Zm0,0a5.472,5.472,0,0,0,.705.294Zm-3.533,5.472a.075.075,0,0,0-.067,0,.694.694,0,0,0-.176-.134m.084-7.016-.277-.126Z" transform="translate(8.229 8.946)"/><path class="b" d="M47.193,28.647l-6.311,4.49a13.756,13.756,0,0,0-6.034,1.939,17.3,17.3,0,0,0-1.821,1.192l-1.057-.478a2.166,2.166,0,0,0-.839-.218,2.518,2.518,0,0,0-1.981,4.2c-.621.663-1.25,1.376-1.863,2.14a2.518,2.518,0,0,1-3.9-3.139,33.083,33.083,0,0,1,7.7-7.192,22.554,22.554,0,0,1,3.751-1.989,19.252,19.252,0,0,1,9.786-1.4,20.317,20.317,0,0,1,2.568.462Z" transform="translate(5.828 7.114)"/><path class="b" d="M32.827,43.736c2.073,1.494,3.592,2.518,4.767,3.256a20.729,20.729,0,0,0,4.012,2.031c3.709,1.452,5.346,2.14,8.073,4.607a1.174,1.174,0,0,1,0-.168,2.3,2.3,0,0,1,.067-.227,1.182,1.182,0,0,1,.277-.411L60.228,42.62a.834.834,0,0,1,.126-.117c-3.181-2.753-4.121-8.392-9.55-11.9l-7.058,5.035a2.518,2.518,0,0,1-.411,1.334,5.035,5.035,0,0,1-4.246,1.981,5.248,5.248,0,0,1-.621-.042,6.488,6.488,0,0,1-1.4-.319,5.474,5.474,0,0,1-.705-.294L32.668,36.62" transform="translate(8.285 7.761)"/><path class="b" d="M33.933,42.658l-.2-.151-3.626-2.7a.327.327,0,0,1-.126-.092l-.789-.587-.411-.311a3.656,3.656,0,0,1-.361-.2l-.126-.117a1.457,1.457,0,0,1-.269-.235,2.518,2.518,0,0,1,1.981-4.2,2.164,2.164,0,0,1,.839.218l1.058.478,1.821.839" transform="translate(6.944 8.638)"/><path class="b" d="M60.327,42.029,48.376,53.971l-1.762-1.779a1.225,1.225,0,0,1-.344-1.125,2.3,2.3,0,0,1,.067-.227,1.187,1.187,0,0,1,.277-.411L56.785,40.266a.84.84,0,0,1,.126-.117,1.267,1.267,0,0,1,1.678.117Z" transform="translate(11.728 10.115)"/><path class="b" d="M51.245,29.169a2.778,2.778,0,0,1-1.192,2.291l-.311.227-7.058,5.035L40.108,38.56,36.852,33.91l.512-.361,6.311-4.49,3.114-2.216a2.828,2.828,0,0,1,4.456,2.3Z" transform="translate(9.346 6.677)"/><path class="b" d="M37.2,31.415l7.142-5.077a1.838,1.838,0,0,1,2.618.445" transform="translate(9.434 6.587)"/><path class="b" d="M26.639,44.726l-1.032.722c.05,1.469-2.963,1.838-5.035,1.93a.613.613,0,0,1-.437-1.124l5.035-3.567Z" transform="translate(5.032 10.825)"/><path class="b" d="M29.362,44.112l-.663.47L26.81,45.917a.621.621,0,0,1-.839-.134l-.361-.512-1.494-2.039a.621.621,0,0,1,.151-.881l2.518-1.813.252.336a1.775,1.775,0,0,0,.1.168h0l1.376,1.93.436.613Z" transform="translate(6.085 10.28)"/><path class="b" d="M30.235,44.445l3.751-2.669.2-.143-.2-.151-3.625-2.7a.327.327,0,0,1-.126-.092l-.789-.588-2.568,1.83a1.242,1.242,0,0,0-.411,1.561,1.774,1.774,0,0,0,.1.168h0l1.376,1.93" transform="translate(6.681 9.662)"/><path class="b" d="M41.169,37l-2.081,1.477a5.274,5.274,0,0,1-.621-.042,6.5,6.5,0,0,1-1.4-.319,5.472,5.472,0,0,1-.705-.294l-3.693-1.678,5.245-3.768Z" transform="translate(8.285 8.211)"/><path class="b" d="M32.723,35.4l-.276-.126" transform="translate(8.229 8.946)"/><path class="b" d="M32.843,41.107a.076.076,0,0,0-.067,0,.694.694,0,0,0-.176-.134" transform="translate(8.268 10.391)"/><path class="b" d="M32.723,35.4l-.276-.126" transform="translate(8.229 8.946)"/><path class="b" d="M32.843,41.107a.076.076,0,0,0-.067,0,.694.694,0,0,0-.176-.134" transform="translate(8.268 10.391)"/><path class="b" d="M40.16,57.5v8.955a2.518,2.518,0,0,1-2.518,2.518H4.518A2.518,2.518,0,0,1,2,66.457V21.2a2.518,2.518,0,0,1,2.518-2.518H11.4v4.759a1.259,1.259,0,0,0,1.259,1.25H29.535a1.25,1.25,0,0,0,1.25-1.25V18.7h6.882a2.518,2.518,0,0,1,2.518,2.518v7.427M36.409,49.37l-.084.067a1.267,1.267,0,0,1-1.754-.294l-.436-.613Zm3.751-2.954-3.626-2.7a.327.327,0,0,1-.126-.092l-.789-.587-.411-.311a3.706,3.706,0,0,1-.361-.2L34.73,42.4a1.458,1.458,0,0,1-.269-.235c-.621.663-1.25,1.376-1.863,2.14a2.518,2.518,0,0,1-3.9-3.139,33.08,33.08,0,0,1,7.713-7.209,22.554,22.554,0,0,1,3.751-1.989Z" transform="translate(0.507 4.737)"/><path class="b" d="M32.815,33.655v2.031l-1.821-.839a17.276,17.276,0,0,1,1.821-1.192Z" transform="translate(7.86 8.535)"/><path class="b" d="M23.621,21.491H12.979" transform="translate(3.292 5.45)"/><path class="b" d="M31.089,40.523l-.789-.588-.411-.311a3.679,3.679,0,0,1-.361-.2l-.117-.117a1.463,1.463,0,0,1-.269-.235c-.621.663-1.25,1.376-1.863,2.14a2.518,2.518,0,0,1-3.9-3.139,33.08,33.08,0,0,1,7.713-7.209" transform="translate(5.826 7.827)"/><path class="b" d="M24.962,21.491h4.381a1.25,1.25,0,0,1,1.242,1.25V29.6" transform="translate(6.331 5.45)"/><path class="b" d="M35.645,54.037V60.91a1.251,1.251,0,0,1-1.25,1.25H6.271a1.259,1.259,0,0,1-1.259-1.25V22.742a1.259,1.259,0,0,1,1.259-1.25h4.372" transform="translate(1.271 5.45)"/><path class="b" d="M27.64,42.485l.436.613a1.267,1.267,0,0,0,1.754.294l.084-.067" transform="translate(7.01 10.774)"/><path class="b" d="M8.48,29.478H27.607" transform="translate(2.151 7.476)"/><path class="b" d="M25.735,33.97H8.48" transform="translate(2.151 8.615)"/><path class="b" d="M8.48,38.957H21.807" transform="translate(2.151 9.88)"/><path class="b" d="M9.485,21.172V18.251a1.267,1.267,0,0,1,1.259-1.259h5.69" transform="translate(2.405 4.309)"/><path class="b" d="M19.921,16.979h5.035a1.259,1.259,0,0,1,1.25,1.259v2.937" transform="translate(5.052 4.306)"/><path class="b" d="M18.1,20.261a3.13,3.13,0,1,0-3.13-3.13A3.13,3.13,0,0,0,18.1,20.261Z" transform="translate(3.798 3.55)"/><path class="b" d="M10.2,44.152a2.727,2.727,0,0,0-.839,1.964,2.778,2.778,0,1,0,5.556,0v.546a2.232,2.232,0,1,0,4.456,0,2.265,2.265,0,0,0,.4,1.284" transform="translate(2.375 11.197)"/><path class="b" d="M32.877,41.093c2.073,1.494,3.592,2.518,4.767,3.256l-.134,2.618a2.521,2.521,0,1,1-5.035-.269l.3-5.5v-.176" transform="translate(8.235 10.404)"/><path class="b" d="M34.075,41.079l-.067.143-.378.722-1.385,2.7a2.518,2.518,0,0,1-2.367,1.3,2.391,2.391,0,0,1-1.024-.294,2.433,2.433,0,0,1-1.108-1.217" transform="translate(7.037 10.418)"/><path class="b" d="M33.382,41.5l-.2-.151-3.626-2.7" transform="translate(7.495 9.8)"/><path class="b" d="M29.908,43.331l-.084.067A1.267,1.267,0,0,1,28.07,43.1l-.436-.613" transform="translate(7.008 10.776)"/><path class="b" d="M65.953,45.878l-4.2-4.2a1.259,1.259,0,0,0-1.771,0L48.018,53.607a1.259,1.259,0,0,0,0,1.771l4.2,4.2" transform="translate(12.085 10.478)"/><path class="b" d="M60.327,42.029,48.376,53.971l-1.762-1.779a1.225,1.225,0,0,1-.344-1.125,2.3,2.3,0,0,1,.067-.227,1.187,1.187,0,0,1,.277-.411L56.785,40.266a.84.84,0,0,1,.126-.117,1.267,1.267,0,0,1,1.678.117Z" transform="translate(11.728 10.115)"/><path class="b" d="M36.416,37.08,32.724,35.4Zm0,0a5.472,5.472,0,0,0,.705.294Zm-3.533,5.472a.075.075,0,0,0-.067,0,.694.694,0,0,0-.176-.134m.084-7.016-.277-.126Z" transform="translate(8.229 8.946)"/><path class="b" d="M47.193,28.647l-6.311,4.49a13.756,13.756,0,0,0-6.034,1.939,17.3,17.3,0,0,0-1.821,1.192l-1.057-.478a2.166,2.166,0,0,0-.839-.218,2.518,2.518,0,0,0-1.981,4.2c-.621.663-1.25,1.376-1.863,2.14a2.518,2.518,0,0,1-3.9-3.139,33.083,33.083,0,0,1,7.7-7.192,22.554,22.554,0,0,1,3.751-1.989,19.252,19.252,0,0,1,9.786-1.4,20.317,20.317,0,0,1,2.568.462Z" transform="translate(5.828 7.114)"/><path class="b" d="M32.827,43.736c2.073,1.494,3.592,2.518,4.767,3.256a20.729,20.729,0,0,0,4.012,2.031c3.709,1.452,5.346,2.14,8.073,4.607a1.174,1.174,0,0,1,0-.168,2.3,2.3,0,0,1,.067-.227,1.182,1.182,0,0,1,.277-.411L60.228,42.62a.834.834,0,0,1,.126-.117c-3.181-2.753-4.121-8.392-9.55-11.9l-7.058,5.035a2.518,2.518,0,0,1-.411,1.334,5.035,5.035,0,0,1-4.246,1.981,5.248,5.248,0,0,1-.621-.042,6.488,6.488,0,0,1-1.4-.319,5.474,5.474,0,0,1-.705-.294L32.668,36.62" transform="translate(8.285 7.761)"/><path class="b" d="M33.933,42.658l-.2-.151-3.626-2.7a.327.327,0,0,1-.126-.092l-.789-.587-.411-.311a3.656,3.656,0,0,1-.361-.2l-.126-.117a1.457,1.457,0,0,1-.269-.235,2.518,2.518,0,0,1,1.981-4.2,2.164,2.164,0,0,1,.839.218l1.058.478,1.821.839" transform="translate(6.944 8.638)"/><path class="b" d="M60.327,42.029,48.376,53.971l-1.762-1.779a1.225,1.225,0,0,1-.344-1.125,2.3,2.3,0,0,1,.067-.227,1.187,1.187,0,0,1,.277-.411L56.785,40.266a.84.84,0,0,1,.126-.117,1.267,1.267,0,0,1,1.678.117Z" transform="translate(11.728 10.115)"/><path class="b" d="M51.245,29.169a2.778,2.778,0,0,1-1.192,2.291l-.311.227-7.058,5.035L40.108,38.56,36.852,33.91l.512-.361,6.311-4.49,3.114-2.216a2.828,2.828,0,0,1,4.456,2.3Z" transform="translate(9.346 6.677)"/><path class="b" d="M37.2,31.415l7.142-5.077a1.838,1.838,0,0,1,2.618.445" transform="translate(9.434 6.587)"/><path class="b" d="M26.639,44.726l-1.032.722c.05,1.469-2.963,1.838-5.035,1.93a.613.613,0,0,1-.437-1.124l5.035-3.567Z" transform="translate(5.032 10.825)"/><path class="b" d="M29.362,44.112l-.663.47L26.81,45.917a.621.621,0,0,1-.839-.134l-.361-.512-1.494-2.039a.621.621,0,0,1,.151-.881l2.518-1.813.252.336a1.775,1.775,0,0,0,.1.168h0l1.376,1.93.436.613Z" transform="translate(6.085 10.28)"/><path class="b" d="M30.235,44.445l3.751-2.669.2-.143-.2-.151-3.625-2.7a.327.327,0,0,1-.126-.092l-.789-.588-2.568,1.83a1.242,1.242,0,0,0-.411,1.561,1.774,1.774,0,0,0,.1.168h0l1.376,1.93" transform="translate(6.681 9.662)"/><path class="b" d="M41.169,37l-2.081,1.477a5.274,5.274,0,0,1-.621-.042,6.5,6.5,0,0,1-1.4-.319,5.472,5.472,0,0,1-.705-.294l-3.693-1.678,5.245-3.768Z" transform="translate(8.285 8.211)"/><path class="b" d="M32.723,35.4l-.276-.126" transform="translate(8.229 8.946)"/><path class="b" d="M32.843,41.107a.076.076,0,0,0-.067,0,.694.694,0,0,0-.176-.134" transform="translate(8.268 10.391)"/><path class="b" d="M32.723,35.4l-.276-.126" transform="translate(8.229 8.946)"/><path class="b" d="M32.843,41.107a.076.076,0,0,0-.067,0,.694.694,0,0,0-.176-.134" transform="translate(8.268 10.391)"/></svg>