<svg xmlns="http://www.w3.org/2000/svg" width="81" height="81" viewBox="0 0 81 81"><defs><style>.a,.c{fill:#fff;}.b{fill:none;stroke-linecap:round;stroke-linejoin:round;}.b,.c{stroke:#a18b80;}</style></defs><g transform="translate(0.5 0.5)"><rect class="a" width="80" height="80"/><path class="b" d="M22.655,27.374a4.453,4.453,0,0,1,1.366-1.143l5.36-2.969a4.477,4.477,0,0,1,6.206,2.093" transform="translate(5.599 5.616)"/><path class="b" d="M25.97,27.588l-7.75-3.8a1.114,1.114,0,0,1,.564-2.049l3.919-.148-1.188-4.573a1.114,1.114,0,0,1,1.9-1.039l3.207,3.489,2.227-3.207a1.1,1.1,0,0,1,1.247-.431,1.129,1.129,0,0,1,.787,1.069l-1.01,8.567Z" transform="translate(4.377 3.858)"/><path class="b" d="M23.3,32.7l7.5-4.083" transform="translate(5.758 7.073)"/><path class="b" d="M37.434,32.9l-5.553,3.044" transform="translate(7.879 8.132)"/><path class="b" d="M17.123,42.188a4.349,4.349,0,0,1-.223-3.548,4.454,4.454,0,0,1,2.479-2.583l5.627-2.346a4.454,4.454,0,0,1,5.939,2.732" transform="translate(4.108 8.247)"/><path class="b" d="M20.971,37.7l-7.3-4.588a1.114,1.114,0,0,1-.341-1.277,1.129,1.129,0,0,1,1.114-.713l3.92.282-.713-4.677a1.144,1.144,0,0,1,.683-1.2,1.114,1.114,0,0,1,1.321.371l2.821,3.786,2.554-2.969a1.114,1.114,0,0,1,1.945.846l-1.886,8.418Z" transform="translate(3.274 6.288)"/><path class="b" d="M17.123,42.188a4.349,4.349,0,0,1-.223-3.548,4.454,4.454,0,0,1,2.479-2.583l5.627-2.346a4.454,4.454,0,0,1,5.939,2.732" transform="translate(4.108 8.247)"/><path class="b" d="M20.7,40.99l4.142-1.811" transform="translate(5.116 9.682)"/><path class="b" d="M30.278,43.155a8.166,8.166,0,0,1,6.711-12.739,8,8,0,0,1,5.82,2.494" transform="translate(7.136 7.517)"/><path class="b" d="M38.982,43.1a8.092,8.092,0,1,1,13.882-8.3" transform="translate(9.314 7.568)"/><path class="b" d="M63.142,55.369a10.393,10.393,0,0,1-10.036,8.656H21.927a11.061,11.061,0,0,1-10.645-8.656L9.679,45.1H65.354Z" transform="translate(2.392 11.144)"/><path class="b" d="M11.9,45.1,32.23,64.025" transform="translate(2.942 11.144)"/><path class="b" d="M24.845,45.1l20.281,18.93" transform="translate(6.14 11.144)"/><path class="b" d="M37.738,45.1l16.2,15.1" transform="translate(9.326 11.144)"/><path class="b" d="M56.307,45.107l-20.3,18.9" transform="translate(8.9 11.147)"/><path class="b" d="M43.418,45.1l-20.31,18.93" transform="translate(5.71 11.144)"/><path class="b" d="M29.807,45.083l-16.628,15.5" transform="translate(3.257 11.141)"/><path class="b" d="M69.356,43.481a2.717,2.717,0,0,1-2.7,2.717H9.717A2.717,2.717,0,0,1,7,43.481v-.149a2.717,2.717,0,0,1,2.717-2.7H66.654a2.717,2.717,0,0,1,2.7,2.7Z" transform="translate(1.73 10.041)"/><path class="b" d="M15.025,36.425v-5.7a22.27,22.27,0,1,1,44.54,0V49.683H64.02V30.724a26.724,26.724,0,0,0-53.448,0V49.683h4.454v-10.9" transform="translate(2.613 0.989)"/><path class="b" d="M33.024,24.869l2.94,6.919" transform="translate(8.161 6.146)"/><path class="b" d="M28.119,35.833l2.346,5.983" transform="translate(6.949 8.855)"/><rect class="c" width="80" height="80"/><path class="b" d="M22.655,27.374a4.453,4.453,0,0,1,1.366-1.143l5.36-2.969a4.477,4.477,0,0,1,6.206,2.093" transform="translate(5.599 5.616)"/><path class="b" d="M25.97,27.588l-7.75-3.8a1.114,1.114,0,0,1,.564-2.049l3.919-.148-1.188-4.573a1.114,1.114,0,0,1,1.9-1.039l3.207,3.489,2.227-3.207a1.1,1.1,0,0,1,1.247-.431,1.129,1.129,0,0,1,.787,1.069l-1.01,8.567Z" transform="translate(4.377 3.858)"/><path class="b" d="M23.3,32.7l7.5-4.083" transform="translate(5.758 7.073)"/><path class="b" d="M37.434,32.9l-5.553,3.044" transform="translate(7.879 8.132)"/><path class="b" d="M17.123,42.188a4.349,4.349,0,0,1-.223-3.548,4.454,4.454,0,0,1,2.479-2.583l5.627-2.346a4.454,4.454,0,0,1,5.939,2.732" transform="translate(4.108 8.247)"/><path class="b" d="M20.971,37.7l-7.3-4.588a1.114,1.114,0,0,1-.341-1.277,1.129,1.129,0,0,1,1.114-.713l3.92.282-.713-4.677a1.144,1.144,0,0,1,.683-1.2,1.114,1.114,0,0,1,1.321.371l2.821,3.786,2.554-2.969a1.114,1.114,0,0,1,1.945.846l-1.886,8.418Z" transform="translate(3.274 6.288)"/><path class="b" d="M17.123,42.188a4.349,4.349,0,0,1-.223-3.548,4.454,4.454,0,0,1,2.479-2.583l5.627-2.346a4.454,4.454,0,0,1,5.939,2.732" transform="translate(4.108 8.247)"/><path class="b" d="M20.7,40.99l4.142-1.811" transform="translate(5.116 9.682)"/><path class="b" d="M30.278,43.155a8.166,8.166,0,0,1,6.711-12.739,8,8,0,0,1,5.82,2.494" transform="translate(7.136 7.517)"/><path class="b" d="M38.982,43.1a8.092,8.092,0,1,1,13.882-8.3" transform="translate(9.314 7.568)"/><path class="b" d="M63.142,55.369a10.393,10.393,0,0,1-10.036,8.656H21.927a11.061,11.061,0,0,1-10.645-8.656L9.679,45.1H65.354Z" transform="translate(2.392 11.144)"/><path class="b" d="M11.9,45.1,32.23,64.025" transform="translate(2.942 11.144)"/><path class="b" d="M24.845,45.1l20.281,18.93" transform="translate(6.14 11.144)"/><path class="b" d="M37.738,45.1l16.2,15.1" transform="translate(9.326 11.144)"/><path class="b" d="M56.307,45.107l-20.3,18.9" transform="translate(8.9 11.147)"/><path class="b" d="M43.418,45.1l-20.31,18.93" transform="translate(5.71 11.144)"/><path class="b" d="M29.807,45.083l-16.628,15.5" transform="translate(3.257 11.141)"/><path class="b" d="M69.356,43.481a2.717,2.717,0,0,1-2.7,2.717H9.717A2.717,2.717,0,0,1,7,43.481v-.149a2.717,2.717,0,0,1,2.717-2.7H66.654a2.717,2.717,0,0,1,2.7,2.7Z" transform="translate(1.73 10.041)"/><path class="b" d="M15.025,36.425v-5.7a22.27,22.27,0,1,1,44.54,0V49.683H64.02V30.724a26.724,26.724,0,0,0-53.448,0V49.683h4.454v-10.9" transform="translate(2.613 0.989)"/><path class="b" d="M33.024,24.869l2.94,6.919" transform="translate(8.161 6.146)"/><path class="b" d="M28.119,35.833l2.346,5.983" transform="translate(6.949 8.855)"/></g></svg>