<svg xmlns="http://www.w3.org/2000/svg" width="80" height="80" viewBox="0 0 80 80"><defs><style>.a{fill:#fff;}.b{fill:none;stroke-linecap:round;stroke-linejoin:round;}.b,.c{stroke:#a18b80;}.c{fill:#4550e5;}</style></defs><rect class="a" width="80" height="80"/><path class="b" d="M30.089,29a1.107,1.107,0,0,1-.494,1.7,12.007,12.007,0,0,0-1.372.59,17.072,17.072,0,0,0-4.262,2.977,18.449,18.449,0,0,0,1.554-13.4l-.341-1.274H25.3a14.2,14.2,0,0,0,.319,1.456c.051.16.1.32.16.473a11.007,11.007,0,0,0,1.7,3.166,4.809,4.809,0,0,0,.341.422c.087.109.189.218.291.328s.341.357.515.531.508.458.777.67c.138.109.283.218.443.328a1.458,1.458,0,0,0-.363,1A2.708,2.708,0,0,0,30.089,29Z" transform="translate(5.99 4.898)"/><path class="b" d="M44.848,34.266a17.208,17.208,0,0,0-4.262-2.977,12,12,0,0,0-1.372-.59A1.1,1.1,0,0,1,38.72,29a2.757,2.757,0,0,0,.6-1.034,1.458,1.458,0,0,0-.378-.975,7.785,7.785,0,0,0,.871-.692,11.078,11.078,0,0,0,3.2-4.775c.051-.153.109-.313.152-.473a11.89,11.89,0,0,0,.319-1.456h.131l-.341,1.274a18.487,18.487,0,0,0,1.568,13.4Z" transform="translate(9.623 4.898)"/><path class="b" d="M36.42,48.382h7.74v2.213" transform="translate(9.105 12.095)"/><path class="b" d="M38.945,25.49a1.457,1.457,0,0,1,.378,1,2.759,2.759,0,0,1-.6,1.055,1.1,1.1,0,0,0,.494,1.7,12,12,0,0,1,1.372.59,17.428,17.428,0,0,1,4.262,2.977,17.235,17.235,0,0,1,5.409,12.578V57.22" transform="translate(9.623 6.373)"/><path class="b" d="M19.628,49.121V45.365A17.408,17.408,0,0,1,29.285,29.81a11.973,11.973,0,0,1,1.372-.589,1.108,1.108,0,0,0,.494-1.7,2.708,2.708,0,0,1-.588-1.034,1.458,1.458,0,0,1,.37-.975" transform="translate(4.907 6.377)"/><path class="b" d="M42.6,50.6V39.524" transform="translate(10.65 9.881)"/><path class="b" d="M24.931,45.617V39.524" transform="translate(6.233 9.881)"/><path class="b" d="M40.942,59.48H13.889l.341,1.376a1.1,1.1,0,0,0,1.067.808H39.534a1.1,1.1,0,0,0,1.067-.837Z" transform="translate(3.472 14.87)"/><path class="b" d="M42.275,62.144A1.076,1.076,0,0,1,41.2,63.251H14.075A1.076,1.076,0,0,1,13,62.174v-16.7A1.076,1.076,0,0,1,14.075,44.4H41.2a1.076,1.076,0,0,1,1.075,1.077Z" transform="translate(3.25 11.1)"/><path class="b" d="M26.95,53.3a1.779,1.779,0,0,1,.566-1.325,1.257,1.257,0,0,0-.937-.771,1.452,1.452,0,0,0-1.322.881,1.452,1.452,0,0,0-1.321-.844c-.806.095-1.343,1.208-1.191,2.482s.929,2.227,1.743,2.125a1.14,1.14,0,0,0,.77-.488,1.126,1.126,0,0,0,.77.488c.588.073,1.162-.422,1.488-1.194A1.763,1.763,0,0,1,26.95,53.3Z" transform="translate(5.68 12.801)"/><path class="c" d="M25.292,50.564h.131a1.664,1.664,0,0,0,1.655-1.456m-1.786,1.456.009-.2h0v-.013h.015l.106.012h0l.286.032a1.1,1.1,0,0,1,.284-.622m-.7.793a.2.2,0,0,1-.085-.023.205.205,0,0,1-.067-.057l.153-.138h0v.216Zm.7-.793a1.048,1.048,0,0,0,.118-.09q.038-.034.073-.07m-.191.16a1.092,1.092,0,0,1,.087-.084m-.087.084a1.034,1.034,0,0,1-.569.168h-.133v.406l.79-.658m.1-.076a1.019,1.019,0,0,1,.482-.159l.04.011.063.018.066,0a.416.416,0,0,1-.127-.028L26.7,49.45h.046v-.38l.072.008.034,0h.013l.217.025m-.893.5a1.016,1.016,0,0,0-.1.076m.1-.076-.1.076m1-.578-.212-.027h-.015l-.036,0-.072-.009m.335.043a.218.218,0,0,0-.051-.167.211.211,0,0,0-.153-.08l-.132.2m0,0v0Zm-.286-.03.221.026-.023.084-.031.113-.01.036-.025.089a.4.4,0,0,1-.037-.036l-.008-.009-.008-.01a.406.406,0,0,1-.079-.291ZM25.31,50.346H25.3v0l.018-.4a.416.416,0,0,1,.1.017h0a.425.425,0,0,1,.072.03.42.42,0,0,1,.113.086l.014.015.012.017a.413.413,0,0,1,.074.281l-.287-.029h0l-.1-.011Z" transform="translate(6.285 12.206)"/><path class="b" d="M46.138,60.2h.639a3.766,3.766,0,0,0,3.13-1.667" transform="translate(11.535 14.634)"/><path class="b" d="M46.138,58.958V50.594h.639a3.621,3.621,0,0,1,1.568.349,3.715,3.715,0,0,1,1.9,1.871" transform="translate(11.535 12.649)"/><path class="b" d="M50.408,60.122h-.958A3.322,3.322,0,0,1,46.138,56.8V55.689a3.315,3.315,0,0,1,3.311-3.319h.958a1.81,1.81,0,0,1,1.808,1.813v4.164a1.817,1.817,0,0,1-1.808,1.776Z" transform="translate(11.535 13.093)"/><path class="b" d="M40.3,63.44a2.447,2.447,0,0,1-2.236-3.414,2.457,2.457,0,0,0,.2-.968v-7.8a1.1,1.1,0,0,1,1.1-1.1H47.1a1.105,1.105,0,0,1,1.1,1.106v7.8a2.445,2.445,0,0,0,.2.961,2.458,2.458,0,0,1-2.258,3.414Z" transform="translate(9.466 12.541)"/><path class="b" d="M24.124,16.389a2.244,2.244,0,0,0-.958,1.827A2.181,2.181,0,0,0,25.343,20.4H25.5a14.153,14.153,0,0,0,.319,1.456c.051.16.1.32.16.473a11,11,0,0,0,1.7,3.159,4.809,4.809,0,0,0,.341.422c.087.109.189.218.29.328s.341.357.516.531.508.458.777.67c.138.109.283.218.443.327a12.358,12.358,0,0,0,1.416.852,7.329,7.329,0,0,0,.762.342c.232.1.472.189.726.277l.131.044c.24.065.494.146.726.2a5.415,5.415,0,0,0,.552.117l.356.073.653.073h2.055l.646-.073a10.573,10.573,0,0,0,2.708-.793c.2-.087.378-.16.566-.262a10.606,10.606,0,0,0,1.409-.866,9.976,9.976,0,0,0,.9-.655,11.08,11.08,0,0,0,3.2-4.775c.051-.153.109-.313.152-.473a11.867,11.867,0,0,0,.32-1.456h.131a2.181,2.181,0,0,0,2.178-2.184,2.252,2.252,0,0,0-.9-1.82" transform="translate(5.791 4.097)"/><path class="b" d="M31.111,22.066a4.805,4.805,0,0,0,6.644,0" transform="translate(7.778 5.517)"/><path class="b" d="M39.293,17.156a1.806,1.806,0,0,0-3.325,0" transform="translate(8.992 4.014)"/><path class="b" d="M32.218,17.156a1.807,1.807,0,0,0-3.326,0" transform="translate(7.223 4.014)"/><path class="b" d="M35.731,6.752c-5.511,0-9.969,3.123-9.94,6.959h.2c.908-2.409,4.923-4.229,9.744-4.229s8.836,1.82,9.744,4.229h.2C45.736,9.874,41.271,6.752,35.731,6.752Z" transform="translate(6.448 1.688)"/><path class="b" d="M43.511,4.916C36.084.811,31.379,4.45,30.435,5.3a1.081,1.081,0,0,1-.414.24c-.915.284-4.24,1.652-5.809,6.551a19.531,19.531,0,0,0-.646,6.719,1.1,1.1,0,0,0,1.1,1.034h.813a1.08,1.08,0,0,0,.661-.226,11.263,11.263,0,0,0,3.26-3.545,1.1,1.1,0,0,1,1.452-.59A14.184,14.184,0,0,0,36.3,16.548a14.329,14.329,0,0,0,5.359-.99,1.1,1.1,0,0,1,1.452.684c.6,1.987,2.425,3.6,4.2,3.6h.726a1.112,1.112,0,0,0,1.1-.983C49.509,16.133,49.814,8.417,43.511,4.916Z" transform="translate(5.877 0.75)"/><path class="b" d="M36.42,48.382h7.74" transform="translate(9.105 12.095)"/></svg>