<svg xmlns="http://www.w3.org/2000/svg" width="80" height="80" viewBox="0 0 80 80"><defs><style>.a{fill:#fff;}.b{fill:none;stroke:#a18b80;stroke-linecap:round;stroke-linejoin:round;}</style></defs><rect class="a" width="80" height="80"/><path class="b" d="M40.05,57.391V66.32a2.511,2.511,0,0,1-2.511,2.51H4.51A2.51,2.51,0,0,1,2,66.32V21.19a2.511,2.511,0,0,1,2.51-2.51h6.862v4.745a1.255,1.255,0,0,0,1.255,1.247H29.456A1.247,1.247,0,0,0,30.7,23.424V18.7h6.862a2.511,2.511,0,0,1,2.51,2.51v7.406M36.31,49.282l-.084.067a1.264,1.264,0,0,1-1.749-.293l-.435-.611Zm3.741-2.946-3.615-2.695a.326.326,0,0,1-.125-.092l-.787-.586-.41-.31a3.7,3.7,0,0,1-.36-.2l-.117-.125a1.454,1.454,0,0,1-.268-.234c-.619.661-1.247,1.372-1.858,2.134a2.51,2.51,0,0,1-3.891-3.13,32.985,32.985,0,0,1,7.69-7.188,22.49,22.49,0,0,1,3.741-1.983Z" transform="translate(0.5 4.67)"/><path class="b" d="M32.81,33.655V35.68l-1.816-.837a17.225,17.225,0,0,1,1.816-1.188Z" transform="translate(7.749 8.414)"/><path class="b" d="M23.59,21.491H12.979" transform="translate(3.245 5.373)"/><path class="b" d="M31.066,40.5l-.787-.586-.41-.31a3.669,3.669,0,0,1-.36-.2l-.117-.117a1.459,1.459,0,0,1-.268-.234c-.619.661-1.247,1.372-1.858,2.134a2.51,2.51,0,0,1-3.891-3.13,32.985,32.985,0,0,1,7.69-7.188" transform="translate(5.744 7.716)"/><path class="b" d="M24.962,21.491H29.33a1.247,1.247,0,0,1,1.238,1.247v6.837" transform="translate(6.241 5.373)"/><path class="b" d="M35.556,53.943V60.8a1.247,1.247,0,0,1-1.247,1.247H6.268A1.255,1.255,0,0,1,5.013,60.8V22.738a1.255,1.255,0,0,1,1.255-1.247h4.36" transform="translate(1.253 5.373)"/><path class="b" d="M27.64,42.485l.435.611a1.264,1.264,0,0,0,1.749.293l.084-.067" transform="translate(6.91 10.621)"/><path class="b" d="M8.48,29.478H27.552" transform="translate(2.12 7.369)"/><path class="b" d="M25.685,33.97H8.48" transform="translate(2.12 8.492)"/><path class="b" d="M8.48,38.957H21.769" transform="translate(2.12 9.739)"/><path class="b" d="M9.485,21.16V18.248a1.263,1.263,0,0,1,1.255-1.255h5.674" transform="translate(2.371 4.248)"/><path class="b" d="M19.921,16.979h5.021a1.255,1.255,0,0,1,1.247,1.255v2.929" transform="translate(4.98 4.245)"/><path class="b" d="M18.1,20.243a3.121,3.121,0,1,0-3.121-3.121A3.121,3.121,0,0,0,18.1,20.243Z" transform="translate(3.744 3.5)"/><path class="b" d="M10.2,44.152a2.719,2.719,0,0,0-.837,1.958,2.77,2.77,0,1,0,5.54,0v.544a2.226,2.226,0,1,0,4.443,0,2.259,2.259,0,0,0,.4,1.28" transform="translate(2.341 11.038)"/><path class="b" d="M32.876,41.093c2.067,1.49,3.582,2.51,4.753,3.247L37.5,46.951a2.514,2.514,0,1,1-5.021-.268l.3-5.481v-.176" transform="translate(8.118 10.256)"/><path class="b" d="M34.057,41.079l-.067.142-.377.72-1.381,2.695a2.51,2.51,0,0,1-2.36,1.3,2.384,2.384,0,0,1-1.021-.293,2.426,2.426,0,0,1-1.1-1.213" transform="translate(6.937 10.27)"/><path class="b" d="M33.371,41.488l-.2-.151-3.615-2.695" transform="translate(7.389 9.661)"/><path class="b" d="M29.9,43.329l-.084.067a1.264,1.264,0,0,1-1.749-.293l-.435-.611" transform="translate(6.908 10.623)"/><path class="b" d="M65.9,45.865l-4.184-4.184a1.255,1.255,0,0,0-1.766,0L48.017,53.572a1.255,1.255,0,0,0,0,1.766L52.2,59.522" transform="translate(11.914 10.33)"/><path class="b" d="M60.286,42.022,48.37,53.93l-1.757-1.774a1.222,1.222,0,0,1-.343-1.121,2.3,2.3,0,0,1,.067-.226,1.184,1.184,0,0,1,.276-.41L56.755,40.265a.838.838,0,0,1,.126-.117,1.264,1.264,0,0,1,1.674.117Z" transform="translate(11.561 9.971)"/><path class="b" d="M36.405,37.075,32.723,35.4Zm0,0a5.456,5.456,0,0,0,.7.293Zm-3.523,5.456a.075.075,0,0,0-.067,0,.692.692,0,0,0-.176-.134m.084-7-.276-.126Z" transform="translate(8.112 8.819)"/><path class="b" d="M47.123,28.646,40.83,33.123a13.716,13.716,0,0,0-6.017,1.933A17.247,17.247,0,0,0,33,36.244l-1.054-.477a2.159,2.159,0,0,0-.837-.218,2.51,2.51,0,0,0-1.975,4.184c-.619.661-1.247,1.372-1.858,2.134a2.51,2.51,0,0,1-3.891-3.13,32.987,32.987,0,0,1,7.682-7.172,22.489,22.489,0,0,1,3.741-1.983,19.2,19.2,0,0,1,9.757-1.4,20.258,20.258,0,0,1,2.561.46Z" transform="translate(5.745 7.013)"/><path class="b" d="M32.827,43.7c2.067,1.489,3.582,2.51,4.753,3.247a20.669,20.669,0,0,0,4,2.025c3.7,1.448,5.331,2.134,8.05,4.594a1.169,1.169,0,0,1,0-.167,2.3,2.3,0,0,1,.067-.226,1.179,1.179,0,0,1,.276-.41L60.149,42.586a.831.831,0,0,1,.126-.117C57.1,39.724,56.166,34.1,50.751,30.6l-7.038,5.021a2.511,2.511,0,0,1-.41,1.33,5.02,5.02,0,0,1-4.234,1.975,5.232,5.232,0,0,1-.619-.042,6.469,6.469,0,0,1-1.4-.318,5.457,5.457,0,0,1-.7-.293L32.668,36.6" transform="translate(8.167 7.651)"/><path class="b" d="M33.914,42.633l-.2-.151L30.1,39.788a.326.326,0,0,1-.125-.092l-.787-.586-.41-.31a3.645,3.645,0,0,1-.36-.2l-.125-.117a1.453,1.453,0,0,1-.268-.234A2.51,2.51,0,0,1,30,34.064a2.158,2.158,0,0,1,.837.218l1.055.477L33.7,35.6" transform="translate(6.845 8.516)"/><path class="b" d="M60.286,42.022,48.37,53.93l-1.757-1.774a1.222,1.222,0,0,1-.343-1.121,2.3,2.3,0,0,1,.067-.226,1.184,1.184,0,0,1,.276-.41L56.755,40.265a.838.838,0,0,1,.126-.117,1.264,1.264,0,0,1,1.674.117Z" transform="translate(11.561 9.971)"/><path class="b" d="M51.2,29.161a2.77,2.77,0,0,1-1.188,2.285l-.31.226-7.038,5.021L40.1,38.525l-3.247-4.636.511-.36,6.293-4.477,3.1-2.209A2.82,2.82,0,0,1,51.2,29.135Z" transform="translate(9.213 6.582)"/><path class="b" d="M37.2,31.4l7.121-5.063a1.833,1.833,0,0,1,2.611.444" transform="translate(9.3 6.494)"/><path class="b" d="M26.619,44.72l-1.029.72c.05,1.464-2.954,1.833-5.021,1.925a.611.611,0,0,1-.435-1.121l5.021-3.557Z" transform="translate(4.96 10.672)"/><path class="b" d="M29.346,44.1l-.661.469L26.8,45.9a.619.619,0,0,1-.837-.134l-.36-.51-1.49-2.033a.619.619,0,0,1,.151-.879l2.51-1.807.251.335a1.769,1.769,0,0,0,.1.167h0L28.5,42.964l.435.611Z" transform="translate(5.999 10.134)"/><path class="b" d="M30.224,44.427l3.741-2.661.2-.142-.2-.151-3.615-2.695a.326.326,0,0,1-.125-.092l-.787-.586-2.561,1.824a1.239,1.239,0,0,0-.41,1.556,1.77,1.77,0,0,0,.1.167h0l1.372,1.925" transform="translate(6.586 9.525)"/><path class="b" d="M41.145,36.988,39.069,38.46a5.262,5.262,0,0,1-.619-.042,6.477,6.477,0,0,1-1.4-.318,5.458,5.458,0,0,1-.7-.293l-3.682-1.674,5.23-3.757Z" transform="translate(8.167 8.094)"/><path class="b" d="M32.722,35.4l-.275-.126" transform="translate(8.112 8.819)"/><path class="b" d="M32.843,41.106a.076.076,0,0,0-.067,0,.692.692,0,0,0-.175-.134" transform="translate(8.15 10.243)"/><path class="b" d="M32.722,35.4l-.275-.126" transform="translate(8.112 8.819)"/><path class="b" d="M32.843,41.106a.076.076,0,0,0-.067,0,.692.692,0,0,0-.175-.134" transform="translate(8.15 10.243)"/><path class="b" d="M40.05,57.391V66.32a2.511,2.511,0,0,1-2.511,2.51H4.51A2.51,2.51,0,0,1,2,66.32V21.19a2.511,2.511,0,0,1,2.51-2.51h6.862v4.745a1.255,1.255,0,0,0,1.255,1.247H29.456A1.247,1.247,0,0,0,30.7,23.424V18.7h6.862a2.511,2.511,0,0,1,2.51,2.51v7.406M36.31,49.282l-.084.067a1.264,1.264,0,0,1-1.749-.293l-.435-.611Zm3.741-2.946-3.615-2.695a.326.326,0,0,1-.125-.092l-.787-.586-.41-.31a3.7,3.7,0,0,1-.36-.2l-.117-.125a1.454,1.454,0,0,1-.268-.234c-.619.661-1.247,1.372-1.858,2.134a2.51,2.51,0,0,1-3.891-3.13,32.985,32.985,0,0,1,7.69-7.188,22.49,22.49,0,0,1,3.741-1.983Z" transform="translate(0.5 4.67)"/><path class="b" d="M32.81,33.655V35.68l-1.816-.837a17.225,17.225,0,0,1,1.816-1.188Z" transform="translate(7.749 8.414)"/><path class="b" d="M23.59,21.491H12.979" transform="translate(3.245 5.373)"/><path class="b" d="M31.066,40.5l-.787-.586-.41-.31a3.669,3.669,0,0,1-.36-.2l-.117-.117a1.459,1.459,0,0,1-.268-.234c-.619.661-1.247,1.372-1.858,2.134a2.51,2.51,0,0,1-3.891-3.13,32.985,32.985,0,0,1,7.69-7.188" transform="translate(5.744 7.716)"/><path class="b" d="M24.962,21.491H29.33a1.247,1.247,0,0,1,1.238,1.247v6.837" transform="translate(6.241 5.373)"/><path class="b" d="M35.556,53.943V60.8a1.247,1.247,0,0,1-1.247,1.247H6.268A1.255,1.255,0,0,1,5.013,60.8V22.738a1.255,1.255,0,0,1,1.255-1.247h4.36" transform="translate(1.253 5.373)"/><path class="b" d="M27.64,42.485l.435.611a1.264,1.264,0,0,0,1.749.293l.084-.067" transform="translate(6.91 10.621)"/><path class="b" d="M8.48,29.478H27.552" transform="translate(2.12 7.369)"/><path class="b" d="M25.685,33.97H8.48" transform="translate(2.12 8.492)"/><path class="b" d="M8.48,38.957H21.769" transform="translate(2.12 9.739)"/><path class="b" d="M9.485,21.16V18.248a1.263,1.263,0,0,1,1.255-1.255h5.674" transform="translate(2.371 4.248)"/><path class="b" d="M19.921,16.979h5.021a1.255,1.255,0,0,1,1.247,1.255v2.929" transform="translate(4.98 4.245)"/><path class="b" d="M18.1,20.243a3.121,3.121,0,1,0-3.121-3.121A3.121,3.121,0,0,0,18.1,20.243Z" transform="translate(3.744 3.5)"/><path class="b" d="M10.2,44.152a2.719,2.719,0,0,0-.837,1.958,2.77,2.77,0,1,0,5.54,0v.544a2.226,2.226,0,1,0,4.443,0,2.259,2.259,0,0,0,.4,1.28" transform="translate(2.341 11.038)"/><path class="b" d="M32.876,41.093c2.067,1.49,3.582,2.51,4.753,3.247L37.5,46.951a2.514,2.514,0,1,1-5.021-.268l.3-5.481v-.176" transform="translate(8.118 10.256)"/><path class="b" d="M34.057,41.079l-.067.142-.377.72-1.381,2.695a2.51,2.51,0,0,1-2.36,1.3,2.384,2.384,0,0,1-1.021-.293,2.426,2.426,0,0,1-1.1-1.213" transform="translate(6.937 10.27)"/><path class="b" d="M33.371,41.488l-.2-.151-3.615-2.695" transform="translate(7.389 9.661)"/><path class="b" d="M29.9,43.329l-.084.067a1.264,1.264,0,0,1-1.749-.293l-.435-.611" transform="translate(6.908 10.623)"/><path class="b" d="M65.9,45.865l-4.184-4.184a1.255,1.255,0,0,0-1.766,0L48.017,53.572a1.255,1.255,0,0,0,0,1.766L52.2,59.522" transform="translate(11.914 10.33)"/><path class="b" d="M60.286,42.022,48.37,53.93l-1.757-1.774a1.222,1.222,0,0,1-.343-1.121,2.3,2.3,0,0,1,.067-.226,1.184,1.184,0,0,1,.276-.41L56.755,40.265a.838.838,0,0,1,.126-.117,1.264,1.264,0,0,1,1.674.117Z" transform="translate(11.561 9.971)"/><path class="b" d="M36.405,37.075,32.723,35.4Zm0,0a5.456,5.456,0,0,0,.7.293Zm-3.523,5.456a.075.075,0,0,0-.067,0,.692.692,0,0,0-.176-.134m.084-7-.276-.126Z" transform="translate(8.112 8.819)"/><path class="b" d="M47.123,28.646,40.83,33.123a13.716,13.716,0,0,0-6.017,1.933A17.247,17.247,0,0,0,33,36.244l-1.054-.477a2.159,2.159,0,0,0-.837-.218,2.51,2.51,0,0,0-1.975,4.184c-.619.661-1.247,1.372-1.858,2.134a2.51,2.51,0,0,1-3.891-3.13,32.987,32.987,0,0,1,7.682-7.172,22.489,22.489,0,0,1,3.741-1.983,19.2,19.2,0,0,1,9.757-1.4,20.258,20.258,0,0,1,2.561.46Z" transform="translate(5.745 7.013)"/><path class="b" d="M32.827,43.7c2.067,1.489,3.582,2.51,4.753,3.247a20.669,20.669,0,0,0,4,2.025c3.7,1.448,5.331,2.134,8.05,4.594a1.169,1.169,0,0,1,0-.167,2.3,2.3,0,0,1,.067-.226,1.179,1.179,0,0,1,.276-.41L60.149,42.586a.831.831,0,0,1,.126-.117C57.1,39.724,56.166,34.1,50.751,30.6l-7.038,5.021a2.511,2.511,0,0,1-.41,1.33,5.02,5.02,0,0,1-4.234,1.975,5.232,5.232,0,0,1-.619-.042,6.469,6.469,0,0,1-1.4-.318,5.457,5.457,0,0,1-.7-.293L32.668,36.6" transform="translate(8.167 7.651)"/><path class="b" d="M33.914,42.633l-.2-.151L30.1,39.788a.326.326,0,0,1-.125-.092l-.787-.586-.41-.31a3.645,3.645,0,0,1-.36-.2l-.125-.117a1.453,1.453,0,0,1-.268-.234A2.51,2.51,0,0,1,30,34.064a2.158,2.158,0,0,1,.837.218l1.055.477L33.7,35.6" transform="translate(6.845 8.516)"/><path class="b" d="M60.286,42.022,48.37,53.93l-1.757-1.774a1.222,1.222,0,0,1-.343-1.121,2.3,2.3,0,0,1,.067-.226,1.184,1.184,0,0,1,.276-.41L56.755,40.265a.838.838,0,0,1,.126-.117,1.264,1.264,0,0,1,1.674.117Z" transform="translate(11.561 9.971)"/><path class="b" d="M51.2,29.161a2.77,2.77,0,0,1-1.188,2.285l-.31.226-7.038,5.021L40.1,38.525l-3.247-4.636.511-.36,6.293-4.477,3.1-2.209A2.82,2.82,0,0,1,51.2,29.135Z" transform="translate(9.213 6.582)"/><path class="b" d="M37.2,31.4l7.121-5.063a1.833,1.833,0,0,1,2.611.444" transform="translate(9.3 6.494)"/><path class="b" d="M26.619,44.72l-1.029.72c.05,1.464-2.954,1.833-5.021,1.925a.611.611,0,0,1-.435-1.121l5.021-3.557Z" transform="translate(4.96 10.672)"/><path class="b" d="M29.346,44.1l-.661.469L26.8,45.9a.619.619,0,0,1-.837-.134l-.36-.51-1.49-2.033a.619.619,0,0,1,.151-.879l2.51-1.807.251.335a1.769,1.769,0,0,0,.1.167h0L28.5,42.964l.435.611Z" transform="translate(5.999 10.134)"/><path class="b" d="M30.224,44.427l3.741-2.661.2-.142-.2-.151-3.615-2.695a.326.326,0,0,1-.125-.092l-.787-.586-2.561,1.824a1.239,1.239,0,0,0-.41,1.556,1.77,1.77,0,0,0,.1.167h0l1.372,1.925" transform="translate(6.586 9.525)"/><path class="b" d="M41.145,36.988,39.069,38.46a5.262,5.262,0,0,1-.619-.042,6.477,6.477,0,0,1-1.4-.318,5.458,5.458,0,0,1-.7-.293l-3.682-1.674,5.23-3.757Z" transform="translate(8.167 8.094)"/><path class="b" d="M32.722,35.4l-.275-.126" transform="translate(8.112 8.819)"/><path class="b" d="M32.843,41.106a.076.076,0,0,0-.067,0,.692.692,0,0,0-.175-.134" transform="translate(8.15 10.243)"/><path class="b" d="M32.722,35.4l-.275-.126" transform="translate(8.112 8.819)"/><path class="b" d="M32.843,41.106a.076.076,0,0,0-.067,0,.692.692,0,0,0-.175-.134" transform="translate(8.15 10.243)"/></svg>