<svg xmlns="http://www.w3.org/2000/svg" width="80" height="80" viewBox="0 0 80 80"><defs><style>.a{fill:#fff;}.b,.c{fill:none;stroke:#a18b80;stroke-linejoin:round;}.b{stroke-linecap:round;}</style></defs><rect class="a" width="80" height="80"/><path class="b" d="M24.764,33.876V33.22" transform="translate(6.191 8.305)"/><path class="b" d="M37.029,33.22v.053a1.167,1.167,0,0,1-.236.762v-.762Z" transform="translate(9.198 8.305)"/><path class="b" d="M20.583,46.617a1.39,1.39,0,0,0,.434,0l2.865-.519,3.048-.511-1.616-1.334A18.784,18.784,0,0,0,29,45.237h0a19.806,19.806,0,0,0,3.323.274,18.982,18.982,0,0,0,3.376-.29h0a19.425,19.425,0,0,0,3.711-.991l-1.585,1.35,3.048.511,2.881.48a1.115,1.115,0,0,0,.389,0" transform="translate(5.146 11.058)"/><path class="b" d="M44.114,48.732V65.317l-3.269-1.822-8.5-4.72-8.5,4.72-3.269,1.822V48.74" transform="translate(5.146 12.183)"/><path class="b" d="M20.583,48.827V65.4l3.269-1.822v-15.2" transform="translate(5.146 12.096)"/><path class="b" d="M20.583,46.244a1.382,1.382,0,0,0,.434,0l2.865-.518" transform="translate(5.146 11.431)"/><path class="b" d="M37.029,33.22v.053a1.167,1.167,0,0,1-.236.762v-.762Z" transform="translate(9.198 8.305)"/><path class="b" d="M36.792,48.367V63.586l3.269,1.822V48.824" transform="translate(9.198 12.092)"/><path class="b" d="M36.792,45.719l2.88.48a1.109,1.109,0,0,0,.389,0" transform="translate(9.198 11.43)"/><path class="b" d="M38.441,14.9a19.388,19.388,0,0,0-3.7-.976h0a20.242,20.242,0,0,0-6.691,0h0a19.276,19.276,0,0,0-3.711,1l1.616-1.35,4.633-3.812a1.287,1.287,0,0,1,1.661,0l4.572,3.812Z" transform="translate(6.086 2.364)"/><path class="b" d="M29.736,13.309a19.28,19.28,0,0,0-3.711,1h0a20.4,20.4,0,0,0-5.822,3.37h0A19.96,19.96,0,0,0,17.5,20.416l.762-2.005,2.1-5.62a1.3,1.3,0,0,1,1.395-.808l5.89.991Z" transform="translate(4.374 2.992)"/><path class="b" d="M21.324,16.549a19.946,19.946,0,0,0-2.705,2.737h0a20.457,20.457,0,0,0-3.345,5.825,18.792,18.792,0,0,0-.983,3.691L13.94,26.72l-1-5.917a1.312,1.312,0,0,1,.823-1.449l5.608-2.082Z" transform="translate(3.231 4.137)"/><path class="b" d="M15.9,37.534l-1.349-1.617-3.81-4.636a1.289,1.289,0,0,1,0-1.662l3.81-4.575,1.334-1.609a18.812,18.812,0,0,0-.983,3.691h0a19.844,19.844,0,0,0-.282,3.34,18.92,18.92,0,0,0,.29,3.37h0a19.3,19.3,0,0,0,.991,3.7Z" transform="translate(2.61 5.859)"/><path class="b" d="M21.377,44.011,19.4,43.249l-5.624-2.1a1.312,1.312,0,0,1-.838-1.441l.991-5.894.358-2.1a19.308,19.308,0,0,0,.991,3.713h0a20.365,20.365,0,0,0,3.376,5.81h0a21.176,21.176,0,0,0,2.721,2.768Z" transform="translate(3.231 7.93)"/><path class="b" d="M27.549,46.4l-3.048.511-2.865.519a1.383,1.383,0,0,1-.434,0A1.273,1.273,0,0,1,20.2,46.6l-2.088-5.612,1.974.763c.366.3.762.587,1.12.862a19.638,19.638,0,0,0,3.3,1.838c.472.221.968.427,1.463.61Z" transform="translate(4.527 10.248)"/><path class="b" d="M20.233,42.1l-1.974-.762L17.5,39.363A21.168,21.168,0,0,0,20.233,42.1Z" transform="translate(4.374 9.841)"/><path class="b" d="M28.056,45.233l-2.073.351-1.615-1.334A18.766,18.766,0,0,0,28.056,45.233Z" transform="translate(6.092 11.062)"/><path class="b" d="M38.5,44.23l-1.623,1.35-4.625,3.813a1.288,1.288,0,0,1-1.661,0L25.976,45.58l-1.608-1.327a18.784,18.784,0,0,0,3.688.984h0a19.805,19.805,0,0,0,3.322.274,18.983,18.983,0,0,0,3.376-.29h0A19.415,19.415,0,0,0,38.5,44.23Z" transform="translate(6.092 11.058)"/><path class="b" d="M43.811,40.937l-2.1,5.62a1.3,1.3,0,0,1-1.044.839,1.115,1.115,0,0,1-.389,0l-2.88-.48L34.354,46.4l1.623-1.35c.472-.183.93-.381,1.387-.587a19.649,19.649,0,0,0,3.269-1.9c.4-.29.762-.58,1.151-.892Z" transform="translate(8.588 10.234)"/><path class="b" d="M32.708,45.222a19.425,19.425,0,0,0,3.711-.991L34.8,45.58Z" transform="translate(8.177 11.058)"/><path class="b" d="M43.064,39.332,42.3,41.338l-1.974.762a20.99,20.99,0,0,0,2.736-2.768Z" transform="translate(10.082 9.833)"/><path class="b" d="M48.75,39.7a1.289,1.289,0,0,1-.846,1.441l-5.609,2.1L40.322,44a20.98,20.98,0,0,0,2.721-2.737h0A20.331,20.331,0,0,0,46.4,35.44a19.34,19.34,0,0,0,.975-3.69l.358,2.082Z" transform="translate(10.08 7.938)"/><path class="b" d="M50.35,31.25l-3.81,4.621L45.206,37.48a19.341,19.341,0,0,0,.976-3.69h0a20.327,20.327,0,0,0,0-6.7h0a19.39,19.39,0,0,0-1.014-3.736l1.349,1.624,3.81,4.628a1.289,1.289,0,0,1,.023,1.647Z" transform="translate(11.292 5.838)"/><path class="b" d="M48.742,20.761l-.991,5.9-.35,2.1a19.378,19.378,0,0,0-1.014-3.7,20.336,20.336,0,0,0-3.353-5.826h0a20.069,20.069,0,0,0-2.743-2.73l2,.763,5.616,2.082a1.289,1.289,0,0,1,.831,1.411Z" transform="translate(10.073 4.127)"/><path class="b" d="M44.926,20.38a20.07,20.07,0,0,0-2.728-2.73h0a20.355,20.355,0,0,0-5.837-3.37,19.377,19.377,0,0,0-3.7-.976l2.088-.358,5.921-1a1.3,1.3,0,0,1,1.425.808l2.1,5.612Z" transform="translate(8.166 2.982)"/><path class="b" d="M27.346,34.884v-7.1a.774.774,0,0,0,0-.13Zm0-.023v-7.1a.774.774,0,0,0,0-.13Zm0-.023v-7.1a.774.774,0,0,0,0-.13Zm0-.023v-7.1a.774.774,0,0,0,0-.13Zm0-.023v-7.1a.774.774,0,0,0,0-.13Zm0-.023v-7.1a.774.774,0,0,0,0-.13Zm0-.023v-7.1a.774.774,0,0,0,0-.13Zm0-.023v-7.1a.774.774,0,0,0,0-.13Zm0-.023V27.6a.774.774,0,0,0,0-.13ZM24.74,26.779v0Zm0,.206v0Zm0,0v0Zm0,0v0Zm0,0v0Zm0,0v0Zm0,0v0Zm0,0v0Zm0,0v0Zm0,0v0Zm0,0v0Zm15.035,7.846v.763a1.167,1.167,0,0,0,.236-.763v-.053Zm0,0v.763a1.167,1.167,0,0,0,.236-.763v-.053Zm0,0v.763a1.167,1.167,0,0,0,.236-.763v-.053Zm0,0v.763a1.167,1.167,0,0,0,.236-.763v-.053Zm0,0v.763a1.167,1.167,0,0,0,.236-.763v-.053Zm0,0v.763a1.167,1.167,0,0,0,.236-.763v-.053Zm0,0v.763a1.167,1.167,0,0,0,.236-.763v-.053Zm0,0v.763a1.167,1.167,0,0,0,.236-.763v-.053Zm0,0v.763a1.167,1.167,0,0,0,.236-.763v-.053Z" transform="translate(6.185 6.695)"/><path class="b" d="M54.028,29.715a19.392,19.392,0,0,0-1.014-3.729,20.341,20.341,0,0,0-3.353-5.825h0a20.069,20.069,0,0,0-2.743-2.73h0a20.356,20.356,0,0,0-5.837-3.37,19.381,19.381,0,0,0-3.7-.976h0a20.242,20.242,0,0,0-6.691,0h0a19.277,19.277,0,0,0-3.711,1h0a20.394,20.394,0,0,0-5.822,3.37h0a19.946,19.946,0,0,0-2.705,2.737h0a20.461,20.461,0,0,0-3.345,5.825,18.8,18.8,0,0,0-.983,3.69h0a19.832,19.832,0,0,0-.343,3.416,18.92,18.92,0,0,0,.29,3.37h0a19.3,19.3,0,0,0,.991,3.713h0a20.365,20.365,0,0,0,3.376,5.81h0a21.168,21.168,0,0,0,2.713,2.707c.366.3.762.587,1.12.862A19.642,19.642,0,0,0,25.581,51.5c.472.221.968.427,1.463.61a18.775,18.775,0,0,0,3.688.984h0a19.8,19.8,0,0,0,3.322.274,18.972,18.972,0,0,0,3.376-.29h0a19.415,19.415,0,0,0,3.711-.991h0c.472-.183.93-.381,1.387-.587A19.639,19.639,0,0,0,45.8,49.6c.4-.29.762-.579,1.151-.892a20.986,20.986,0,0,0,2.72-2.737,20.334,20.334,0,0,0,3.353-5.818A19.338,19.338,0,0,0,54,36.463h0a20.326,20.326,0,0,0,0-6.7ZM45.813,41.251a13.9,13.9,0,0,1-3.269,3.378,14.291,14.291,0,0,1-20.262-3.378,14.135,14.135,0,0,1-2.56-8.128,14.326,14.326,0,1,1,28.652,0,14.136,14.136,0,0,1-2.561,8.128Z" transform="translate(3.446 3.202)"/><path class="b" d="M23.007,28.635H25.72a.587.587,0,0,1,.6.587v.069h1.791a.808.808,0,0,1,.815.694c2.69-.214,4.092-3.675,4.092-7v-.473a1.4,1.4,0,0,1,1.395-1.4c1.951,0,1.638,5,1.417,7.343h6.394a1.25,1.25,0,0,1,0,2.5h-.633a1.25,1.25,0,1,1,0,2.493h-.61a1.251,1.251,0,0,1,0,2.5h-.632a1.235,1.235,0,0,1,1.242,1.189v.053a1.167,1.167,0,0,1-.236.762,1.234,1.234,0,0,1-1.006.526H34.887c-3.231,0-4.077-1.258-5.883-1.258H28.9a.808.808,0,0,1-.762.6H26.322v.053a.6.6,0,0,1-.6.6H23.007M32.86,17.555a14.343,14.343,0,1,0,8.527,25.887,13.9,13.9,0,0,0,3.269-3.378,14.135,14.135,0,0,0,2.53-8.128A14.336,14.336,0,0,0,32.86,17.555Z" transform="translate(4.634 4.389)"/><path class="b" d="M24.764,26.943v8.5" transform="translate(6.191 6.736)"/><path class="b" d="M26.825,34.709v-7.1a.774.774,0,0,0,0-.13" transform="translate(6.706 6.87)"/><path class="b" d="M37.029,33.22v.053a1.167,1.167,0,0,1-.236.762v-.762Z" transform="translate(9.198 8.305)"/><path class="b" d="M31.367,26.272h1.25" transform="translate(7.842 6.568)"/><path class="b" d="M36.113,32.268h-.625" transform="translate(8.872 8.067)"/><path class="b" d="M36.612,30.268h-.625" transform="translate(8.997 7.567)"/><path class="b" d="M37.112,28.267h-.625" transform="translate(9.122 7.067)"/><path class="c" d="M40.153,30.251H39.52a1.25,1.25,0,1,1,0,2.493h-.61a1.25,1.25,0,0,1,0,2.5h-.632a1.235,1.235,0,0,1,1.242,1.189h-.236V37.2a1.234,1.234,0,0,1-1.006.526H32.815c-3.231,0-4.077-1.258-5.883-1.258h-.107v-7.1a.774.774,0,0,0,0-.13c2.69-.213,4.092-3.675,4.092-7v-.473a1.4,1.4,0,0,1,1.395-1.4c1.951,0,1.638,5,1.417,7.343h6.424a1.25,1.25,0,0,1,0,2.5Z" transform="translate(6.706 5.09)"/><path class="c" d="M26.825,34.709v-7.1a.774.774,0,0,0,0-.13" transform="translate(6.706 6.87)"/><path class="c" d="M37.029,33.22v.053a1.167,1.167,0,0,1-.236.762v-.762Z" transform="translate(9.198 8.305)"/><path class="b" d="M27.34,34.843a.808.808,0,0,1-.762.6H24.764v-8.5h1.791a.808.808,0,0,1,.815.694" transform="translate(6.191 6.736)"/><path class="b" d="M24.764,26.943v8.5" transform="translate(6.191 6.736)"/><path class="b" d="M26.825,34.709v-7.1a.774.774,0,0,0,0-.13" transform="translate(6.706 6.87)"/><path class="c" d="M24.764,26.943v8.5" transform="translate(6.191 6.736)"/><path class="b" d="M14.587,14.084A6.542,6.542,0,1,0,8.049,7.542,6.54,6.54,0,0,0,14.587,14.084Z" transform="translate(2.012 0.25)"/><path class="b" d="M53.81,24.546A6.542,6.542,0,1,0,47.272,18,6.54,6.54,0,0,0,53.81,24.546Z" transform="translate(11.818 2.865)"/><path class="b" d="M13.538,55.943A6.542,6.542,0,1,0,7,49.4,6.54,6.54,0,0,0,13.538,55.943Z" transform="translate(1.75 10.715)"/><path class="b" d="M24.764,33.876V33.22" transform="translate(6.191 8.305)"/><path class="b" d="M37.029,33.22v.053a1.167,1.167,0,0,1-.236.762v-.762Z" transform="translate(9.198 8.305)"/><path class="b" d="M20.583,46.617a1.39,1.39,0,0,0,.434,0l2.865-.519,3.048-.511-1.616-1.334A18.784,18.784,0,0,0,29,45.237h0a19.806,19.806,0,0,0,3.323.274,18.982,18.982,0,0,0,3.376-.29h0a19.425,19.425,0,0,0,3.711-.991l-1.585,1.35,3.048.511,2.881.48a1.115,1.115,0,0,0,.389,0" transform="translate(5.146 11.058)"/><path class="b" d="M44.114,48.732V65.317l-3.269-1.822-8.5-4.72-8.5,4.72-3.269,1.822V48.74" transform="translate(5.146 12.183)"/><path class="b" d="M20.583,48.827V65.4l3.269-1.822v-15.2" transform="translate(5.146 12.096)"/><path class="b" d="M20.583,46.244a1.382,1.382,0,0,0,.434,0l2.865-.518" transform="translate(5.146 11.431)"/><path class="b" d="M37.029,33.22v.053a1.167,1.167,0,0,1-.236.762v-.762Z" transform="translate(9.198 8.305)"/><path class="b" d="M36.792,48.367V63.586l3.269,1.822V48.824" transform="translate(9.198 12.092)"/><path class="b" d="M36.792,45.719l2.88.48a1.109,1.109,0,0,0,.389,0" transform="translate(9.198 11.43)"/><path class="b" d="M38.441,14.9a19.388,19.388,0,0,0-3.7-.976h0a20.242,20.242,0,0,0-6.691,0h0a19.276,19.276,0,0,0-3.711,1l1.616-1.35,4.633-3.812a1.287,1.287,0,0,1,1.661,0l4.572,3.812Z" transform="translate(6.086 2.364)"/><path class="b" d="M29.736,13.309a19.28,19.28,0,0,0-3.711,1h0a20.4,20.4,0,0,0-5.822,3.37h0A19.96,19.96,0,0,0,17.5,20.416l.762-2.005,2.1-5.62a1.3,1.3,0,0,1,1.395-.808l5.89.991Z" transform="translate(4.374 2.992)"/><path class="b" d="M21.324,16.549a19.946,19.946,0,0,0-2.705,2.737h0a20.457,20.457,0,0,0-3.345,5.825,18.792,18.792,0,0,0-.983,3.691L13.94,26.72l-1-5.917a1.312,1.312,0,0,1,.823-1.449l5.608-2.082Z" transform="translate(3.231 4.137)"/><path class="b" d="M15.9,37.534l-1.349-1.617-3.81-4.636a1.289,1.289,0,0,1,0-1.662l3.81-4.575,1.334-1.609a18.812,18.812,0,0,0-.983,3.691h0a19.844,19.844,0,0,0-.282,3.34,18.92,18.92,0,0,0,.29,3.37h0a19.3,19.3,0,0,0,.991,3.7Z" transform="translate(2.61 5.859)"/><path class="b" d="M21.377,44.011,19.4,43.249l-5.624-2.1a1.312,1.312,0,0,1-.838-1.441l.991-5.894.358-2.1a19.308,19.308,0,0,0,.991,3.713h0a20.365,20.365,0,0,0,3.376,5.81h0a21.176,21.176,0,0,0,2.721,2.768Z" transform="translate(3.231 7.93)"/><path class="b" d="M27.549,46.4l-3.048.511-2.865.519a1.383,1.383,0,0,1-.434,0A1.273,1.273,0,0,1,20.2,46.6l-2.088-5.612,1.974.763c.366.3.762.587,1.12.862a19.638,19.638,0,0,0,3.3,1.838c.472.221.968.427,1.463.61Z" transform="translate(4.527 10.248)"/><path class="b" d="M20.233,42.1l-1.974-.762L17.5,39.363A21.168,21.168,0,0,0,20.233,42.1Z" transform="translate(4.374 9.841)"/><path class="b" d="M28.056,45.233l-2.073.351-1.615-1.334A18.766,18.766,0,0,0,28.056,45.233Z" transform="translate(6.092 11.062)"/><path class="b" d="M38.5,44.23l-1.623,1.35-4.625,3.813a1.288,1.288,0,0,1-1.661,0L25.976,45.58l-1.608-1.327a18.784,18.784,0,0,0,3.688.984h0a19.805,19.805,0,0,0,3.322.274,18.983,18.983,0,0,0,3.376-.29h0A19.415,19.415,0,0,0,38.5,44.23Z" transform="translate(6.092 11.058)"/><path class="b" d="M43.811,40.937l-2.1,5.62a1.3,1.3,0,0,1-1.044.839,1.115,1.115,0,0,1-.389,0l-2.88-.48L34.354,46.4l1.623-1.35c.472-.183.93-.381,1.387-.587a19.649,19.649,0,0,0,3.269-1.9c.4-.29.762-.58,1.151-.892Z" transform="translate(8.588 10.234)"/><path class="b" d="M32.708,45.222a19.425,19.425,0,0,0,3.711-.991L34.8,45.58Z" transform="translate(8.177 11.058)"/><path class="b" d="M43.064,39.332,42.3,41.338l-1.974.762a20.99,20.99,0,0,0,2.736-2.768Z" transform="translate(10.082 9.833)"/><path class="b" d="M48.75,39.7a1.289,1.289,0,0,1-.846,1.441l-5.609,2.1L40.322,44a20.98,20.98,0,0,0,2.721-2.737h0A20.331,20.331,0,0,0,46.4,35.44a19.34,19.34,0,0,0,.975-3.69l.358,2.082Z" transform="translate(10.08 7.938)"/><path class="b" d="M50.35,31.25l-3.81,4.621L45.206,37.48a19.341,19.341,0,0,0,.976-3.69h0a20.327,20.327,0,0,0,0-6.7h0a19.39,19.39,0,0,0-1.014-3.736l1.349,1.624,3.81,4.628a1.289,1.289,0,0,1,.023,1.647Z" transform="translate(11.292 5.838)"/><path class="b" d="M48.742,20.761l-.991,5.9-.35,2.1a19.378,19.378,0,0,0-1.014-3.7,20.336,20.336,0,0,0-3.353-5.826h0a20.069,20.069,0,0,0-2.743-2.73l2,.763,5.616,2.082a1.289,1.289,0,0,1,.831,1.411Z" transform="translate(10.073 4.127)"/><path class="b" d="M44.926,20.38a20.07,20.07,0,0,0-2.728-2.73h0a20.355,20.355,0,0,0-5.837-3.37,19.377,19.377,0,0,0-3.7-.976l2.088-.358,5.921-1a1.3,1.3,0,0,1,1.425.808l2.1,5.612Z" transform="translate(8.166 2.982)"/><path class="b" d="M27.346,34.884v-7.1a.774.774,0,0,0,0-.13Zm0-.023v-7.1a.774.774,0,0,0,0-.13Zm0-.023v-7.1a.774.774,0,0,0,0-.13Zm0-.023v-7.1a.774.774,0,0,0,0-.13Zm0-.023v-7.1a.774.774,0,0,0,0-.13Zm0-.023v-7.1a.774.774,0,0,0,0-.13Zm0-.023v-7.1a.774.774,0,0,0,0-.13Zm0-.023v-7.1a.774.774,0,0,0,0-.13Zm0-.023V27.6a.774.774,0,0,0,0-.13ZM24.74,26.779v0Zm0,.206v0Zm0,0v0Zm0,0v0Zm0,0v0Zm0,0v0Zm0,0v0Zm0,0v0Zm0,0v0Zm0,0v0Zm0,0v0Zm15.035,7.846v.763a1.167,1.167,0,0,0,.236-.763v-.053Zm0,0v.763a1.167,1.167,0,0,0,.236-.763v-.053Zm0,0v.763a1.167,1.167,0,0,0,.236-.763v-.053Zm0,0v.763a1.167,1.167,0,0,0,.236-.763v-.053Zm0,0v.763a1.167,1.167,0,0,0,.236-.763v-.053Zm0,0v.763a1.167,1.167,0,0,0,.236-.763v-.053Zm0,0v.763a1.167,1.167,0,0,0,.236-.763v-.053Zm0,0v.763a1.167,1.167,0,0,0,.236-.763v-.053Zm0,0v.763a1.167,1.167,0,0,0,.236-.763v-.053Z" transform="translate(6.185 6.695)"/><path class="b" d="M54.028,29.715a19.392,19.392,0,0,0-1.014-3.729,20.341,20.341,0,0,0-3.353-5.825h0a20.069,20.069,0,0,0-2.743-2.73h0a20.356,20.356,0,0,0-5.837-3.37,19.381,19.381,0,0,0-3.7-.976h0a20.242,20.242,0,0,0-6.691,0h0a19.277,19.277,0,0,0-3.711,1h0a20.394,20.394,0,0,0-5.822,3.37h0a19.946,19.946,0,0,0-2.705,2.737h0a20.461,20.461,0,0,0-3.345,5.825,18.8,18.8,0,0,0-.983,3.69h0a19.832,19.832,0,0,0-.343,3.416,18.92,18.92,0,0,0,.29,3.37h0a19.3,19.3,0,0,0,.991,3.713h0a20.365,20.365,0,0,0,3.376,5.81h0a21.168,21.168,0,0,0,2.713,2.707c.366.3.762.587,1.12.862A19.642,19.642,0,0,0,25.581,51.5c.472.221.968.427,1.463.61a18.775,18.775,0,0,0,3.688.984h0a19.8,19.8,0,0,0,3.322.274,18.972,18.972,0,0,0,3.376-.29h0a19.415,19.415,0,0,0,3.711-.991h0c.472-.183.93-.381,1.387-.587A19.639,19.639,0,0,0,45.8,49.6c.4-.29.762-.579,1.151-.892a20.986,20.986,0,0,0,2.72-2.737,20.334,20.334,0,0,0,3.353-5.818A19.338,19.338,0,0,0,54,36.463h0a20.326,20.326,0,0,0,0-6.7ZM45.813,41.251a13.9,13.9,0,0,1-3.269,3.378,14.291,14.291,0,0,1-20.262-3.378,14.135,14.135,0,0,1-2.56-8.128,14.326,14.326,0,1,1,28.652,0,14.136,14.136,0,0,1-2.561,8.128Z" transform="translate(3.446 3.202)"/><path class="b" d="M23.007,28.635H25.72a.587.587,0,0,1,.6.587v.069h1.791a.808.808,0,0,1,.815.694c2.69-.214,4.092-3.675,4.092-7v-.473a1.4,1.4,0,0,1,1.395-1.4c1.951,0,1.638,5,1.417,7.343h6.394a1.25,1.25,0,0,1,0,2.5h-.633a1.25,1.25,0,1,1,0,2.493h-.61a1.251,1.251,0,0,1,0,2.5h-.632a1.235,1.235,0,0,1,1.242,1.189v.053a1.167,1.167,0,0,1-.236.762,1.234,1.234,0,0,1-1.006.526H34.887c-3.231,0-4.077-1.258-5.883-1.258H28.9a.808.808,0,0,1-.762.6H26.322v.053a.6.6,0,0,1-.6.6H23.007M32.86,17.555a14.343,14.343,0,1,0,8.527,25.887,13.9,13.9,0,0,0,3.269-3.378,14.135,14.135,0,0,0,2.53-8.128A14.336,14.336,0,0,0,32.86,17.555Z" transform="translate(4.634 4.389)"/><path class="b" d="M24.764,26.943v8.5" transform="translate(6.191 6.736)"/><path class="b" d="M26.825,34.709v-7.1a.774.774,0,0,0,0-.13" transform="translate(6.706 6.87)"/><path class="b" d="M37.029,33.22v.053a1.167,1.167,0,0,1-.236.762v-.762Z" transform="translate(9.198 8.305)"/><path class="b" d="M31.367,26.272h1.25" transform="translate(7.842 6.568)"/><path class="b" d="M36.113,32.268h-.625" transform="translate(8.872 8.067)"/><path class="b" d="M36.612,30.268h-.625" transform="translate(8.997 7.567)"/><path class="b" d="M37.112,28.267h-.625" transform="translate(9.122 7.067)"/><path class="c" d="M40.153,30.251H39.52a1.25,1.25,0,1,1,0,2.493h-.61a1.25,1.25,0,0,1,0,2.5h-.632a1.235,1.235,0,0,1,1.242,1.189h-.236V37.2a1.234,1.234,0,0,1-1.006.526H32.815c-3.231,0-4.077-1.258-5.883-1.258h-.107v-7.1a.774.774,0,0,0,0-.13c2.69-.213,4.092-3.675,4.092-7v-.473a1.4,1.4,0,0,1,1.395-1.4c1.951,0,1.638,5,1.417,7.343h6.424a1.25,1.25,0,0,1,0,2.5Z" transform="translate(6.706 5.09)"/><path class="c" d="M26.825,34.709v-7.1a.774.774,0,0,0,0-.13" transform="translate(6.706 6.87)"/><path class="c" d="M37.029,33.22v.053a1.167,1.167,0,0,1-.236.762v-.762Z" transform="translate(9.198 8.305)"/><path class="b" d="M27.34,34.843a.808.808,0,0,1-.762.6H24.764v-8.5h1.791a.808.808,0,0,1,.815.694" transform="translate(6.191 6.736)"/><path class="b" d="M24.764,26.943v8.5" transform="translate(6.191 6.736)"/><path class="b" d="M26.825,34.709v-7.1a.774.774,0,0,0,0-.13" transform="translate(6.706 6.87)"/><path class="c" d="M24.764,26.943v8.5" transform="translate(6.191 6.736)"/><path class="b" d="M14.587,14.084A6.542,6.542,0,1,0,8.049,7.542,6.54,6.54,0,0,0,14.587,14.084Z" transform="translate(2.012 0.25)"/><path class="b" d="M53.81,24.546A6.542,6.542,0,1,0,47.272,18,6.54,6.54,0,0,0,53.81,24.546Z" transform="translate(11.818 2.865)"/><path class="b" d="M13.538,55.943A6.542,6.542,0,1,0,7,49.4,6.54,6.54,0,0,0,13.538,55.943Z" transform="translate(1.75 10.715)"/></svg>