<svg xmlns="http://www.w3.org/2000/svg" width="80" height="80" viewBox="0 0 80 80"><defs><style>.a{fill:#fff;}.b,.c,.f{fill:none;}.b,.c,.d,.e,.f,.g{stroke:#a18b80;}.b,.c{stroke-linejoin:round;}.c{stroke-linecap:round;}.d{fill:#4550e5;}.e{fill:#eb898b;}.f{stroke-miterlimit:10;}.g{fill:#cf65b3;}</style></defs><rect class="a" width="80" height="80"/><path class="b" d="M35.585,45.271a2.861,2.861,0,0,1-2.441-2.835V29.016A2.861,2.861,0,0,1,36,26.156h31.1a2.86,2.86,0,0,1,2.86,2.86v13.42a2.869,2.869,0,0,1-2.86,2.86H41.023" transform="translate(8.359 6.597)"/><path class="b" d="M37.679,44.252v-18.1H63.114V45.3" transform="translate(9.503 6.597)"/><path class="c" d="M60.276,33.036v4.77" transform="translate(15.202 8.332)"/><path class="d" d="M60.374,30.745a.48.48,0,1,0,.334.144.481.481,0,0,0-.334-.144Z" transform="translate(15.104 7.754)"/><path class="e" d="M61.1,31.477h0Zm-.449-1.732a1.731,1.731,0,0,0-.97.277l1.359,2.1a.773.773,0,0,1-.433.123Zm-.97.277a1.73,1.73,0,0,0-.651.771l2.3.989a.773.773,0,0,1-.291.344Zm-.651.771a1.731,1.731,0,0,0-.111,1l2.462-.461a.772.772,0,0,1-.05.447Zm-.111,1a1.731,1.731,0,0,0,.467.895l1.787-1.755a.773.773,0,0,1,.208.4Zm.467.895a1.731,1.731,0,0,0,.886.483l.505-2.453a.773.773,0,0,1,.4.215Zm.886.483a1.732,1.732,0,0,0,1-.093l-.948-2.318a.771.771,0,0,1,.448-.042Zm1-.093a1.731,1.731,0,0,0,.782-.638l-2.079-1.4a.771.771,0,0,1,.349-.284Zm.782-.638a1.733,1.733,0,0,0,.294-.965h-2.5a.772.772,0,0,1,.131-.431Zm.294-.965a1.732,1.732,0,0,0-.5-1.214l-1.787,1.755a.772.772,0,0,1-.221-.541Zm-.5-1.214a1.732,1.732,0,0,0-1.2-.518l-.045,2.5a.772.772,0,0,1-.537-.231Z" transform="translate(14.852 7.502)"/><path class="f" d="M18.953,34.5c.077-.4.146-.8.214-1.182,1.156-6.26,1.8-9.712,7.177-17.257a2.518,2.518,0,0,1,3.511-.6c1.139.814,1.165,2.843.36,3.974" transform="translate(4.78 3.783)"/><path class="f" d="M20.478,30.185c2.252-4.916,6.791-10.825,15.929-14.3a2.521,2.521,0,1,1,1.8,4.71,28.712,28.712,0,0,0-4.71,2.287" transform="translate(5.165 3.964)"/><path class="c" d="M1,51.053l8.067-8.067a1.268,1.268,0,0,1,1.781,0L22.881,55.027a1.268,1.268,0,0,1,0,1.781l-8.067,8.059" transform="translate(0.252 10.749)"/><path class="c" d="M20.9,55.391l1.781-1.79a1.268,1.268,0,0,0,0-1.781L12.4,41.542a1.268,1.268,0,0,0-1.781,0L8.865,43.35Z" transform="translate(2.236 10.385)"/><path class="f" d="M42.616,45.834c-7,3.451-14.465-3.015-14.345-9.147.146-9.018,8.239-11.133,14.328-9.275,2.569.771,3.5-3.64,1.1-4.8-8.984-4.282-19.826,2.938-21.89,7.494-3.905,8.4.4,7.005-9.609,17.017l10.02,10.02c10.089-10.089,14.559-.334,23.517-7.357C48.354,47.735,45.613,44.4,42.616,45.834Z" transform="translate(3.076 5.374)"/><path class="f" d="M42.616,45.834c-7,3.451-14.465-3.015-14.345-9.147.146-9.018,8.239-11.133,14.328-9.275,2.569.771,3.5-3.64,1.1-4.8-8.984-4.282-19.826,2.938-21.89,7.494-3.905,8.4.4,7.005-9.609,17.017l10.02,10.02c10.089-10.089,14.559-.334,23.517-7.357C48.354,47.735,45.613,44.4,42.616,45.834Z" transform="translate(3.076 5.374)"/><path class="b" d="M35.585,45.271a2.861,2.861,0,0,1-2.441-2.835V29.016A2.861,2.861,0,0,1,36,26.156h31.1a2.86,2.86,0,0,1,2.86,2.86v13.42a2.869,2.869,0,0,1-2.86,2.86H41.023" transform="translate(8.359 6.597)"/><path class="b" d="M37.679,44.252v-18.1H63.114V45.3" transform="translate(9.503 6.597)"/><path class="c" d="M60.276,33.036v4.77" transform="translate(15.202 8.332)"/><path class="d" d="M60.374,30.745a.48.48,0,1,0,.334.144.481.481,0,0,0-.334-.144Z" transform="translate(15.104 7.754)"/><path class="g" d="M61.1,31.477h0Zm-.449-1.732a1.731,1.731,0,0,0-.97.277l1.359,2.1a.773.773,0,0,1-.433.123Zm-.97.277a1.73,1.73,0,0,0-.651.771l2.3.989a.773.773,0,0,1-.291.344Zm-.651.771a1.731,1.731,0,0,0-.111,1l2.462-.461a.772.772,0,0,1-.05.447Zm-.111,1a1.731,1.731,0,0,0,.467.895l1.787-1.755a.773.773,0,0,1,.208.4Zm.467.895a1.731,1.731,0,0,0,.886.483l.505-2.453a.773.773,0,0,1,.4.215Zm.886.483a1.732,1.732,0,0,0,1-.093l-.948-2.318a.771.771,0,0,1,.448-.042Zm1-.093a1.731,1.731,0,0,0,.782-.638l-2.079-1.4a.771.771,0,0,1,.349-.284Zm.782-.638a1.733,1.733,0,0,0,.294-.965h-2.5a.772.772,0,0,1,.131-.431Zm.294-.965a1.732,1.732,0,0,0-.5-1.214l-1.787,1.755a.772.772,0,0,1-.221-.541Zm-.5-1.214a1.732,1.732,0,0,0-1.2-.518l-.045,2.5a.772.772,0,0,1-.537-.231Z" transform="translate(14.852 7.502)"/><path class="f" d="M18.953,34.5c.077-.4.146-.8.214-1.182,1.156-6.26,1.8-9.712,7.177-17.257a2.518,2.518,0,0,1,3.511-.6c1.139.814,1.165,2.843.36,3.974" transform="translate(4.78 3.783)"/><path class="f" d="M20.478,30.185c2.252-4.916,6.791-10.825,15.929-14.3a2.521,2.521,0,1,1,1.8,4.71,28.712,28.712,0,0,0-4.71,2.287" transform="translate(5.165 3.964)"/><path class="c" d="M1,51.053l8.067-8.067a1.268,1.268,0,0,1,1.781,0L22.881,55.027a1.268,1.268,0,0,1,0,1.781l-8.067,8.059" transform="translate(0.252 10.749)"/><path class="c" d="M20.9,55.391l1.781-1.79a1.268,1.268,0,0,0,0-1.781L12.4,41.542a1.268,1.268,0,0,0-1.781,0L8.865,43.35Z" transform="translate(2.236 10.385)"/><path class="f" d="M42.616,45.834c-7,3.451-14.465-3.015-14.345-9.147.146-9.018,8.239-11.133,14.328-9.275,2.569.771,3.5-3.64,1.1-4.8-8.984-4.282-19.826,2.938-21.89,7.494-3.905,8.4.4,7.005-9.609,17.017l10.02,10.02c10.089-10.089,14.559-.334,23.517-7.357C48.354,47.735,45.613,44.4,42.616,45.834Z" transform="translate(3.076 5.374)"/><path class="f" d="M42.616,45.834c-7,3.451-14.465-3.015-14.345-9.147.146-9.018,8.239-11.133,14.328-9.275,2.569.771,3.5-3.64,1.1-4.8-8.984-4.282-19.826,2.938-21.89,7.494-3.905,8.4.4,7.005-9.609,17.017l10.02,10.02c10.089-10.089,14.559-.334,23.517-7.357C48.354,47.735,45.613,44.4,42.616,45.834Z" transform="translate(3.076 5.374)"/></svg>