<svg xmlns="http://www.w3.org/2000/svg" width="80" height="80" viewBox="0 0 80 80"><defs><style>.a,.b{fill:#fff;}.b,.c,.d{stroke:#a18b80;}.c{fill:#4550e5;}.d{fill:none;stroke-linecap:round;stroke-linejoin:round;}</style></defs><rect class="a" width="80" height="80"/><path class="b" d="M14.629,16.4a.239.239,0,0,1,.3.029.229.229,0,0,1,.029.291.235.235,0,0,1-.106.086.24.24,0,0,1-.138.013.236.236,0,0,1-.122-.064.232.232,0,0,1-.064-.119.229.229,0,0,1,.013-.133A.233.233,0,0,1,14.629,16.4Z" transform="translate(3.55 3.998)"/><path class="b" d="M11.026,16.4a.239.239,0,0,1,.3.029.229.229,0,0,1,.029.291.235.235,0,0,1-.106.086.24.24,0,0,1-.138.013.237.237,0,0,1-.122-.064.232.232,0,0,1-.064-.119.229.229,0,0,1,.013-.133A.234.234,0,0,1,11.026,16.4Z" transform="translate(2.669 3.998)"/><path class="b" d="M50.193,16.4a.239.239,0,0,1,.3.029.229.229,0,0,1,.029.291.235.235,0,0,1-.106.086.241.241,0,0,1-.138.013.236.236,0,0,1-.122-.064.231.231,0,0,1-.064-.119.228.228,0,0,1,.013-.133A.233.233,0,0,1,50.193,16.4Z" transform="translate(12.241 3.998)"/><path class="c" d="M53.827,16.611a.23.23,0,0,0,.068.156.239.239,0,0,0,.168.069h0a.239.239,0,0,0,.16-.06.23.23,0,0,0,.077-.147l.618.069-.024.128a.855.855,0,0,1-.258.417l-.032.027q-.273-.057-.542-.128h0q-.212-.056-.421-.12-.194-.06-.386-.126a.849.849,0,0,1-.05-.248l.014-.043.607.016Zm0,0a.372.372,0,0,1,.029-.126l-.524-.22m.495.345s0,0,0-.008h-.607l.112-.338m0,0v0m0,0h0m0,0-.05-.021-.048.146a.991.991,0,0,0-.029.213m.127-.338-.123.338h0m0,0s0,.008,0,.012l0-.012Z" transform="translate(13.003 3.97)"/><path class="b" d="M30.389,16.4a.239.239,0,0,1,.3.029.229.229,0,0,1,.029.291.235.235,0,0,1-.106.086.24.24,0,0,1-.138.013.237.237,0,0,1-.122-.064.232.232,0,0,1-.064-.119A.229.229,0,0,1,30.3,16.5.233.233,0,0,1,30.389,16.4Z" transform="translate(7.401 3.998)"/><path class="b" d="M34.44,16.4a.239.239,0,0,1,.3.029.229.229,0,0,1,.029.291.235.235,0,0,1-.106.086.24.24,0,0,1-.138.013.237.237,0,0,1-.122-.064.232.232,0,0,1-.064-.119.229.229,0,0,1,.013-.133A.233.233,0,0,1,34.44,16.4Z" transform="translate(8.391 3.998)"/><path class="d" d="M50.756,27.877a3.338,3.338,0,0,0,3.237-2.5" transform="translate(12.404 6.201)"/><path class="d" d="M48.092,25.036a3.418,3.418,0,0,0,1.632,2.47" transform="translate(11.753 6.119)"/><path class="d" d="M50.756,28.465v-.957" transform="translate(12.404 6.723)"/><path class="d" d="M52.108,27.02l.558.966" transform="translate(12.735 6.604)"/><path class="d" d="M49.195,27.474l-.24.4" transform="translate(11.964 6.714)"/><path class="d" d="M56.267,45.874l-.275,7.8-.137,3.906H47.792l-.129-3.906-.275-7.8Z" transform="translate(11.581 11.211)"/><path class="d" d="M9.943,36.787v3.239A5.04,5.04,0,0,1,1,36.829V32.65a1.957,1.957,0,0,1,1.18-1.925,1.967,1.967,0,0,1,2.634,1.137,1.948,1.948,0,0,1,.11.788v4.179a1.116,1.116,0,0,0,2.233,0h0Z" transform="translate(0.244 7.47)"/><path class="d" d="M26.065,30.515a10.566,10.566,0,0,0-6.183-5.273,3.351,3.351,0,0,1-6.612,0,10.594,10.594,0,0,0-7.333,10.1V38.13h2.8v7.213H20.105l3.194-1.12V38.1h1.717m-5.075-1.12c0,1.333-.661,1.376-1.717,2.085v1.265A1.122,1.122,0,0,1,17.1,41.437H14.867a1.122,1.122,0,0,1-1.125-1.111V39.062c-1-.709-1.717-.752-1.717-2.085,0-2.145-.558-5.017,3.924-5.017S19.942,34.831,19.942,36.976Z" transform="translate(1.451 6.169)"/><path class="d" d="M8.733,35.565H5.951v.009H8.733Z" transform="translate(1.454 8.692)"/><path class="d" d="M11.83,25.333h.146c.215-.068.429-.128.653-.179l.764-.162c.309-.051.635-.085.962-.111s.515,0,.781,0h.79a9.021,9.021,0,0,1,1.717.274,6.743,6.743,0,0,1,.661.179h.137a3.351,3.351,0,0,1-6.612,0Z" transform="translate(2.891 6.078)"/><path class="d" d="M18.751,35.657c0,1.333-.661,1.376-1.717,2.085v1.265a1.122,1.122,0,0,1-1.125,1.111H13.676a1.122,1.122,0,0,1-1.125-1.111V37.742c-1-.709-1.717-.752-1.717-2.085,0-2.145-.558-5.017,3.924-5.017S18.751,33.512,18.751,35.657Z" transform="translate(2.642 7.488)"/><path class="d" d="M15.142,51.5a1.129,1.129,0,0,1,.69-1.055,1.139,1.139,0,0,1,.435-.09H21.05a1.125,1.125,0,0,1,1.128.664,1.117,1.117,0,0,1-.27,1.277,1.128,1.128,0,0,1-.858.29H16.267A1.122,1.122,0,0,1,15.142,51.5Z" transform="translate(3.701 12.305)"/><path class="d" d="M18.62,21.33l.816,1.624a1.137,1.137,0,0,0,1.795.316,11.53,11.53,0,0,0,3.246-6.154" transform="translate(4.551 4.183)"/><path class="d" d="M12.259,12.7H7.3a1.126,1.126,0,0,1-1-.606,1.115,1.115,0,0,1,.083-1.164A11.76,11.76,0,0,1,26.47,12.475" transform="translate(1.51 1.466)"/><path class="d" d="M11.761,12.19,8.635,7.8" transform="translate(2.11 1.905)"/><path class="d" d="M13.294,11.624,12.237,6.265" transform="translate(2.991 1.531)"/><path class="d" d="M16.4,6.327l-1.236,5.316" transform="translate(3.706 1.546)"/><path class="d" d="M20.344,7.982l-3.263,4.282" transform="translate(4.175 1.951)"/><path class="d" d="M23.473,18.758l-3.134-1.12" transform="translate(4.971 4.311)"/><path class="d" d="M22.043,16.507v1.521a1.36,1.36,0,0,1,1.133,1.359h0a1.361,1.361,0,0,1-1.254,1.359,6.98,6.98,0,0,1-.859,2.188,6.7,6.7,0,0,1-6.878,3.094,1.128,1.128,0,0,0,.653-.94,13.3,13.3,0,0,1,.344-2.461h-.12a2.108,2.108,0,0,0-.361.077,2.123,2.123,0,0,1-.464,0,2.082,2.082,0,0,1-.4,0,1.725,1.725,0,0,1-.361-.068.937.937,0,0,1-.249-.077h0a3.186,3.186,0,0,0-.773,2.478,1.083,1.083,0,0,0,.12.419A6.665,6.665,0,0,1,8.656,19.4V17.174a6.641,6.641,0,0,1,3-5.572.24.24,0,0,1,.1-.068,6.3,6.3,0,0,1,2.413-.94,6.05,6.05,0,0,1,1.185-.111,6.27,6.27,0,0,1,1.4.145A6.793,6.793,0,0,1,21,13.542a4.882,4.882,0,0,1,.283.5" transform="translate(2.115 2.562)"/><path class="d" d="M16.389,56.118V52.144h5.04V58.28a1.114,1.114,0,0,1-1.116,1.111H13.59a3.347,3.347,0,0,1,2.8-3.273Z" transform="translate(3.321 12.744)"/><path class="d" d="M19.556,41.4C15.795,42.686,12,43.883,8.187,43.959V41.4Z" transform="translate(2.001 10.117)"/><path class="d" d="M22.75,42.735v9.478H17.967a1.147,1.147,0,0,0-.18,0,.291.291,0,0,0-.137,0,1.176,1.176,0,0,0-.275.137h0l-.094-4.538a1.8,1.8,0,0,0-3.6,0l-.1,4.572a1.183,1.183,0,0,0-.275-.137.3.3,0,0,0-.137,0,.424.424,0,0,0-.18,0h-4.8V46.453C13.785,46.162,18.139,44.025,22.75,42.735Z" transform="translate(2.001 10.444)"/><path class="d" d="M8.737,56.118V52.144h5.04V58.28a1.114,1.114,0,0,1-1.116,1.111H5.937a3.347,3.347,0,0,1,2.8-3.273Z" transform="translate(1.451 12.744)"/><path class="d" d="M14.444,20.214a13.3,13.3,0,0,0-.344,2.461,1.128,1.128,0,0,1-.653.94,1.077,1.077,0,0,1-.455.137h-.172a1.108,1.108,0,0,1-1-.632,1.084,1.084,0,0,1-.12-.419,3.186,3.186,0,0,1,.773-2.478.928.928,0,0,0,.249.077,1.717,1.717,0,0,0,.361.068,2.082,2.082,0,0,0,.4,0,2.123,2.123,0,0,0,.464,0,3.015,3.015,0,0,0,.5-.154Z" transform="translate(2.853 4.94)"/><path class="d" d="M13.995,20.214a3.013,3.013,0,0,1-.481.111,3.447,3.447,0,0,0,.472-.111Z" transform="translate(3.303 4.94)"/><path class="d" d="M12.433,20.258a2.675,2.675,0,0,1-.644-.325" transform="translate(2.881 4.871)"/><path class="d" d="M13.22,20.31a2.082,2.082,0,0,1-.4,0" transform="translate(3.132 4.964)"/><path class="d" d="M14.63,19.933a2.4,2.4,0,0,1-.73.35" transform="translate(3.397 4.871)"/><path class="d" d="M22.757,40.5v2.786c-4.594,1.291-8.965,3.419-14.6,3.709V44.2c3.813-.094,7.608-1.291,11.369-2.564Z" transform="translate(1.994 9.897)"/><path class="d" d="M23.814,40.879v5.008a1.967,1.967,0,0,1-3.924,0V35.571h1.717" transform="translate(4.861 8.693)"/><path class="d" d="M19.89,36.557V31.54" transform="translate(4.861 7.708)"/><path class="d" d="M8.187,36.548V31.54" transform="translate(2.001 7.708)"/><path class="d" d="M18.442,25.333a3.351,3.351,0,0,1-6.612,0h.146c.215-.068.429-.128.653-.179l.764-.162c.309-.051.635-.085.962-.111s.515,0,.781,0h.79a9.021,9.021,0,0,1,1.717.274,6.743,6.743,0,0,1,.661.179Z" transform="translate(2.891 6.078)"/><path class="d" d="M18.751,35.657c0,1.333-.661,1.376-1.717,2.085v1.265a1.122,1.122,0,0,1-1.125,1.111H13.676a1.122,1.122,0,0,1-1.125-1.111V37.742c-1-.709-1.717-.752-1.717-2.085,0-2.145-.558-5.017,3.924-5.017S18.751,33.512,18.751,35.657Z" transform="translate(2.642 7.488)"/><path class="d" d="M14.038,36.464v2.231" transform="translate(3.431 8.912)"/><path class="d" d="M14.314,51.5a1.12,1.12,0,0,0-.676-1.053,1.128,1.128,0,0,0-.431-.092h-4.8a1.122,1.122,0,0,0-1.116,1.12,1.114,1.114,0,0,0,1.116,1.111h4.8A1.114,1.114,0,0,0,14.314,51.5Z" transform="translate(1.782 12.306)"/><path class="d" d="M45.349,14.041l-.67.256-6.655,2.487v-.316a6.623,6.623,0,0,0-.223-1.709,1.184,1.184,0,0,0-.112-.376,7.079,7.079,0,0,0-.3-.744l7.608-.2h.232a.335.335,0,0,1,.167.092.333.333,0,0,1-.047.506Z" transform="translate(9.138 3.285)"/><path class="d" d="M58.89,17.738v1.12a6.7,6.7,0,0,1-3.916,6.077,1.089,1.089,0,0,0,.112-.436,3.126,3.126,0,0,0-.773-2.478l-.24.077a2.583,2.583,0,0,1-.369.068,2.082,2.082,0,0,1-.4,0h-.464l-.249-.043a.966.966,0,0,1-.223-.068h0a12.978,12.978,0,0,1,.326,2.453,1.1,1.1,0,0,0,.644.94,6.514,6.514,0,0,1-1.168.1A6.7,6.7,0,0,1,46,21.49c.06-3.291.944-6.795,3.924-8.769a9.193,9.193,0,0,0,5.152,4.384,10.211,10.211,0,0,0,1.589.436,13.076,13.076,0,0,0,2.224.2Z" transform="translate(11.242 3.109)"/><path class="d" d="M53.333,19.933a2.736,2.736,0,0,1-.653.325" transform="translate(12.875 4.871)"/><path class="d" d="M51.228,20.283a2.962,2.962,0,0,1-.721-.35" transform="translate(12.344 4.871)"/><path class="d" d="M43.565,13.442H43.8a.335.335,0,0,1,.345.273.333.333,0,0,1-.225.377l-.67.256m5.667,16.444V27.92l.627-.111.472-.068a7.305,7.305,0,0,0,.73-.077,7.261,7.261,0,0,1,.747,0h1.434a2.1,2.1,0,0,1,.7.077,6.586,6.586,0,0,0,.7.128,4.779,4.779,0,0,1,.627.154,5.591,5.591,0,0,1,.61.2l.275.111a1.155,1.155,0,0,1,.258.1H56.2l.206.1a1.051,1.051,0,0,0-.206-.085v2.308Zm9.523-.889v.581l.541-.085a3.574,3.574,0,0,0-.541-.538ZM50.59,30.946l.318-.564a3.3,3.3,0,0,0,1.717.453v.154Z" transform="translate(10.569 3.285)"/><path class="d" d="M45.236,11.975A8.935,8.935,0,0,1,52.4,9.189c7.153-.145,11.257,5.5,9.858,13.478-.472,2.675-.5,4.974.206,6.675a1.086,1.086,0,0,1-.721,1.385c-.644.188-1.537.427-2.636.641-.172-.171-.352-.342-.541-.5a8.851,8.851,0,0,0-2.035-1.325l-.206-.1H56.21a1.152,1.152,0,0,0-.258-.1l-.275-.111a5.592,5.592,0,0,0-.61-.2,11.58,11.58,0,0,0-1.322-.282,6.919,6.919,0,0,1-.7-.077H50.869a2.335,2.335,0,0,0-.73.077l-.472.068-.627.111c-.326.068-.627.137-.927.222l-.292.077c-.344.1-.7.231-1.022.35l-.129.051a7.4,7.4,0,0,0-.7.308,8.716,8.716,0,0,0-.859.444,1.635,1.635,0,0,0-.343.214c-.206.111-.386.231-.567.35-.24-.06-.455-.128-.661-.2a1.1,1.1,0,0,1-.7-1.453c.73-1.709.721-4.008.24-6.709a17.943,17.943,0,0,1-.283-4.1m16.873,1.239A6.7,6.7,0,0,1,55.763,25.8a1.126,1.126,0,0,1-1,.615h-.172a1.077,1.077,0,0,1-.464-.1,6.527,6.527,0,0,1-1.168.1,6.7,6.7,0,0,1-6.165-4.06c.06-3.29.944-6.795,3.924-8.769a9.193,9.193,0,0,0,5.152,4.384,10.215,10.215,0,0,0,1.589.436,13.06,13.06,0,0,0,2.258.2Zm-16-5.239h.232a.335.335,0,0,1,.345.273.333.333,0,0,1-.224.377l-.67.256Z" transform="translate(10.453 2.24)"/><path class="d" d="M41.216,46.453v8H35.952l-.232-6.683a1.707,1.707,0,0,0-.694-1.356,1.724,1.724,0,0,0-1.5-.268,1.813,1.813,0,0,0-1.3,1.709l-.232,6.607H26.652V42.735c1.176.342,2.353.718,3.529,1.12A40.051,40.051,0,0,0,41.216,46.453Z" transform="translate(6.514 10.444)"/><path class="d" d="M40.59,41.4v2.564c-3.813-.094-7.608-1.29-11.377-2.564Z" transform="translate(7.139 10.117)"/><path class="d" d="M64.868,32.623V36.8A5.019,5.019,0,0,1,61.5,41.53a5.055,5.055,0,0,1-5.6-1.583V36.776h2.808a1.116,1.116,0,0,0,2.233,0V32.623a1.958,1.958,0,0,1,1.18-1.925,1.967,1.967,0,0,1,2.634,1.137,1.95,1.95,0,0,1,.11.788Z" transform="translate(13.662 7.463)"/><path class="d" d="M47.289,40.59H46v-.479A1.954,1.954,0,0,0,47.289,40.59Z" transform="translate(11.242 9.803)"/><path class="d" d="M42.806,29.3H61.053a9.245,9.245,0,0,1,.859,3.9v3.88H59.1v.692l-1,.4a49.211,49.211,0,0,1-8.132,2.675,1.708,1.708,0,0,0-.618-1.026c-1-.513-1.846-.906-2.576-1.282v-5.9l-.172-.111a2.009,2.009,0,0,0-2.052,0,1.92,1.92,0,0,0-.67.692" transform="translate(10.462 7.161)"/><path class="d" d="M41.613,33.646a11.4,11.4,0,0,0-.739-3.171" transform="translate(9.989 7.448)"/><path class="d" d="M47.8,28V25.129l.627-.111.472-.068a7.3,7.3,0,0,0,.73-.077,7.259,7.259,0,0,1,.747,0h1.434a2.1,2.1,0,0,1,.7.077,6.59,6.59,0,0,0,.7.128,4.777,4.777,0,0,1,.627.154,5.593,5.593,0,0,1,.61.2l.275.111a1.158,1.158,0,0,1,.258.1.284.284,0,0,1,.112.06V28.01" transform="translate(11.682 6.076)"/><path class="d" d="M51.155,27.627v-.154a3.3,3.3,0,0,1-1.717-.453l-.318.564" transform="translate(12.005 6.604)"/><path class="d" d="M57.962,29.952H55.455V26.636c.189.154.369.325.541.5l.18.188a9.818,9.818,0,0,1,1.073,1.325c.12.188.24.376.352.581a7.208,7.208,0,0,1,.361.726Z" transform="translate(13.553 6.51)"/><path class="d" d="M57.229,38.339v2.684H50.479a21.431,21.431,0,0,0,3.065-1.008C54.816,39.485,56.035,38.895,57.229,38.339Z" transform="translate(12.337 9.37)"/><path class="d" d="M56.267,45.874l-.275,7.8-.137,3.906H47.792l-.129-3.906-.275-7.8Z" transform="translate(11.581 11.211)"/><path class="d" d="M58.316,40.5,58,47.2H46.321l-.292-5.983a22.472,22.472,0,0,0,5.539-.752Z" transform="translate(11.249 9.888)"/><path class="d" d="M55.9,36.43v-.684a3.314,3.314,0,0,1,.618-1.931,3.407,3.407,0,0,0,.507-1.829" transform="translate(13.662 7.817)"/><path class="d" d="M58.316,36.107v2.786c-1.194.556-2.413,1.145-3.684,1.709a21.472,21.472,0,0,1-3.065,1.008,22.478,22.478,0,0,1-5.539.752v-.752h1.288a1.962,1.962,0,0,0,1.486-.667,1.9,1.9,0,0,0,.446-1.47,1.215,1.215,0,0,0-.052-.3A49.2,49.2,0,0,0,57.329,36.5Z" transform="translate(11.249 8.824)"/><path class="d" d="M47.289,40.59H46v-.479A1.954,1.954,0,0,0,47.289,40.59Z" transform="translate(11.242 9.803)"/><path class="d" d="M42.951,39.41a29.238,29.238,0,0,0,3.8,2.034,1.981,1.981,0,0,0,2.774-.188A1.9,1.9,0,0,0,50,39.829a1.215,1.215,0,0,0-.052-.3,1.708,1.708,0,0,0-.618-1.026c-1-.513-1.846-.906-2.576-1.282a5,5,0,0,1-2.8-2.564" transform="translate(10.497 8.47)"/><path class="d" d="M41.516,33.023a8.645,8.645,0,0,1,0,.94v2.231a4.928,4.928,0,0,1-.249,1.521" transform="translate(10.085 8.071)"/><path class="d" d="M42.268,28.864a1.309,1.309,0,0,1,.1-.12c.155-.188.326-.367.5-.547s.429-.41.661-.615.532-.41.807-.615a3.335,3.335,0,0,1,.567-.35,2.855,2.855,0,0,1,.343-.214,8.715,8.715,0,0,1,.859-.444,7.4,7.4,0,0,1,.7-.308l.129-.051v4.607H42.938" transform="translate(10.33 6.256)"/><path class="d" d="M49.148,27.585l.318-.564a3.3,3.3,0,0,0,1.717.453v.154" transform="translate(12.011 6.604)"/><path class="d" d="M55.084,27.357v2.419H47.8V27.391" transform="translate(11.682 6.686)"/><path class="d" d="M47.8,28V25.129l.627-.111.472-.068a7.3,7.3,0,0,0,.73-.077,7.259,7.259,0,0,1,.747,0h1.434a2.1,2.1,0,0,1,.7.077,6.59,6.59,0,0,0,.7.128,4.777,4.777,0,0,1,.627.154,5.593,5.593,0,0,1,.61.2l.275.111a1.155,1.155,0,0,1,.258.1h.112l.206.1a1.054,1.054,0,0,0-.206-.085v2.308" transform="translate(11.682 6.076)"/><path class="d" d="M51.155,27.627v-.154a3.3,3.3,0,0,1-1.717-.453l-.318.564" transform="translate(12.005 6.604)"/><path class="d" d="M57.962,29.952H55.455V26.636c.189.154.369.325.541.5l.189.188a9.814,9.814,0,0,1,1.065,1.325c.12.188.24.376.352.581a7.208,7.208,0,0,1,.361.726Z" transform="translate(13.553 6.51)"/><path class="d" d="M48.242,25.077v5.256H46V25.726c.326-.12.678-.248,1.022-.35l.292-.077A7.729,7.729,0,0,1,48.242,25.077Z" transform="translate(11.242 6.129)"/><path class="d" d="M55.895,26.913v3.316H53.654V25.5a1.046,1.046,0,0,1,.206.085A8.848,8.848,0,0,1,55.895,26.913Z" transform="translate(13.113 6.233)"/><path class="d" d="M53.86,25.588a1.046,1.046,0,0,0-.206-.085h0Z" transform="translate(13.113 6.233)"/><path class="d" d="M41.892,19.385a1.37,1.37,0,0,1-1.271,1.359,6.72,6.72,0,0,1-13.146,0,1.358,1.358,0,0,1-.146-2.7v-.855a7.484,7.484,0,0,1,.155-1.333,7.668,7.668,0,0,1,.215-.795,7.089,7.089,0,0,1,.3-.744,6.22,6.22,0,0,1,.764-1.256,6.66,6.66,0,0,1,1.151-1.154,7.206,7.206,0,0,1,.7-.479c.24-.137.464-.256.7-.368a6.037,6.037,0,0,1,1.606-.5l-.369,1.949a1.143,1.143,0,0,0,.481,1.145l.447.282a1.1,1.1,0,0,0,1.228,0l.455-.282a1.16,1.16,0,0,0,.481-1.145l-.421-1.94a6.082,6.082,0,0,1,1.6.5,4.872,4.872,0,0,1,.661.342,6.561,6.561,0,0,1,.73.5,6.663,6.663,0,0,1,1.151,1.154,6.225,6.225,0,0,1,.764,1.256,7.065,7.065,0,0,1,.3.744,2.316,2.316,0,0,1,.094.291.308.308,0,0,1,0,.085,2.723,2.723,0,0,0,.112.5,4.26,4.26,0,0,1,.077.59,4.879,4.879,0,0,1,0,.624v.855a1.378,1.378,0,0,1,1.194,1.376Z" transform="translate(6.396 2.582)"/><path class="d" d="M31.151,19.933a3.035,3.035,0,0,0,3.357,0" transform="translate(7.613 4.871)"/><path class="d" d="M39.9,53.349l-.258,3.29-.2-.137a2.821,2.821,0,0,0-.678-.3,1.321,1.321,0,0,0-.215-.051,3.182,3.182,0,0,0-.412-.085H37.2a2.855,2.855,0,0,0-.55,0,1.137,1.137,0,0,0-.258.06.807.807,0,0,0-.206.051,3.288,3.288,0,0,0-.618.265l-.2.128a2.136,2.136,0,0,0-.575.47.467.467,0,0,0-.086.094,2.355,2.355,0,0,0-.438.581l-.343-4.393a1.12,1.12,0,0,1,.662-1.081,1.128,1.128,0,0,1,.437-.1h3.744a1.124,1.124,0,0,1,1.065.75,1.116,1.116,0,0,1,.06.455Z" transform="translate(8.292 12.744)"/><path class="d" d="M32.24,53.344,31.9,57.737a2.564,2.564,0,0,0-.429-.581l-.094-.094a2.138,2.138,0,0,0-.575-.47c-.069,0-.129-.094-.2-.128a3.068,3.068,0,0,0-.575-.265.727.727,0,0,0-.206-.051,1.138,1.138,0,0,0-.258-.06,2.767,2.767,0,0,0-.541,0h-.945a3.21,3.21,0,0,0-.412.085,1.589,1.589,0,0,0-.215.051,2.765,2.765,0,0,0-.67.3l-.206.137-.258-3.29a1.128,1.128,0,0,1,.669-1.107,1.138,1.138,0,0,1,.447-.1h3.744a1.124,1.124,0,0,1,1,.746,1.116,1.116,0,0,1,.062.433Z" transform="translate(6.43 12.749)"/><path class="d" d="M39.647,58.621a1.118,1.118,0,0,0,.966-.523,1.107,1.107,0,0,0,.048-1.093A3.368,3.368,0,0,0,37.715,55.3h-.558a3.36,3.36,0,0,0-2.945,1.709,1.109,1.109,0,0,0,.456,1.477,1.122,1.122,0,0,0,.549.138Z" transform="translate(8.331 13.514)"/><path class="d" d="M31.077,58.621a1.117,1.117,0,0,0,.959-.526,1.107,1.107,0,0,0,.046-1.089A3.342,3.342,0,0,0,29.145,55.3h-.567a3.342,3.342,0,0,0-2.937,1.709,1.109,1.109,0,0,0,.456,1.477,1.122,1.122,0,0,0,.549.138Z" transform="translate(6.237 13.514)"/><path class="d" d="M41.216,44.2V47a40.677,40.677,0,0,1-11.034-2.564c-1.176-.4-2.353-.778-3.529-1.12V40.5l3.186,1.12C33.608,42.906,37.4,44.1,41.216,44.2Z" transform="translate(6.514 9.897)"/><path class="d" d="M32.575,43.213a1.582,1.582,0,0,1-.489-.077,9.336,9.336,0,0,1-1.2.077H28.033a5.536,5.536,0,0,1-1.365-.179v1.291l3.186,1.12H41.231v-2.41a5.605,5.605,0,0,1-1.374.179Zm4.671-17.871c-.258-.085-.524-.154-.79-.222a7.357,7.357,0,0,0-.859-.154,10.532,10.532,0,0,0-3.383,0c-.283.043-.55.094-.859.154a5.81,5.81,0,0,0-.79.222A11.031,11.031,0,0,0,26.59,27.5V38.2a1.4,1.4,0,0,0,1.365,1.111h2.851A6.025,6.025,0,0,0,35.1,37.555l1.03-1.026a1.958,1.958,0,0,1,3.34,1.385A1.936,1.936,0,0,1,38.9,39.3h.919a1.407,1.407,0,0,0,1.374-1.111V27.5a11.064,11.064,0,0,0-3.941-2.162Z" transform="translate(6.498 6.068)"/><path class="d" d="M33.155,24.816a11.152,11.152,0,0,0-3.315.513,3.351,3.351,0,0,0,6.62,0A11.143,11.143,0,0,0,33.155,24.816Z" transform="translate(7.293 6.065)"/><path class="d" d="M43.047,35.441v2.231a5.193,5.193,0,0,1-.292,1.521,5.332,5.332,0,0,1-3.624,3.333,5.612,5.612,0,0,1-1.374.179H35.181V38.782h2.576a1.407,1.407,0,0,0,1.374-1.111V26.98A10.98,10.98,0,0,1,43,34.5a8.657,8.657,0,0,1,.043.94Z" transform="translate(8.598 6.594)"/><path class="d" d="M40.269,37.389a1.936,1.936,0,0,1-.575,1.385H33.331a1.961,1.961,0,0,0-1.958,1.957,1.925,1.925,0,0,0,1.468,1.88,9.332,9.332,0,0,1-1.2.077H28.788a5.53,5.53,0,0,1-1.365-.179A5.3,5.3,0,0,1,23.5,37.671V35.441a11.089,11.089,0,0,1,3.924-8.461V37.671a1.4,1.4,0,0,0,1.365,1.111h2.851a6.025,6.025,0,0,0,4.293-1.752L36.963,36a1.924,1.924,0,0,1,3.306,1.385Z" transform="translate(5.743 6.594)"/><path class="d" d="M33.716,36.464V40.37H31.784a1.582,1.582,0,0,1-.489-.077,1.925,1.925,0,0,1-1.468-1.872,1.962,1.962,0,0,1,1.958-1.957Z" transform="translate(7.289 8.912)"/><path class="d" d="M33.876,14.6l-.455.282a1.1,1.1,0,0,1-1.228,0l-.446-.282a1.143,1.143,0,0,1-.481-1.145l.369-1.949.859-4.5a.335.335,0,0,1,.661,0l.859,4.5.369,1.949a1.16,1.16,0,0,1-.507,1.145Z" transform="translate(7.637 1.646)"/><path class="d" d="M36.124,12.854a7.013,7.013,0,0,1,1.151,1.162l3.787-6.837a.332.332,0,0,0-.084-.421.336.336,0,0,0-.431.01l-5.813,5.248a7.077,7.077,0,0,1,1.391.838Z" transform="translate(8.488 1.634)"/><path class="d" d="M30.13,12.858a6.966,6.966,0,0,0-1.142,1.162l-3.8-6.837a.334.334,0,0,1,.524-.41l5.813,5.248a6.876,6.876,0,0,0-1.4.837Z" transform="translate(6.144 1.63)"/><path class="d" d="M24.059,15.105l4.525,1.709V16.5a7.494,7.494,0,0,1,.155-1.333,7.662,7.662,0,0,1,.215-.795,4.645,4.645,0,0,1,.3-.744l-5.418-.171-2.456-.068a.335.335,0,0,0-.345.273.333.333,0,0,0,.225.377l2.576.949" transform="translate(5.14 3.272)"/><path class="d" d="M27.108,16.19v-.316C27.1,15.976,27.108,16.087,27.108,16.19Z" transform="translate(6.624 3.879)"/><path class="d" d="M35.752,36.464h-2.8V40.37h2.8Z" transform="translate(8.053 8.912)"/><path class="d" d="M53.843,22.674a1.09,1.09,0,0,1-.112.436,1.126,1.126,0,0,1-1,.615h-.172a1.078,1.078,0,0,1-.464-.1,1.1,1.1,0,0,1-.644-.94,12.979,12.979,0,0,0-.361-2.462h0a.965.965,0,0,0,.223.068l.249.043h.464a2.082,2.082,0,0,0,.4,0,2.586,2.586,0,0,0,.369-.068l.24-.077a3.127,3.127,0,0,1,.807,2.487Z" transform="translate(12.485 4.934)"/><path class="d" d="M55.938,52.144,55.8,56.05H47.738l-.129-3.906Z" transform="translate(11.635 12.744)"/><path class="d" d="M50.956,45.874V57.582" transform="translate(12.453 11.211)"/><path class="d" d="M58.8,58.624H54.313a3.35,3.35,0,0,0-3.357-3.342h4.482A3.35,3.35,0,0,1,58.8,58.624Z" transform="translate(12.453 13.511)"/><path class="d" d="M55.106,58.624h-6.2a1.163,1.163,0,0,1-.618-.179,1.353,1.353,0,0,1-.206-.179,1.253,1.253,0,0,1-.292-.718l-.077-2.265h4.036a3.35,3.35,0,0,1,3.357,3.342Z" transform="translate(11.661 13.511)"/><path class="d" d="M48.288,58.445a1.119,1.119,0,0,1-.507-.9l-.069-2.265.077,2.265a1.161,1.161,0,0,0,.5.9Z" transform="translate(11.661 13.511)"/><rect class="a" width="80" height="80"/><path class="b" d="M14.629,16.4a.239.239,0,0,1,.3.029.229.229,0,0,1,.029.291.235.235,0,0,1-.106.086.24.24,0,0,1-.138.013.236.236,0,0,1-.122-.064.232.232,0,0,1-.064-.119.229.229,0,0,1,.013-.133A.233.233,0,0,1,14.629,16.4Z" transform="translate(3.55 3.998)"/><path class="b" d="M11.026,16.4a.239.239,0,0,1,.3.029.229.229,0,0,1,.029.291.235.235,0,0,1-.106.086.24.24,0,0,1-.138.013.237.237,0,0,1-.122-.064.232.232,0,0,1-.064-.119.229.229,0,0,1,.013-.133A.234.234,0,0,1,11.026,16.4Z" transform="translate(2.669 3.998)"/><path class="b" d="M50.193,16.4a.239.239,0,0,1,.3.029.229.229,0,0,1,.029.291.235.235,0,0,1-.106.086.241.241,0,0,1-.138.013.236.236,0,0,1-.122-.064.231.231,0,0,1-.064-.119.228.228,0,0,1,.013-.133A.233.233,0,0,1,50.193,16.4Z" transform="translate(12.241 3.998)"/><path class="c" d="M53.827,16.611a.23.23,0,0,0,.068.156.239.239,0,0,0,.168.069h0a.239.239,0,0,0,.16-.06.23.23,0,0,0,.077-.147l.618.069-.024.128a.855.855,0,0,1-.258.417l-.032.027q-.273-.057-.542-.128h0q-.212-.056-.421-.12-.194-.06-.386-.126a.849.849,0,0,1-.05-.248l.014-.043.607.016Zm0,0a.372.372,0,0,1,.029-.126l-.524-.22m.495.345s0,0,0-.008h-.607l.112-.338m0,0v0m0,0h0m0,0-.05-.021-.048.146a.991.991,0,0,0-.029.213m.127-.338-.123.338h0m0,0s0,.008,0,.012l0-.012Z" transform="translate(13.003 3.97)"/><path class="b" d="M30.389,16.4a.239.239,0,0,1,.3.029.229.229,0,0,1,.029.291.235.235,0,0,1-.106.086.24.24,0,0,1-.138.013.237.237,0,0,1-.122-.064.232.232,0,0,1-.064-.119A.229.229,0,0,1,30.3,16.5.233.233,0,0,1,30.389,16.4Z" transform="translate(7.401 3.998)"/><path class="b" d="M34.44,16.4a.239.239,0,0,1,.3.029.229.229,0,0,1,.029.291.235.235,0,0,1-.106.086.24.24,0,0,1-.138.013.237.237,0,0,1-.122-.064.232.232,0,0,1-.064-.119.229.229,0,0,1,.013-.133A.233.233,0,0,1,34.44,16.4Z" transform="translate(8.391 3.998)"/><path class="d" d="M50.756,27.877a3.338,3.338,0,0,0,3.237-2.5" transform="translate(12.404 6.201)"/><path class="d" d="M48.092,25.036a3.418,3.418,0,0,0,1.632,2.47" transform="translate(11.753 6.119)"/><path class="d" d="M50.756,28.465v-.957" transform="translate(12.404 6.723)"/><path class="d" d="M52.108,27.02l.558.966" transform="translate(12.735 6.604)"/><path class="d" d="M49.195,27.474l-.24.4" transform="translate(11.964 6.714)"/><path class="d" d="M56.267,45.874l-.275,7.8-.137,3.906H47.792l-.129-3.906-.275-7.8Z" transform="translate(11.581 11.211)"/><path class="d" d="M9.943,36.787v3.239A5.04,5.04,0,0,1,1,36.829V32.65a1.957,1.957,0,0,1,1.18-1.925,1.967,1.967,0,0,1,2.634,1.137,1.948,1.948,0,0,1,.11.788v4.179a1.116,1.116,0,0,0,2.233,0h0Z" transform="translate(0.244 7.47)"/><path class="d" d="M26.065,30.515a10.566,10.566,0,0,0-6.183-5.273,3.351,3.351,0,0,1-6.612,0,10.594,10.594,0,0,0-7.333,10.1V38.13h2.8v7.213H20.105l3.194-1.12V38.1h1.717m-5.075-1.12c0,1.333-.661,1.376-1.717,2.085v1.265A1.122,1.122,0,0,1,17.1,41.437H14.867a1.122,1.122,0,0,1-1.125-1.111V39.062c-1-.709-1.717-.752-1.717-2.085,0-2.145-.558-5.017,3.924-5.017S19.942,34.831,19.942,36.976Z" transform="translate(1.451 6.169)"/><path class="d" d="M8.733,35.565H5.951v.009H8.733Z" transform="translate(1.454 8.692)"/><path class="d" d="M11.83,25.333h.146c.215-.068.429-.128.653-.179l.764-.162c.309-.051.635-.085.962-.111s.515,0,.781,0h.79a9.021,9.021,0,0,1,1.717.274,6.743,6.743,0,0,1,.661.179h.137a3.351,3.351,0,0,1-6.612,0Z" transform="translate(2.891 6.078)"/><path class="d" d="M18.751,35.657c0,1.333-.661,1.376-1.717,2.085v1.265a1.122,1.122,0,0,1-1.125,1.111H13.676a1.122,1.122,0,0,1-1.125-1.111V37.742c-1-.709-1.717-.752-1.717-2.085,0-2.145-.558-5.017,3.924-5.017S18.751,33.512,18.751,35.657Z" transform="translate(2.642 7.488)"/><path class="d" d="M15.142,51.5a1.129,1.129,0,0,1,.69-1.055,1.139,1.139,0,0,1,.435-.09H21.05a1.125,1.125,0,0,1,1.128.664,1.117,1.117,0,0,1-.27,1.277,1.128,1.128,0,0,1-.858.29H16.267A1.122,1.122,0,0,1,15.142,51.5Z" transform="translate(3.701 12.305)"/><path class="d" d="M18.62,21.33l.816,1.624a1.137,1.137,0,0,0,1.795.316,11.53,11.53,0,0,0,3.246-6.154" transform="translate(4.551 4.183)"/><path class="d" d="M12.259,12.7H7.3a1.126,1.126,0,0,1-1-.606,1.115,1.115,0,0,1,.083-1.164A11.76,11.76,0,0,1,26.47,12.475" transform="translate(1.51 1.466)"/><path class="d" d="M11.761,12.19,8.635,7.8" transform="translate(2.11 1.905)"/><path class="d" d="M13.294,11.624,12.237,6.265" transform="translate(2.991 1.531)"/><path class="d" d="M16.4,6.327l-1.236,5.316" transform="translate(3.706 1.546)"/><path class="d" d="M20.344,7.982l-3.263,4.282" transform="translate(4.175 1.951)"/><path class="d" d="M23.473,18.758l-3.134-1.12" transform="translate(4.971 4.311)"/><path class="d" d="M22.043,16.507v1.521a1.36,1.36,0,0,1,1.133,1.359h0a1.361,1.361,0,0,1-1.254,1.359,6.98,6.98,0,0,1-.859,2.188,6.7,6.7,0,0,1-6.878,3.094,1.128,1.128,0,0,0,.653-.94,13.3,13.3,0,0,1,.344-2.461h-.12a2.108,2.108,0,0,0-.361.077,2.123,2.123,0,0,1-.464,0,2.082,2.082,0,0,1-.4,0,1.725,1.725,0,0,1-.361-.068.937.937,0,0,1-.249-.077h0a3.186,3.186,0,0,0-.773,2.478,1.083,1.083,0,0,0,.12.419A6.665,6.665,0,0,1,8.656,19.4V17.174a6.641,6.641,0,0,1,3-5.572.24.24,0,0,1,.1-.068,6.3,6.3,0,0,1,2.413-.94,6.05,6.05,0,0,1,1.185-.111,6.27,6.27,0,0,1,1.4.145A6.793,6.793,0,0,1,21,13.542a4.882,4.882,0,0,1,.283.5" transform="translate(2.115 2.562)"/><path class="d" d="M16.389,56.118V52.144h5.04V58.28a1.114,1.114,0,0,1-1.116,1.111H13.59a3.347,3.347,0,0,1,2.8-3.273Z" transform="translate(3.321 12.744)"/><path class="d" d="M19.556,41.4C15.795,42.686,12,43.883,8.187,43.959V41.4Z" transform="translate(2.001 10.117)"/><path class="d" d="M22.75,42.735v9.478H17.967a1.147,1.147,0,0,0-.18,0,.291.291,0,0,0-.137,0,1.176,1.176,0,0,0-.275.137h0l-.094-4.538a1.8,1.8,0,0,0-3.6,0l-.1,4.572a1.183,1.183,0,0,0-.275-.137.3.3,0,0,0-.137,0,.424.424,0,0,0-.18,0h-4.8V46.453C13.785,46.162,18.139,44.025,22.75,42.735Z" transform="translate(2.001 10.444)"/><path class="d" d="M8.737,56.118V52.144h5.04V58.28a1.114,1.114,0,0,1-1.116,1.111H5.937a3.347,3.347,0,0,1,2.8-3.273Z" transform="translate(1.451 12.744)"/><path class="d" d="M14.444,20.214a13.3,13.3,0,0,0-.344,2.461,1.128,1.128,0,0,1-.653.94,1.077,1.077,0,0,1-.455.137h-.172a1.108,1.108,0,0,1-1-.632,1.084,1.084,0,0,1-.12-.419,3.186,3.186,0,0,1,.773-2.478.928.928,0,0,0,.249.077,1.717,1.717,0,0,0,.361.068,2.082,2.082,0,0,0,.4,0,2.123,2.123,0,0,0,.464,0,3.015,3.015,0,0,0,.5-.154Z" transform="translate(2.853 4.94)"/><path class="d" d="M13.995,20.214a3.013,3.013,0,0,1-.481.111,3.447,3.447,0,0,0,.472-.111Z" transform="translate(3.303 4.94)"/><path class="d" d="M12.433,20.258a2.675,2.675,0,0,1-.644-.325" transform="translate(2.881 4.871)"/><path class="d" d="M13.22,20.31a2.082,2.082,0,0,1-.4,0" transform="translate(3.132 4.964)"/><path class="d" d="M14.63,19.933a2.4,2.4,0,0,1-.73.35" transform="translate(3.397 4.871)"/><path class="d" d="M22.757,40.5v2.786c-4.594,1.291-8.965,3.419-14.6,3.709V44.2c3.813-.094,7.608-1.291,11.369-2.564Z" transform="translate(1.994 9.897)"/><path class="d" d="M23.814,40.879v5.008a1.967,1.967,0,0,1-3.924,0V35.571h1.717" transform="translate(4.861 8.693)"/><path class="d" d="M19.89,36.557V31.54" transform="translate(4.861 7.708)"/><path class="d" d="M8.187,36.548V31.54" transform="translate(2.001 7.708)"/><path class="d" d="M18.442,25.333a3.351,3.351,0,0,1-6.612,0h.146c.215-.068.429-.128.653-.179l.764-.162c.309-.051.635-.085.962-.111s.515,0,.781,0h.79a9.021,9.021,0,0,1,1.717.274,6.743,6.743,0,0,1,.661.179Z" transform="translate(2.891 6.078)"/><path class="d" d="M18.751,35.657c0,1.333-.661,1.376-1.717,2.085v1.265a1.122,1.122,0,0,1-1.125,1.111H13.676a1.122,1.122,0,0,1-1.125-1.111V37.742c-1-.709-1.717-.752-1.717-2.085,0-2.145-.558-5.017,3.924-5.017S18.751,33.512,18.751,35.657Z" transform="translate(2.642 7.488)"/><path class="d" d="M14.038,36.464v2.231" transform="translate(3.431 8.912)"/><path class="d" d="M14.314,51.5a1.12,1.12,0,0,0-.676-1.053,1.128,1.128,0,0,0-.431-.092h-4.8a1.122,1.122,0,0,0-1.116,1.12,1.114,1.114,0,0,0,1.116,1.111h4.8A1.114,1.114,0,0,0,14.314,51.5Z" transform="translate(1.782 12.306)"/><path class="d" d="M45.349,14.041l-.67.256-6.655,2.487v-.316a6.623,6.623,0,0,0-.223-1.709,1.184,1.184,0,0,0-.112-.376,7.079,7.079,0,0,0-.3-.744l7.608-.2h.232a.335.335,0,0,1,.167.092.333.333,0,0,1-.047.506Z" transform="translate(9.138 3.285)"/><path class="d" d="M58.89,17.738v1.12a6.7,6.7,0,0,1-3.916,6.077,1.089,1.089,0,0,0,.112-.436,3.126,3.126,0,0,0-.773-2.478l-.24.077a2.583,2.583,0,0,1-.369.068,2.082,2.082,0,0,1-.4,0h-.464l-.249-.043a.966.966,0,0,1-.223-.068h0a12.978,12.978,0,0,1,.326,2.453,1.1,1.1,0,0,0,.644.94,6.514,6.514,0,0,1-1.168.1A6.7,6.7,0,0,1,46,21.49c.06-3.291.944-6.795,3.924-8.769a9.193,9.193,0,0,0,5.152,4.384,10.211,10.211,0,0,0,1.589.436,13.076,13.076,0,0,0,2.224.2Z" transform="translate(11.242 3.109)"/><path class="d" d="M53.333,19.933a2.736,2.736,0,0,1-.653.325" transform="translate(12.875 4.871)"/><path class="d" d="M51.228,20.283a2.962,2.962,0,0,1-.721-.35" transform="translate(12.344 4.871)"/><path class="d" d="M43.565,13.442H43.8a.335.335,0,0,1,.345.273.333.333,0,0,1-.225.377l-.67.256m5.667,16.444V27.92l.627-.111.472-.068a7.305,7.305,0,0,0,.73-.077,7.261,7.261,0,0,1,.747,0h1.434a2.1,2.1,0,0,1,.7.077,6.586,6.586,0,0,0,.7.128,4.779,4.779,0,0,1,.627.154,5.591,5.591,0,0,1,.61.2l.275.111a1.155,1.155,0,0,1,.258.1H56.2l.206.1a1.051,1.051,0,0,0-.206-.085v2.308Zm9.523-.889v.581l.541-.085a3.574,3.574,0,0,0-.541-.538ZM50.59,30.946l.318-.564a3.3,3.3,0,0,0,1.717.453v.154Z" transform="translate(10.569 3.285)"/><path class="d" d="M45.236,11.975A8.935,8.935,0,0,1,52.4,9.189c7.153-.145,11.257,5.5,9.858,13.478-.472,2.675-.5,4.974.206,6.675a1.086,1.086,0,0,1-.721,1.385c-.644.188-1.537.427-2.636.641-.172-.171-.352-.342-.541-.5a8.851,8.851,0,0,0-2.035-1.325l-.206-.1H56.21a1.152,1.152,0,0,0-.258-.1l-.275-.111a5.592,5.592,0,0,0-.61-.2,11.58,11.58,0,0,0-1.322-.282,6.919,6.919,0,0,1-.7-.077H50.869a2.335,2.335,0,0,0-.73.077l-.472.068-.627.111c-.326.068-.627.137-.927.222l-.292.077c-.344.1-.7.231-1.022.35l-.129.051a7.4,7.4,0,0,0-.7.308,8.716,8.716,0,0,0-.859.444,1.635,1.635,0,0,0-.343.214c-.206.111-.386.231-.567.35-.24-.06-.455-.128-.661-.2a1.1,1.1,0,0,1-.7-1.453c.73-1.709.721-4.008.24-6.709a17.943,17.943,0,0,1-.283-4.1m16.873,1.239A6.7,6.7,0,0,1,55.763,25.8a1.126,1.126,0,0,1-1,.615h-.172a1.077,1.077,0,0,1-.464-.1,6.527,6.527,0,0,1-1.168.1,6.7,6.7,0,0,1-6.165-4.06c.06-3.29.944-6.795,3.924-8.769a9.193,9.193,0,0,0,5.152,4.384,10.215,10.215,0,0,0,1.589.436,13.06,13.06,0,0,0,2.258.2Zm-16-5.239h.232a.335.335,0,0,1,.345.273.333.333,0,0,1-.224.377l-.67.256Z" transform="translate(10.453 2.24)"/><path class="d" d="M41.216,46.453v8H35.952l-.232-6.683a1.707,1.707,0,0,0-.694-1.356,1.724,1.724,0,0,0-1.5-.268,1.813,1.813,0,0,0-1.3,1.709l-.232,6.607H26.652V42.735c1.176.342,2.353.718,3.529,1.12A40.051,40.051,0,0,0,41.216,46.453Z" transform="translate(6.514 10.444)"/><path class="d" d="M40.59,41.4v2.564c-3.813-.094-7.608-1.29-11.377-2.564Z" transform="translate(7.139 10.117)"/><path class="d" d="M64.868,32.623V36.8A5.019,5.019,0,0,1,61.5,41.53a5.055,5.055,0,0,1-5.6-1.583V36.776h2.808a1.116,1.116,0,0,0,2.233,0V32.623a1.958,1.958,0,0,1,1.18-1.925,1.967,1.967,0,0,1,2.634,1.137,1.95,1.95,0,0,1,.11.788Z" transform="translate(13.662 7.463)"/><path class="d" d="M47.289,40.59H46v-.479A1.954,1.954,0,0,0,47.289,40.59Z" transform="translate(11.242 9.803)"/><path class="d" d="M42.806,29.3H61.053a9.245,9.245,0,0,1,.859,3.9v3.88H59.1v.692l-1,.4a49.211,49.211,0,0,1-8.132,2.675,1.708,1.708,0,0,0-.618-1.026c-1-.513-1.846-.906-2.576-1.282v-5.9l-.172-.111a2.009,2.009,0,0,0-2.052,0,1.92,1.92,0,0,0-.67.692" transform="translate(10.462 7.161)"/><path class="d" d="M41.613,33.646a11.4,11.4,0,0,0-.739-3.171" transform="translate(9.989 7.448)"/><path class="d" d="M47.8,28V25.129l.627-.111.472-.068a7.3,7.3,0,0,0,.73-.077,7.259,7.259,0,0,1,.747,0h1.434a2.1,2.1,0,0,1,.7.077,6.59,6.59,0,0,0,.7.128,4.777,4.777,0,0,1,.627.154,5.593,5.593,0,0,1,.61.2l.275.111a1.158,1.158,0,0,1,.258.1.284.284,0,0,1,.112.06V28.01" transform="translate(11.682 6.076)"/><path class="d" d="M51.155,27.627v-.154a3.3,3.3,0,0,1-1.717-.453l-.318.564" transform="translate(12.005 6.604)"/><path class="d" d="M57.962,29.952H55.455V26.636c.189.154.369.325.541.5l.18.188a9.818,9.818,0,0,1,1.073,1.325c.12.188.24.376.352.581a7.208,7.208,0,0,1,.361.726Z" transform="translate(13.553 6.51)"/><path class="d" d="M57.229,38.339v2.684H50.479a21.431,21.431,0,0,0,3.065-1.008C54.816,39.485,56.035,38.895,57.229,38.339Z" transform="translate(12.337 9.37)"/><path class="d" d="M56.267,45.874l-.275,7.8-.137,3.906H47.792l-.129-3.906-.275-7.8Z" transform="translate(11.581 11.211)"/><path class="d" d="M58.316,40.5,58,47.2H46.321l-.292-5.983a22.472,22.472,0,0,0,5.539-.752Z" transform="translate(11.249 9.888)"/><path class="d" d="M55.9,36.43v-.684a3.314,3.314,0,0,1,.618-1.931,3.407,3.407,0,0,0,.507-1.829" transform="translate(13.662 7.817)"/><path class="d" d="M58.316,36.107v2.786c-1.194.556-2.413,1.145-3.684,1.709a21.472,21.472,0,0,1-3.065,1.008,22.478,22.478,0,0,1-5.539.752v-.752h1.288a1.962,1.962,0,0,0,1.486-.667,1.9,1.9,0,0,0,.446-1.47,1.215,1.215,0,0,0-.052-.3A49.2,49.2,0,0,0,57.329,36.5Z" transform="translate(11.249 8.824)"/><path class="d" d="M47.289,40.59H46v-.479A1.954,1.954,0,0,0,47.289,40.59Z" transform="translate(11.242 9.803)"/><path class="d" d="M42.951,39.41a29.238,29.238,0,0,0,3.8,2.034,1.981,1.981,0,0,0,2.774-.188A1.9,1.9,0,0,0,50,39.829a1.215,1.215,0,0,0-.052-.3,1.708,1.708,0,0,0-.618-1.026c-1-.513-1.846-.906-2.576-1.282a5,5,0,0,1-2.8-2.564" transform="translate(10.497 8.47)"/><path class="d" d="M41.516,33.023a8.645,8.645,0,0,1,0,.94v2.231a4.928,4.928,0,0,1-.249,1.521" transform="translate(10.085 8.071)"/><path class="d" d="M42.268,28.864a1.309,1.309,0,0,1,.1-.12c.155-.188.326-.367.5-.547s.429-.41.661-.615.532-.41.807-.615a3.335,3.335,0,0,1,.567-.35,2.855,2.855,0,0,1,.343-.214,8.715,8.715,0,0,1,.859-.444,7.4,7.4,0,0,1,.7-.308l.129-.051v4.607H42.938" transform="translate(10.33 6.256)"/><path class="d" d="M49.148,27.585l.318-.564a3.3,3.3,0,0,0,1.717.453v.154" transform="translate(12.011 6.604)"/><path class="d" d="M55.084,27.357v2.419H47.8V27.391" transform="translate(11.682 6.686)"/><path class="d" d="M47.8,28V25.129l.627-.111.472-.068a7.3,7.3,0,0,0,.73-.077,7.259,7.259,0,0,1,.747,0h1.434a2.1,2.1,0,0,1,.7.077,6.59,6.59,0,0,0,.7.128,4.777,4.777,0,0,1,.627.154,5.593,5.593,0,0,1,.61.2l.275.111a1.155,1.155,0,0,1,.258.1h.112l.206.1a1.054,1.054,0,0,0-.206-.085v2.308" transform="translate(11.682 6.076)"/><path class="d" d="M51.155,27.627v-.154a3.3,3.3,0,0,1-1.717-.453l-.318.564" transform="translate(12.005 6.604)"/><path class="d" d="M57.962,29.952H55.455V26.636c.189.154.369.325.541.5l.189.188a9.814,9.814,0,0,1,1.065,1.325c.12.188.24.376.352.581a7.208,7.208,0,0,1,.361.726Z" transform="translate(13.553 6.51)"/><path class="d" d="M48.242,25.077v5.256H46V25.726c.326-.12.678-.248,1.022-.35l.292-.077A7.729,7.729,0,0,1,48.242,25.077Z" transform="translate(11.242 6.129)"/><path class="d" d="M55.895,26.913v3.316H53.654V25.5a1.046,1.046,0,0,1,.206.085A8.848,8.848,0,0,1,55.895,26.913Z" transform="translate(13.113 6.233)"/><path class="d" d="M53.86,25.588a1.046,1.046,0,0,0-.206-.085h0Z" transform="translate(13.113 6.233)"/><path class="d" d="M41.892,19.385a1.37,1.37,0,0,1-1.271,1.359,6.72,6.72,0,0,1-13.146,0,1.358,1.358,0,0,1-.146-2.7v-.855a7.484,7.484,0,0,1,.155-1.333,7.668,7.668,0,0,1,.215-.795,7.089,7.089,0,0,1,.3-.744,6.22,6.22,0,0,1,.764-1.256,6.66,6.66,0,0,1,1.151-1.154,7.206,7.206,0,0,1,.7-.479c.24-.137.464-.256.7-.368a6.037,6.037,0,0,1,1.606-.5l-.369,1.949a1.143,1.143,0,0,0,.481,1.145l.447.282a1.1,1.1,0,0,0,1.228,0l.455-.282a1.16,1.16,0,0,0,.481-1.145l-.421-1.94a6.082,6.082,0,0,1,1.6.5,4.872,4.872,0,0,1,.661.342,6.561,6.561,0,0,1,.73.5,6.663,6.663,0,0,1,1.151,1.154,6.225,6.225,0,0,1,.764,1.256,7.065,7.065,0,0,1,.3.744,2.316,2.316,0,0,1,.094.291.308.308,0,0,1,0,.085,2.723,2.723,0,0,0,.112.5,4.26,4.26,0,0,1,.077.59,4.879,4.879,0,0,1,0,.624v.855a1.378,1.378,0,0,1,1.194,1.376Z" transform="translate(6.396 2.582)"/><path class="d" d="M31.151,19.933a3.035,3.035,0,0,0,3.357,0" transform="translate(7.613 4.871)"/><path class="d" d="M39.9,53.349l-.258,3.29-.2-.137a2.821,2.821,0,0,0-.678-.3,1.321,1.321,0,0,0-.215-.051,3.182,3.182,0,0,0-.412-.085H37.2a2.855,2.855,0,0,0-.55,0,1.137,1.137,0,0,0-.258.06.807.807,0,0,0-.206.051,3.288,3.288,0,0,0-.618.265l-.2.128a2.136,2.136,0,0,0-.575.47.467.467,0,0,0-.086.094,2.355,2.355,0,0,0-.438.581l-.343-4.393a1.12,1.12,0,0,1,.662-1.081,1.128,1.128,0,0,1,.437-.1h3.744a1.124,1.124,0,0,1,1.065.75,1.116,1.116,0,0,1,.06.455Z" transform="translate(8.292 12.744)"/><path class="d" d="M32.24,53.344,31.9,57.737a2.564,2.564,0,0,0-.429-.581l-.094-.094a2.138,2.138,0,0,0-.575-.47c-.069,0-.129-.094-.2-.128a3.068,3.068,0,0,0-.575-.265.727.727,0,0,0-.206-.051,1.138,1.138,0,0,0-.258-.06,2.767,2.767,0,0,0-.541,0h-.945a3.21,3.21,0,0,0-.412.085,1.589,1.589,0,0,0-.215.051,2.765,2.765,0,0,0-.67.3l-.206.137-.258-3.29a1.128,1.128,0,0,1,.669-1.107,1.138,1.138,0,0,1,.447-.1h3.744a1.124,1.124,0,0,1,1,.746,1.116,1.116,0,0,1,.062.433Z" transform="translate(6.43 12.749)"/><path class="d" d="M39.647,58.621a1.118,1.118,0,0,0,.966-.523,1.107,1.107,0,0,0,.048-1.093A3.368,3.368,0,0,0,37.715,55.3h-.558a3.36,3.36,0,0,0-2.945,1.709,1.109,1.109,0,0,0,.456,1.477,1.122,1.122,0,0,0,.549.138Z" transform="translate(8.331 13.514)"/><path class="d" d="M31.077,58.621a1.117,1.117,0,0,0,.959-.526,1.107,1.107,0,0,0,.046-1.089A3.342,3.342,0,0,0,29.145,55.3h-.567a3.342,3.342,0,0,0-2.937,1.709,1.109,1.109,0,0,0,.456,1.477,1.122,1.122,0,0,0,.549.138Z" transform="translate(6.237 13.514)"/><path class="d" d="M41.216,44.2V47a40.677,40.677,0,0,1-11.034-2.564c-1.176-.4-2.353-.778-3.529-1.12V40.5l3.186,1.12C33.608,42.906,37.4,44.1,41.216,44.2Z" transform="translate(6.514 9.897)"/><path class="d" d="M32.575,43.213a1.582,1.582,0,0,1-.489-.077,9.336,9.336,0,0,1-1.2.077H28.033a5.536,5.536,0,0,1-1.365-.179v1.291l3.186,1.12H41.231v-2.41a5.605,5.605,0,0,1-1.374.179Zm4.671-17.871c-.258-.085-.524-.154-.79-.222a7.357,7.357,0,0,0-.859-.154,10.532,10.532,0,0,0-3.383,0c-.283.043-.55.094-.859.154a5.81,5.81,0,0,0-.79.222A11.031,11.031,0,0,0,26.59,27.5V38.2a1.4,1.4,0,0,0,1.365,1.111h2.851A6.025,6.025,0,0,0,35.1,37.555l1.03-1.026a1.958,1.958,0,0,1,3.34,1.385A1.936,1.936,0,0,1,38.9,39.3h.919a1.407,1.407,0,0,0,1.374-1.111V27.5a11.064,11.064,0,0,0-3.941-2.162Z" transform="translate(6.498 6.068)"/><path class="d" d="M33.155,24.816a11.152,11.152,0,0,0-3.315.513,3.351,3.351,0,0,0,6.62,0A11.143,11.143,0,0,0,33.155,24.816Z" transform="translate(7.293 6.065)"/><path class="d" d="M43.047,35.441v2.231a5.193,5.193,0,0,1-.292,1.521,5.332,5.332,0,0,1-3.624,3.333,5.612,5.612,0,0,1-1.374.179H35.181V38.782h2.576a1.407,1.407,0,0,0,1.374-1.111V26.98A10.98,10.98,0,0,1,43,34.5a8.657,8.657,0,0,1,.043.94Z" transform="translate(8.598 6.594)"/><path class="d" d="M40.269,37.389a1.936,1.936,0,0,1-.575,1.385H33.331a1.961,1.961,0,0,0-1.958,1.957,1.925,1.925,0,0,0,1.468,1.88,9.332,9.332,0,0,1-1.2.077H28.788a5.53,5.53,0,0,1-1.365-.179A5.3,5.3,0,0,1,23.5,37.671V35.441a11.089,11.089,0,0,1,3.924-8.461V37.671a1.4,1.4,0,0,0,1.365,1.111h2.851a6.025,6.025,0,0,0,4.293-1.752L36.963,36a1.924,1.924,0,0,1,3.306,1.385Z" transform="translate(5.743 6.594)"/><path class="d" d="M33.716,36.464V40.37H31.784a1.582,1.582,0,0,1-.489-.077,1.925,1.925,0,0,1-1.468-1.872,1.962,1.962,0,0,1,1.958-1.957Z" transform="translate(7.289 8.912)"/><path class="d" d="M33.876,14.6l-.455.282a1.1,1.1,0,0,1-1.228,0l-.446-.282a1.143,1.143,0,0,1-.481-1.145l.369-1.949.859-4.5a.335.335,0,0,1,.661,0l.859,4.5.369,1.949a1.16,1.16,0,0,1-.507,1.145Z" transform="translate(7.637 1.646)"/><path class="d" d="M36.124,12.854a7.013,7.013,0,0,1,1.151,1.162l3.787-6.837a.332.332,0,0,0-.084-.421.336.336,0,0,0-.431.01l-5.813,5.248a7.077,7.077,0,0,1,1.391.838Z" transform="translate(8.488 1.634)"/><path class="d" d="M30.13,12.858a6.966,6.966,0,0,0-1.142,1.162l-3.8-6.837a.334.334,0,0,1,.524-.41l5.813,5.248a6.876,6.876,0,0,0-1.4.837Z" transform="translate(6.144 1.63)"/><path class="d" d="M24.059,15.105l4.525,1.709V16.5a7.494,7.494,0,0,1,.155-1.333,7.662,7.662,0,0,1,.215-.795,4.645,4.645,0,0,1,.3-.744l-5.418-.171-2.456-.068a.335.335,0,0,0-.345.273.333.333,0,0,0,.225.377l2.576.949" transform="translate(5.14 3.272)"/><path class="d" d="M27.108,16.19v-.316C27.1,15.976,27.108,16.087,27.108,16.19Z" transform="translate(6.624 3.879)"/><path class="d" d="M35.752,36.464h-2.8V40.37h2.8Z" transform="translate(8.053 8.912)"/><path class="d" d="M53.843,22.674a1.09,1.09,0,0,1-.112.436,1.126,1.126,0,0,1-1,.615h-.172a1.078,1.078,0,0,1-.464-.1,1.1,1.1,0,0,1-.644-.94,12.979,12.979,0,0,0-.361-2.462h0a.965.965,0,0,0,.223.068l.249.043h.464a2.082,2.082,0,0,0,.4,0,2.586,2.586,0,0,0,.369-.068l.24-.077a3.127,3.127,0,0,1,.807,2.487Z" transform="translate(12.485 4.934)"/><path class="d" d="M55.938,52.144,55.8,56.05H47.738l-.129-3.906Z" transform="translate(11.635 12.744)"/><path class="d" d="M50.956,45.874V57.582" transform="translate(12.453 11.211)"/><path class="d" d="M58.8,58.624H54.313a3.35,3.35,0,0,0-3.357-3.342h4.482A3.35,3.35,0,0,1,58.8,58.624Z" transform="translate(12.453 13.511)"/><path class="d" d="M55.106,58.624h-6.2a1.163,1.163,0,0,1-.618-.179,1.353,1.353,0,0,1-.206-.179,1.253,1.253,0,0,1-.292-.718l-.077-2.265h4.036a3.35,3.35,0,0,1,3.357,3.342Z" transform="translate(11.661 13.511)"/><path class="d" d="M48.288,58.445a1.119,1.119,0,0,1-.507-.9l-.069-2.265.077,2.265a1.161,1.161,0,0,0,.5.9Z" transform="translate(11.661 13.511)"/></svg>