<svg xmlns="http://www.w3.org/2000/svg" xmlns:xlink="http://www.w3.org/1999/xlink" width="80" height="80" viewBox="0 0 80 80"><defs><style>.a{fill:#fff;}.b{clip-path:url(#a);}.c{fill:none;stroke:#a18b80;stroke-linecap:round;stroke-linejoin:round;}.d{fill:#cf65b3;}</style><clipPath id="a"><rect class="a" width="80" height="80"/></clipPath></defs><g class="b"><rect class="a" width="80" height="80"/><path class="c" d="M30.779,45.09v.7a4.27,4.27,0,0,0-1.924.666,4.218,4.218,0,0,0-1.388,1.478,6.672,6.672,0,0,1-4.329-2.108,6.55,6.55,0,0,1-1.75-4.453V34.446a2.193,2.193,0,0,0,.719,1.409,2.234,2.234,0,0,0,1.486.569h.136A10.974,10.974,0,0,0,26.07,41.7,11.125,11.125,0,0,0,30.779,45.09Z" transform="translate(5.411 8.714)"/><path class="c" d="M47.988,32.106V45.3a6.558,6.558,0,0,1-1.752,4.451,6.68,6.68,0,0,1-4.327,2.11A4.235,4.235,0,0,0,40.5,50.375a4.286,4.286,0,0,0-1.945-.659V49a11.111,11.111,0,0,0,4.719-3.379,10.957,10.957,0,0,0,2.346-5.279h.136a2.23,2.23,0,0,0,1.484-.688,2.185,2.185,0,0,0,0-3.017,2.231,2.231,0,0,0-1.484-.688V32.416a12.4,12.4,0,0,1-5.517,1.311,12.21,12.21,0,0,1-9.559-4.5,6.046,6.046,0,0,1-2.058,3.653,6.153,6.153,0,0,1-3.957,1.462,5.748,5.748,0,0,1-1.107-.111v1.7a2.226,2.226,0,0,0-1.483.561,2.185,2.185,0,0,0-.722,1.4V32.559a13.336,13.336,0,0,1,17.79-12.87,13.334,13.334,0,0,1,4.621,2.789,13.126,13.126,0,0,1,4.22,9.629Z" transform="translate(5.403 4.787)"/><path class="c" d="M52.385,58.305H18.432a16.977,16.977,0,0,1,3.183-7.426,17.19,17.19,0,0,1,6.272-5.147,4.15,4.15,0,0,0-.241,1.39,4.362,4.362,0,0,0,.249,1.43l1.965,5.353,5.573-3.3,5.549,3.3,1.965-5.354a4.166,4.166,0,0,0,.257-1.43,3.937,3.937,0,0,0-.249-1.39,17.171,17.171,0,0,1,6.261,5.154A16.961,16.961,0,0,1,52.385,58.305Z" transform="translate(4.663 11.567)"/><path class="c" d="M39.746,47.685a4.167,4.167,0,0,1-.257,1.43l-1.965,5.353L32,51.164l3.889-3.844V43.5a4.285,4.285,0,0,1,1.932.665,4.233,4.233,0,0,1,1.4,1.48,4.316,4.316,0,0,1,.281.651,3.937,3.937,0,0,1,.249,1.39Z" transform="translate(8.095 11.004)"/><path class="c" d="M31.981,49.623v7.7" transform="translate(8.09 12.553)"/><path class="c" d="M21.358,34.085v.453a.971.971,0,0,1,0-.222,1.141,1.141,0,0,1,0-.23Z" transform="translate(5.401 8.623)"/><path class="c" d="M29.312,38.478a4.845,4.845,0,0,0,6.672,0" transform="translate(7.415 9.734)"/><path class="c" d="M37.525,33.617a1.791,1.791,0,0,0-.664-.8,1.819,1.819,0,0,0-2.007,0,1.792,1.792,0,0,0-.664.8" transform="translate(8.649 8.224)"/><path class="c" d="M30.454,33.616a1.8,1.8,0,0,0-.668-.8,1.827,1.827,0,0,0-2.009,0,1.8,1.8,0,0,0-.668.8" transform="translate(6.858 8.225)"/><path class="c" d="M72.034,9.235H6.567a3.344,3.344,0,0,0-2.358.963,3.28,3.28,0,0,0-.978,2.334v6.6H75.362v-6.6a3.281,3.281,0,0,0-.975-2.331A3.344,3.344,0,0,0,72.034,9.235Z" transform="translate(0.817 2.336)"/><path class="c" d="M7.524,15.2A1.652,1.652,0,1,0,5.856,13.55,1.66,1.66,0,0,0,7.524,15.2Z" transform="translate(1.481 3.01)"/><path class="c" d="M11.953,15.2a1.652,1.652,0,1,0-1.668-1.652A1.66,1.66,0,0,0,11.953,15.2Z" transform="translate(2.602 3.01)"/><path class="c" d="M16.375,15.2a1.652,1.652,0,1,0-1.668-1.652A1.66,1.66,0,0,0,16.375,15.2Z" transform="translate(3.721 3.01)"/><path class="c" d="M47.965,36.07a2.182,2.182,0,0,1-.645,1.555,2.224,2.224,0,0,1-1.568.645h-.136a10.91,10.91,0,0,1-3.711,6.684,11.1,11.1,0,0,1-7.22,2.656,11.373,11.373,0,0,1-3.873-.675,11.126,11.126,0,0,1-4.734-3.383,10.974,10.974,0,0,1-2.355-5.291h-.136a2.233,2.233,0,0,1-1.486-.569,2.193,2.193,0,0,1-.719-1.409v-.445a2.185,2.185,0,0,1,.7-1.4,2.225,2.225,0,0,1,1.47-.581v-1.74a5.751,5.751,0,0,0,1.107.151A6.154,6.154,0,0,0,28.619,30.8a6.045,6.045,0,0,0,2.058-3.653,12.209,12.209,0,0,0,9.511,4.527,12.4,12.4,0,0,0,5.517-1.31v3.487a2.216,2.216,0,0,1,1.607.631,2.173,2.173,0,0,1,.654,1.585Z" transform="translate(5.409 6.868)"/><path class="c" d="M3.2,17.165V62.234a3.28,3.28,0,0,0,.975,2.331,3.344,3.344,0,0,0,2.353.966H72a3.344,3.344,0,0,0,2.384-.949,3.281,3.281,0,0,0,.992-2.348V17.165ZM46.775,55.776l-1.965,5.354-5.525-3.3-5.549,3.3-1.989-5.346a4.364,4.364,0,0,1-.249-1.43,4.15,4.15,0,0,1,.241-1.39,4.352,4.352,0,0,1,.289-.651,4.219,4.219,0,0,1,1.405-1.487,4.27,4.27,0,0,1,1.946-.657v-.7a11.127,11.127,0,0,1-4.734-3.383,10.975,10.975,0,0,1-2.355-5.291h-.136a2.234,2.234,0,0,1-1.486-.569,2.193,2.193,0,0,1-.719-1.409v-.445a2.185,2.185,0,0,1,.715-1.416,2.226,2.226,0,0,1,1.491-.57V34.64a5.749,5.749,0,0,0,1.107.151,6.154,6.154,0,0,0,3.957-1.462,6.047,6.047,0,0,0,2.058-3.653A12.209,12.209,0,0,0,44.787,34.2,12.4,12.4,0,0,0,50.3,32.892v3.487a2.231,2.231,0,0,1,1.484.688,2.185,2.185,0,0,1,0,3.017,2.23,2.23,0,0,1-1.484.688h-.136a10.957,10.957,0,0,1-2.346,5.279A11.111,11.111,0,0,1,43.1,49.43v.715a4.286,4.286,0,0,1,1.975.655A4.234,4.234,0,0,1,46.5,52.3a4.3,4.3,0,0,1,.281.651,3.937,3.937,0,0,1,.249,1.39A4.166,4.166,0,0,1,46.775,55.776Z" transform="translate(0.81 4.342)"/><path class="c" d="M33.572,51.164l-5.549,3.3-1.989-5.346a4.366,4.366,0,0,1-.249-1.43,4.153,4.153,0,0,1,.241-1.39,4.363,4.363,0,0,1,.289-.651,4.216,4.216,0,0,1,1.406-1.487,4.268,4.268,0,0,1,1.946-.658v3.828Z" transform="translate(6.523 11.004)"/><path class="c" d="M36.649,42.928v4.543l-3.865,3.836L28.9,47.464V42.936a11.37,11.37,0,0,0,3.873.675A11.1,11.1,0,0,0,36.649,42.928Z" transform="translate(7.311 10.86)"/><path class="c" d="M45.939,41.73H61.472a1.113,1.113,0,0,1,.788.318,1.091,1.091,0,0,1,.327.778V54.915a1.1,1.1,0,0,1-.326.781,1.121,1.121,0,0,1-.788.323H45.939a1.113,1.113,0,0,1-.806-.312,1.091,1.091,0,0,1-.333-.792V42.826a1.091,1.091,0,0,1,.335-.786,1.113,1.113,0,0,1,.8-.31Z" transform="translate(11.333 10.556)"/><path class="c" d="M58.121,49.524v-1.1a4.925,4.925,0,0,0-1.463-3.5,5.03,5.03,0,0,0-7.065,0,4.925,4.925,0,0,0-1.463,3.5v1.1a1.118,1.118,0,0,0-.726.353,1.1,1.1,0,0,0,0,1.494,1.118,1.118,0,0,0,.726.353.731.731,0,0,0,.128,0A4.934,4.934,0,0,0,50.007,54.5a5.025,5.025,0,0,0,6.237,0,4.935,4.935,0,0,0,1.749-2.777.61.61,0,0,0,.128,0,1.119,1.119,0,0,0,.726-.353,1.1,1.1,0,0,0,0-1.494,1.119,1.119,0,0,0-.726-.353Z" transform="translate(11.917 10.999)"/><path class="c" d="M52.982,50.643a1.267,1.267,0,0,1-1.788,0" transform="translate(12.951 12.811)"/><path class="d" d="M50.778,47.936a.636.636,0,0,0-.448.184.623.623,0,0,0,0,.887.638.638,0,0,0,.9,0,.623.623,0,0,0,0-.887A.637.637,0,0,0,50.778,47.936Z" transform="translate(12.685 12.127)"/><path class="d" d="M53.3,47.936a.638.638,0,0,0-.352.106.624.624,0,0,0-.1.965.637.637,0,0,0,.975-.1.623.623,0,0,0-.079-.792.637.637,0,0,0-.448-.184Z" transform="translate(13.323 12.127)"/><path class="c" d="M52.919,43.48a5.02,5.02,0,0,0-3.533,1.449,4.925,4.925,0,0,0-1.463,3.5v.548a2.705,2.705,0,0,0,1.414-.4,2.671,2.671,0,0,0,.992-1.073,1,1,0,0,1,.478-.456,1.012,1.012,0,0,1,.661-.06,6.087,6.087,0,0,0,2.879,0,1.012,1.012,0,0,1,.661.06,1,1,0,0,1,.478.456,2.687,2.687,0,0,0,.993,1.071,2.722,2.722,0,0,0,1.412.4v-.548a4.925,4.925,0,0,0-1.455-3.491,5.02,5.02,0,0,0-3.517-1.458Z" transform="translate(12.123 10.999)"/><path class="c" d="M56.16,26.357a3.3,3.3,0,1,0-3.328-3.3A3.312,3.312,0,0,0,56.16,26.357Z" transform="translate(13.365 5)"/></g></svg>