<svg xmlns="http://www.w3.org/2000/svg" width="80" height="80" viewBox="0 0 80 80"><defs><style>.a{fill:#fff;}.b{fill:none;stroke:#a18b80;stroke-linecap:round;stroke-linejoin:round;}</style></defs><rect class="a" width="80" height="80"/><path class="b" d="M24.2,27.687V15.666a1.39,1.39,0,0,1,2.78,0V26.694" transform="translate(6.049 3.569)"/><path class="b" d="M39.179,27.687V15.666a1.39,1.39,0,0,0-2.78,0v11.5" transform="translate(9.1 3.569)"/><path class="b" d="M16.715,38.768l-1.4-.662" transform="translate(3.828 9.527)"/><path class="b" d="M16.98,42.126,15.311,41.3" transform="translate(3.828 10.326)"/><path class="b" d="M4,64.113c.49-12.008,1.774-24.7,15.529-31.27" transform="translate(1 8.211)"/><path class="b" d="M16.887,37.2a11.412,11.412,0,0,0-3.045,4.528c-2.648,6.792,1.642,5.018,3.032,2.648l3.177-4.832a2.042,2.042,0,0,1,3.442,2.2C19.2,51.692,19.521,53.81,16.384,56.829c-2.357,2.251-2.74,4.236-4.038,8.989" transform="translate(3.086 9.299)"/><path class="b" d="M43.9,53.675H23.085" transform="translate(5.771 13.419)"/><path class="b" d="M16.434,46.267V34.193A8.327,8.327,0,0,1,22.67,26.13a41.624,41.624,0,0,1,24.982,0,8.327,8.327,0,0,1,6.236,8.063V46.465" transform="translate(4.109 6.053)"/><path class="b" d="M13.389,46.011c.807.688,2.648-.5,3.495-1.867l3.177-4.832a2.042,2.042,0,0,1,3.442,2.2c-4.289,9.956-3.972,12.074-7.109,15.092-2.357,2.251-2.74,4.237-4.038,8.989" transform="translate(3.089 9.592)"/><path class="b" d="M31.415,36.438a5.547,5.547,0,1,1-6.937-5.375" transform="translate(5.08 7.766)"/><path class="b" d="M44.728,36.479a5.547,5.547,0,1,1-3.8-5.3" transform="translate(8.409 7.725)"/><path class="b" d="M31.548,29.527a.688.688,0,1,0-.688-.688A.688.688,0,0,0,31.548,29.527Z" transform="translate(7.715 7.038)"/><path class="b" d="M31.548,42.851a.688.688,0,1,0-.688-.688A.688.688,0,0,0,31.548,42.851Z" transform="translate(7.715 10.369)"/><path class="b" d="M27.388,48.406a2.079,2.079,0,1,0-2.079-2.078A2.079,2.079,0,0,0,27.388,48.406Z" transform="translate(6.327 11.062)"/><path class="b" d="M36.263,48.406a2.079,2.079,0,1,0-2.078-2.078A2.078,2.078,0,0,0,36.263,48.406Z" transform="translate(8.546 11.062)"/><path class="b" d="M26.416,36.2a1.39,1.39,0,1,1-2.78,0V30.653a1.39,1.39,0,1,1,2.78,0Z" transform="translate(5.909 7.316)"/><path class="b" d="M40.073,36.784a1.389,1.389,0,1,1-2.515-1.178l2.37-5.017a1.389,1.389,0,1,1,2.515,1.178Z" transform="translate(9.357 7.447)"/><path class="b" d="M41.432,7.446a11.769,11.769,0,0,0-16.641,0" transform="translate(6.198 1)"/><path class="b" d="M37.924,9.515a7.679,7.679,0,0,0-10.856,0" transform="translate(6.767 1.817)"/><path class="b" d="M34.458,11.638a3.574,3.574,0,0,0-5.07,0" transform="translate(7.347 2.646)"/><path class="b" d="M24.5,54.47A8.313,8.313,0,0,1,17.419,50.5" transform="translate(4.355 12.625)"/><path class="b" d="M25.86,31.063a5.547,5.547,0,0,1,4.157,5.375" transform="translate(6.465 7.766)"/><path class="b" d="M47.98,38.106l-1.4.662" transform="translate(11.644 9.527)"/><path class="b" d="M48.033,41.3l-1.668.821" transform="translate(11.591 10.326)"/><path class="b" d="M52.933,65.871c-1.324-4.753-1.681-6.739-4.038-8.989-3.151-3.019-2.82-5.137-7.109-15.092a2.039,2.039,0,0,1,3.389-2.2l3.177,4.832c1.39,2.3,5.693,4.091,3.032-2.648a11.412,11.412,0,0,0-3.045-4.528" transform="translate(10.398 9.312)"/><path class="b" d="M46.576,32.843c13.755,6.619,15.053,19.263,15.529,31.27" transform="translate(11.644 8.211)"/><path class="b" d="M52.933,65.544c-1.324-4.753-1.681-6.739-4.038-8.989-3.151-3.018-2.82-5.137-7.109-15.092a2.039,2.039,0,0,1,3.389-2.2L48.352,44.1c.821,1.324,2.648,2.555,3.5,1.867" transform="translate(10.398 9.64)"/><path class="b" d="M46.817,50.509a8.314,8.314,0,0,1-7.083,3.972" transform="translate(9.934 12.627)"/><path class="b" d="M41.09,32.112a5.534,5.534,0,0,1,1.774,4.064" transform="translate(10.273 8.028)"/></svg>