<svg xmlns="http://www.w3.org/2000/svg" width="81" height="81" viewBox="0 0 81 81"><defs><style>.a{fill:#fff;}.b{fill:none;stroke:#a18b80;stroke-linecap:round;stroke-linejoin:round;}</style></defs><rect class="a" width="81" height="81"/><path class="b" d="M35.832,37.4V37.4l.443,6.8" transform="translate(9.226 9.628)"/><path class="b" d="M37.807,34.993a17.048,17.048,0,0,1,4-3.577A4.9,4.9,0,0,0,43.609,31a5.142,5.142,0,0,0-.226,2.5l.669,4.375a1.089,1.089,0,0,0,.574.822,1.1,1.1,0,0,0,1.006.009l.685-.324.075-.05.125-.058L50.865,36.1,55.22,38.27l.117.058.142.058.176.141a1.756,1.756,0,0,1,.217.216l.1.116a1.494,1.494,0,0,1,.226.391,1.6,1.6,0,0,1,.092.283,1.924,1.924,0,0,1,0,.316A2,2,0,0,1,55.2,41.514a2.02,2.02,0,0,1,1.087,1.664A2,2,0,0,1,55.2,44.841a1.769,1.769,0,0,1,0,3.261,1.777,1.777,0,0,1,0,3.269,2,2,0,0,1,1.087,1.663,1.066,1.066,0,0,1-.666,1.011,1.075,1.075,0,0,1-.42.078H40.474V45.872H38.509" transform="translate(9.734 7.981)"/><path class="b" d="M35.832,37.4V37.4l.443,6.8" transform="translate(9.226 9.628)"/><path class="b" d="M53.692,43.715a1.769,1.769,0,0,1,0,3.261,1.777,1.777,0,0,1,0,3.269,2,2,0,0,1,1.087,1.664,1.062,1.062,0,0,1-.31.775,1.073,1.073,0,0,1-.777.315H44.939a1.069,1.069,0,0,1-1.019-.669,1.061,1.061,0,0,1-.076-.421,2,2,0,0,1,1.1-1.664,1.769,1.769,0,0,1,0-3.269,1.761,1.761,0,0,1,0-3.261,1.743,1.743,0,0,1-.766-2.638,2.036,2.036,0,0,1,.766-.689,2,2,0,0,1-1.1-1.664,1.912,1.912,0,0,1,.886-1.439h.075l.125-.067,4.347-2.171,4.355,2.171.117.067h.084l.176.141a1.775,1.775,0,0,1,.217.216l.1.116a1.5,1.5,0,0,1,.226.391,1.6,1.6,0,0,1,.092.283,1.923,1.923,0,0,1,0,.316,2,2,0,0,1-1.087,1.663,2.02,2.02,0,0,1,1.087,1.664,2,2,0,0,1-.953,1.639Z" transform="translate(11.288 9.024)"/><path class="b" d="M50.165,35.83V52.973H46.888V35.83l1.638-.815Z" transform="translate(12.072 9.015)"/><path class="b" d="M56.894,43.254V41.075" transform="translate(14.648 10.575)"/><path class="b" d="M51.678,48.03a1.769,1.769,0,0,0,0-3.261,1.851,1.851,0,0,0,0-3.327,2,2,0,0,0,1.087-1.663,1.952,1.952,0,0,0,0-.316,1.611,1.611,0,0,0-.092-.283,1.5,1.5,0,0,0-.226-.391l-.1-.116a1.765,1.765,0,0,0-.217-.216l-.217-.058-.125-.083h.084l.686.324a1.081,1.081,0,0,0,1.384-.351,1.069,1.069,0,0,0,.18-.48l.677-4.358a5.068,5.068,0,0,0-.226-2.5h.05a3.021,3.021,0,0,0,.426.166,3.343,3.343,0,0,0,.385.108,1.564,1.564,0,0,0,.284.067,5.465,5.465,0,0,0,.911.083h0A17.194,17.194,0,0,1,64.46,44.687a1.078,1.078,0,0,1-.279.847,1.09,1.09,0,0,1-.824.35H58.241v8.16H51.678a1.072,1.072,0,0,0,.775-.329,1.062,1.062,0,0,0,.3-.785,2,2,0,0,0-1.087-1.664" transform="translate(13.301 7.97)"/><path class="b" d="M49.736,35.959v.665L45.389,38.8l-.125.067h-.075l-.686.324a1.1,1.1,0,0,1-1.394-.351,1.087,1.087,0,0,1-.186-.481l-.669-4.375a5.14,5.14,0,0,1,.226-2.5,5.03,5.03,0,0,0,1-.516.565.565,0,0,0,.242-.557.591.591,0,0,0-.293-.474,4.451,4.451,0,0,1,1.12-.915,2.092,2.092,0,0,1,.577-.249.789.789,0,0,1,.66.216v2.886Z" transform="translate(10.863 7.406)"/><path class="b" d="M55.673,34.062,55,38.421a1.073,1.073,0,0,1-.563.823,1.083,1.083,0,0,1-1,.009l-.686-.324h-.084l-.117-.067-4.355-2.171v-.665l3.946-4.1V28.98a.78.78,0,0,1,.644-.208,2.677,2.677,0,0,1,.61.266,4.393,4.393,0,0,1,1.087.915.641.641,0,0,0-.268.391.4.4,0,0,0,0,.133.631.631,0,0,0,.259.491,5.086,5.086,0,0,0,.468.316,3.477,3.477,0,0,0,.376.191l.1.058a5.066,5.066,0,0,1,.259,2.529Z" transform="translate(12.408 7.406)"/><path class="b" d="M53.989,30.987l-.134-.067a.261.261,0,0,0,.134.067Z" transform="translate(13.866 7.961)"/><path class="b" d="M39.928,43.254V41.075" transform="translate(10.28 10.575)"/><path class="b" d="M36.695,50.967l-.51-8.16" transform="translate(9.316 11.021)"/><path class="b" d="M38.875,50.967H40.33v-8.16H38.365" transform="translate(9.878 11.021)"/><path class="b" d="M62.361,42.807H56.894v8.16h5.467Z" transform="translate(14.648 11.021)"/><path class="b" d="M58.764,18.08V29.235a10.866,10.866,0,0,1-4.79,3.419,10.564,10.564,0,0,1-3.745.665,11.029,11.029,0,0,1-8.945-4.608V16.367a2.17,2.17,0,0,1,1.137-1.9,12.1,12.1,0,0,0,4.832-4.558,16.513,16.513,0,0,0,9.656,6.022,2.2,2.2,0,0,1,1.856,2.146Z" transform="translate(10.629 2.552)"/><path class="b" d="M52.957,28.029v4.076l-3.946,4.1-3.937-4.084v-4.25a10.788,10.788,0,0,0,4.18.832,10.565,10.565,0,0,0,3.7-.674Z" transform="translate(11.605 7.176)"/><path class="b" d="M53.686,18.634a1.792,1.792,0,0,0-3.294,0" transform="translate(12.974 4.518)"/><path class="b" d="M46.885,18.634a1.792,1.792,0,0,0-3.294,0" transform="translate(11.223 4.518)"/><path class="b" d="M45.685,23.248a4.783,4.783,0,0,0,6.579,0" transform="translate(11.762 5.985)"/><path class="b" d="M37.642,36.1a4.935,4.935,0,0,0,4.088,2.537h.3a4.9,4.9,0,0,0,1.806-.416,5.017,5.017,0,0,0,1-.616.564.564,0,0,0,.242-.557.59.59,0,0,0-.293-.474.671.671,0,0,0-.343-.108,2.217,2.217,0,0,1-2.065-2.2V18.147a2.169,2.169,0,0,1,1.137-1.9,12.105,12.105,0,0,0,4.832-4.558,16.513,16.513,0,0,0,9.656,6.022,2.2,2.2,0,0,1,1.881,2.146v14.4a2.218,2.218,0,0,1-2.107,2.188.671.671,0,0,0-.368.125.641.641,0,0,0-.267.391.387.387,0,0,0,0,.133.631.631,0,0,0,.259.491,5.1,5.1,0,0,0,.468.316,3.454,3.454,0,0,0,.343.208.258.258,0,0,0,.1,0h.05a2.991,2.991,0,0,0,.426.166,3.334,3.334,0,0,0,.385.108,1.087,1.087,0,0,0,.284.067,5.455,5.455,0,0,0,.911.083h.092A5.143,5.143,0,0,0,65.279,33.4V14.154C65.279,7.991,59.185,3,53,3a14.345,14.345,0,0,0-8.117,2.5,8.718,8.718,0,0,0-7.959,8.659V31.347" transform="translate(9.506 0.772)"/><path class="b" d="M16.061,39.973l-2.817-1.115a9.711,9.711,0,0,0-1.513,3.011c-.786,2.5-.627,3.56-.092,3.876a.311.311,0,0,0,.1.058.339.339,0,0,0,.125,0c.777.166,2.006-.832,2.558-1.855l.635-1.115,1.07-1.855.46-.832" transform="translate(2.881 10.005)"/><path class="b" d="M15.2,49.7a1.87,1.87,0,0,0,.092-.183h0c.092-.191.167-.383.242-.582a4.984,4.984,0,0,0,.184-.491v.482" transform="translate(3.913 12.472)"/><path class="b" d="M17.68,44.946l-.142-2.237c-.2.566-.376,1.106-.527,1.605" transform="translate(4.38 10.996)"/><path class="b" d="M17.8,48.6v-.008" transform="translate(4.584 12.51)"/><path class="b" d="M14.562,42.158l-1.446-.607" transform="translate(3.377 10.698)"/><path class="b" d="M8.87,56.8l-4.33-.882Z" transform="translate(1.169 14.397)"/><path class="b" d="M12.517,57.54v.017l-4.347-.9Z" transform="translate(2.103 14.588)"/><path class="b" d="M22.053,35.933l-.836.324c-.334.133-.669.266-.986.408a16.834,16.834,0,0,0-2.65,1.381,10.163,10.163,0,0,0-2.625,2.4,9.711,9.711,0,0,0-1.513,3.011c-.786,2.5-.627,3.56-.092,3.876a.309.309,0,0,0,.1.058.334.334,0,0,0,.125,0c.777.166,2.006-.832,2.558-1.855l.635-1.115,1.07-1.855.46-.832.242-.408a1.675,1.675,0,0,1,1.914-.832,1.568,1.568,0,0,1,.426.166,1.709,1.709,0,0,1,.66,2.321c-.042.108-.075.216-.109.316-.184.516-.36,1.023-.518,1.489-.058.158-.117.316-.167.466-.2.566-.376,1.106-.527,1.605-.309.932-.543,1.747-.761,2.5-.4,1.281-.694,2.279-1,3.127a4.984,4.984,0,0,1-.184.491c-.075.2-.15.391-.242.582a1.87,1.87,0,0,1-.092.183A8.748,8.748,0,0,1,16.394,56c-1.421,1.522-1.881,2.861-2.4,5.207l-9.2-1.88a.671.671,0,0,0-.259,0A52.372,52.372,0,0,1,4.749,53.6c.677-7.661,3.344-14.889,12.59-19.356Q18.576,33.637,20,33.1l.836-.333a1.725,1.725,0,0,1,2.149,1.01,1.71,1.71,0,0,1-.912,2.184Z" transform="translate(1.169 8.413)"/><path class="b" d="M8.87,56.8l-4.33-.882Z" transform="translate(1.169 14.397)"/><path class="b" d="M12.517,57.54v.017l-4.347-.9Z" transform="translate(2.103 14.588)"/><path class="b" d="M25.064,39.7l-.46-7.594a1.091,1.091,0,0,1,1.028-1.148l6.554-.416a1.1,1.1,0,0,1,.792.269,1.088,1.088,0,0,1,.37.746l.451,7.6a1.089,1.089,0,0,1-.614,1.048,1.1,1.1,0,0,1-.414.108l-6.537.408a1.1,1.1,0,0,1-.8-.268,1.088,1.088,0,0,1-.37-.755Z" transform="translate(6.334 7.863)"/><path class="b" d="M15.879,40.538l-.242.408-.46.832-.067-1.023-.226-3.518a16.833,16.833,0,0,1,2.65-1.381l.259,3.859a1.675,1.675,0,0,0-1.914.824Z" transform="translate(3.832 9.231)"/><path class="b" d="M18.031,44.615l.326,5.157a.628.628,0,0,1-.117,0l-.167-.067a1.137,1.137,0,0,1,0,.241l-2.424.15v-.482c.309-.832.6-1.847,1-3.127.217-.724.451-1.539.761-2.5" transform="translate(4.029 11.326)"/><path class="b" d="M17.68,44.946l-.142-2.237c-.2.566-.376,1.106-.527,1.605" transform="translate(4.38 10.996)"/><path class="b" d="M17.866,48.623v.108h-.309a1.121,1.121,0,0,0,0-.241l.167.067a.628.628,0,0,0,.117,0h.067Z" transform="translate(4.52 12.484)"/><path class="b" d="M42.064,56.955a2.191,2.191,0,0,1-2.048,2.312L18.188,60.639A2.195,2.195,0,0,1,15.856,58.6l-.134-2a3.351,3.351,0,0,0,2.809,1.289L35.777,56.8H36a3.248,3.248,0,0,0,2.508-1.389,3.315,3.315,0,0,0,.577-2.071L37.574,29.423a1.071,1.071,0,0,0-.371-.749,1.082,1.082,0,0,0-.8-.257l-2.876.183a1.052,1.052,0,0,0,.125-.557l-.075-1.09a2,2,0,0,0-.376-1.065l4.673-.258a2.2,2.2,0,0,1,1.586.54,2.175,2.175,0,0,1,.738,1.5l.836,12.793.418,6.8.485,8.135Z" transform="translate(4.048 6.598)"/><path class="b" d="M21.093,29.175l-2.884.191a1.1,1.1,0,0,0-.736.371,1.086,1.086,0,0,0-.267.777l.259,4.159q-1.413.541-2.658,1.148l-.426-6.762a2.174,2.174,0,0,1,1.99-2.3l4.673-.3a2.062,2.062,0,0,0-.226,1.106l.059,1.081a.986.986,0,0,0,.217.532Z" transform="translate(3.701 6.811)"/><path class="b" d="M37.342,28.852a1.075,1.075,0,0,0-.745-.958,1.084,1.084,0,0,0-.426-.048l-2.876.183a1.088,1.088,0,0,1-.895.6l-10.918.682a1.054,1.054,0,0,1-.961-.491l-2.884.191a1.1,1.1,0,0,0-.742.368,1.086,1.086,0,0,0-.27.78l.259,4.159.836-.333a1.725,1.725,0,0,1,2.149,1.01,1.71,1.71,0,0,1-.912,2.184l-.836.324c-.334.133-.669.266-.986.408l.259,3.86a1.563,1.563,0,0,1,.426.166,1.709,1.709,0,0,1,.66,2.321c-.042.108-.075.216-.109.316-.184.516-.36,1.023-.518,1.489-.058.158-.117.316-.167.466l.142,2.238.326,5.157h0v.108L31.39,53.2a1.128,1.128,0,0,1,1.129.832,2.852,2.852,0,0,0,.176.408v.05a2.333,2.333,0,0,0,.209.341,1.162,1.162,0,0,0,.176.225v.058l.117.133.134.116" transform="translate(4.28 7.168)"/><path class="b" d="M17.871,48.6h0Z" transform="translate(4.584 12.513)"/><path class="b" d="M33.8,39.161a1.089,1.089,0,0,1-.614,1.048,1.1,1.1,0,0,1-.414.108l-6.537.408a1.1,1.1,0,0,1-.795-.271,1.088,1.088,0,0,1-.367-.752L24.6,32.108a1.091,1.091,0,0,1,1.028-1.148l6.554-.416a1.1,1.1,0,0,1,.792.269,1.088,1.088,0,0,1,.37.746Z" transform="translate(6.334 7.863)"/><path class="b" d="M32.677,28.552a1.053,1.053,0,0,1-.125.557h0a1.086,1.086,0,0,1-.894.6L20.74,30.39a1.054,1.054,0,0,1-.961-.491.987.987,0,0,1-.2-.532l-.058-1.081a2.061,2.061,0,0,1,.226-1.106,2.174,2.174,0,0,1,1.814-1.206l2.19-.133A2.184,2.184,0,0,1,25.8,23.651a2.187,2.187,0,0,1,2.316,1.906l2.174-.125a2.143,2.143,0,0,1,1.956.965,2,2,0,0,1,.36,1.065Z" transform="translate(5.024 6.088)"/><path class="b" d="M19.6,42.692l14.738-.923" transform="translate(5.046 10.754)"/><path class="b" d="M18.993,33.067l4.916-.308" transform="translate(4.89 8.434)"/><path class="b" d="M19.132,35.224l4.916-.308" transform="translate(4.926 8.99)"/><path class="b" d="M19.272,37.387l4.907-.308" transform="translate(4.962 9.547)"/><path class="b" d="M19.737,44.857l14.73-.932" transform="translate(5.082 11.309)"/><path class="b" d="M33.8,39.161a1.089,1.089,0,0,1-.614,1.048,1.1,1.1,0,0,1-.414.108l-6.537.408a1.1,1.1,0,0,1-.795-.271,1.088,1.088,0,0,1-.367-.752L24.6,32.108a1.091,1.091,0,0,1,1.028-1.148l6.554-.416a1.1,1.1,0,0,1,.792.269,1.088,1.088,0,0,1,.37.746Z" transform="translate(6.334 7.863)"/><path class="b" d="M27.084,34.507a1.412,1.412,0,0,0,.5.932,1.426,1.426,0,0,0,1.964-.127,1.41,1.41,0,0,0,.372-.988v-.657a1.421,1.421,0,0,0-2.834.183Z" transform="translate(6.973 8.342)"/><path class="b" d="M25.834,38.871V38.7a3.336,3.336,0,0,1,3.126-3.108,3.341,3.341,0,0,1,3.495,2.693v.175Z" transform="translate(6.651 9.161)"/><path class="b" d="M15.635,49.022l2.424-.15h.309L31.6,48.04a1.128,1.128,0,0,1,1.129.832,2.875,2.875,0,0,0,.176.408v.05a2.316,2.316,0,0,0,.209.341,1.153,1.153,0,0,0,.176.225v.058l.117.133.134.117" transform="translate(4.026 12.368)"/><path class="b" d="M15.73,48.82h-.217c-.075.2-.151.391-.242.582a1.335,1.335,0,0,0,.125.391,3.432,3.432,0,0,0,.443.832" transform="translate(3.931 12.569)"/><path class="b" d="M8.169,56.659l4.347.9V57.54" transform="translate(2.103 14.588)"/><path class="b" d="M2,60.3l.777-3.735a1.095,1.095,0,0,1,1.237-.832h.05l1.137.233,4.322.882.242.05,4.339.907.836.175a1.089,1.089,0,0,1,.836,1.289L15,63" transform="translate(0.515 14.346)"/><path class="b" d="M2,60.3l.777-3.735a1.095,1.095,0,0,1,1.237-.832h.05l1.137.233,4.322.882.242.05,4.339.907.836.175a1.089,1.089,0,0,1,.836,1.289L15,63" transform="translate(0.515 14.346)"/><path class="b" d="M15.108,57.035l-.293,1.431h-.234l-.836-.175L9.4,57.409l-.251-.091-4.322-.89L3.688,56.2H3.463l.293-1.447a1.094,1.094,0,0,1,1.028-.832.676.676,0,0,1,.259,0l9.2,1.88a1.09,1.09,0,0,1,.87,1.239Z" transform="translate(0.891 13.878)"/><path class="b" d="M9.093,56.849l-4.322-.882-1.129-.241,1.137.233Z" transform="translate(0.938 14.347)"/><path class="b" d="M35.832,37.4V37.4l.443,6.8" transform="translate(9.226 9.628)"/><path class="b" d="M37.807,34.993a17.048,17.048,0,0,1,4-3.577A4.9,4.9,0,0,0,43.609,31a5.142,5.142,0,0,0-.226,2.5l.669,4.375a1.089,1.089,0,0,0,.574.822,1.1,1.1,0,0,0,1.006.009l.685-.324.075-.05.125-.058L50.865,36.1,55.22,38.27l.117.058.142.058.176.141a1.756,1.756,0,0,1,.217.216l.1.116a1.494,1.494,0,0,1,.226.391,1.6,1.6,0,0,1,.092.283,1.924,1.924,0,0,1,0,.316A2,2,0,0,1,55.2,41.514a2.02,2.02,0,0,1,1.087,1.664A2,2,0,0,1,55.2,44.841a1.769,1.769,0,0,1,0,3.261,1.777,1.777,0,0,1,0,3.269,2,2,0,0,1,1.087,1.663,1.066,1.066,0,0,1-.666,1.011,1.075,1.075,0,0,1-.42.078H40.474V45.872H38.509" transform="translate(9.734 7.981)"/><path class="b" d="M35.832,37.4V37.4l.443,6.8" transform="translate(9.226 9.628)"/><path class="b" d="M53.692,43.715a1.769,1.769,0,0,1,0,3.261,1.777,1.777,0,0,1,0,3.269,2,2,0,0,1,1.087,1.664,1.062,1.062,0,0,1-.31.775,1.073,1.073,0,0,1-.777.315H44.939a1.069,1.069,0,0,1-1.019-.669,1.061,1.061,0,0,1-.076-.421,2,2,0,0,1,1.1-1.664,1.769,1.769,0,0,1,0-3.269,1.761,1.761,0,0,1,0-3.261,1.743,1.743,0,0,1-.766-2.638,2.036,2.036,0,0,1,.766-.689,2,2,0,0,1-1.1-1.664,1.912,1.912,0,0,1,.886-1.439h.075l.125-.067,4.347-2.171,4.355,2.171.117.067h.084l.176.141a1.775,1.775,0,0,1,.217.216l.1.116a1.5,1.5,0,0,1,.226.391,1.6,1.6,0,0,1,.092.283,1.923,1.923,0,0,1,0,.316,2,2,0,0,1-1.087,1.663,2.02,2.02,0,0,1,1.087,1.664,2,2,0,0,1-.953,1.639Z" transform="translate(11.288 9.024)"/><path class="b" d="M50.165,35.83V52.973H46.888V35.83l1.638-.815Z" transform="translate(12.072 9.015)"/><path class="b" d="M56.894,43.254V41.075" transform="translate(14.648 10.575)"/><path class="b" d="M51.678,48.03a1.769,1.769,0,0,0,0-3.261,1.851,1.851,0,0,0,0-3.327,2,2,0,0,0,1.087-1.663,1.952,1.952,0,0,0,0-.316,1.611,1.611,0,0,0-.092-.283,1.5,1.5,0,0,0-.226-.391l-.1-.116a1.765,1.765,0,0,0-.217-.216l-.217-.058-.125-.083h.084l.686.324a1.081,1.081,0,0,0,1.384-.351,1.069,1.069,0,0,0,.18-.48l.677-4.358a5.068,5.068,0,0,0-.226-2.5h.05a3.021,3.021,0,0,0,.426.166,3.343,3.343,0,0,0,.385.108,1.564,1.564,0,0,0,.284.067,5.465,5.465,0,0,0,.911.083h0A17.194,17.194,0,0,1,64.46,44.687a1.078,1.078,0,0,1-.279.847,1.09,1.09,0,0,1-.824.35H58.241v8.16H51.678a1.072,1.072,0,0,0,.775-.329,1.062,1.062,0,0,0,.3-.785,2,2,0,0,0-1.087-1.664" transform="translate(13.301 7.97)"/><path class="b" d="M49.736,35.959v.665L45.389,38.8l-.125.067h-.075l-.686.324a1.1,1.1,0,0,1-1.394-.351,1.087,1.087,0,0,1-.186-.481l-.669-4.375a5.14,5.14,0,0,1,.226-2.5,5.03,5.03,0,0,0,1-.516.565.565,0,0,0,.242-.557.591.591,0,0,0-.293-.474,4.451,4.451,0,0,1,1.12-.915,2.092,2.092,0,0,1,.577-.249.789.789,0,0,1,.66.216v2.886Z" transform="translate(10.863 7.406)"/><path class="b" d="M55.673,34.062,55,38.421a1.073,1.073,0,0,1-.563.823,1.083,1.083,0,0,1-1,.009l-.686-.324h-.084l-.117-.067-4.355-2.171v-.665l3.946-4.1V28.98a.78.78,0,0,1,.644-.208,2.677,2.677,0,0,1,.61.266,4.393,4.393,0,0,1,1.087.915.641.641,0,0,0-.268.391.4.4,0,0,0,0,.133.631.631,0,0,0,.259.491,5.086,5.086,0,0,0,.468.316,3.477,3.477,0,0,0,.376.191l.1.058a5.066,5.066,0,0,1,.259,2.529Z" transform="translate(12.408 7.406)"/><path class="b" d="M53.989,30.987l-.134-.067a.261.261,0,0,0,.134.067Z" transform="translate(13.866 7.961)"/><path class="b" d="M39.928,43.254V41.075" transform="translate(10.28 10.575)"/><path class="b" d="M36.695,50.967l-.51-8.16" transform="translate(9.316 11.021)"/><path class="b" d="M38.875,50.967H40.33v-8.16H38.365" transform="translate(9.878 11.021)"/><path class="b" d="M62.361,42.807H56.894v8.16h5.467Z" transform="translate(14.648 11.021)"/><path class="b" d="M58.764,18.08V29.235a10.866,10.866,0,0,1-4.79,3.419,10.564,10.564,0,0,1-3.745.665,11.029,11.029,0,0,1-8.945-4.608V16.367a2.17,2.17,0,0,1,1.137-1.9,12.1,12.1,0,0,0,4.832-4.558,16.513,16.513,0,0,0,9.656,6.022,2.2,2.2,0,0,1,1.856,2.146Z" transform="translate(10.629 2.552)"/><path class="b" d="M52.957,28.029v4.076l-3.946,4.1-3.937-4.084v-4.25a10.788,10.788,0,0,0,4.18.832,10.565,10.565,0,0,0,3.7-.674Z" transform="translate(11.605 7.176)"/><path class="b" d="M53.686,18.634a1.792,1.792,0,0,0-3.294,0" transform="translate(12.974 4.518)"/><path class="b" d="M46.885,18.634a1.792,1.792,0,0,0-3.294,0" transform="translate(11.223 4.518)"/><path class="b" d="M45.685,23.248a4.783,4.783,0,0,0,6.579,0" transform="translate(11.762 5.985)"/><path class="b" d="M37.642,36.1a4.935,4.935,0,0,0,4.088,2.537h.3a4.9,4.9,0,0,0,1.806-.416,5.017,5.017,0,0,0,1-.616.564.564,0,0,0,.242-.557.59.59,0,0,0-.293-.474.671.671,0,0,0-.343-.108,2.217,2.217,0,0,1-2.065-2.2V18.147a2.169,2.169,0,0,1,1.137-1.9,12.105,12.105,0,0,0,4.832-4.558,16.513,16.513,0,0,0,9.656,6.022,2.2,2.2,0,0,1,1.881,2.146v14.4a2.218,2.218,0,0,1-2.107,2.188.671.671,0,0,0-.368.125.641.641,0,0,0-.267.391.387.387,0,0,0,0,.133.631.631,0,0,0,.259.491,5.1,5.1,0,0,0,.468.316,3.454,3.454,0,0,0,.343.208.258.258,0,0,0,.1,0h.05a2.991,2.991,0,0,0,.426.166,3.334,3.334,0,0,0,.385.108,1.087,1.087,0,0,0,.284.067,5.455,5.455,0,0,0,.911.083h.092A5.143,5.143,0,0,0,65.279,33.4V14.154C65.279,7.991,59.185,3,53,3a14.345,14.345,0,0,0-8.117,2.5,8.718,8.718,0,0,0-7.959,8.659V31.347" transform="translate(9.506 0.772)"/><path class="b" d="M16.061,39.973l-2.817-1.115a9.711,9.711,0,0,0-1.513,3.011c-.786,2.5-.627,3.56-.092,3.876a.311.311,0,0,0,.1.058.339.339,0,0,0,.125,0c.777.166,2.006-.832,2.558-1.855l.635-1.115,1.07-1.855.46-.832" transform="translate(2.881 10.005)"/><path class="b" d="M15.2,49.7a1.87,1.87,0,0,0,.092-.183h0c.092-.191.167-.383.242-.582a4.984,4.984,0,0,0,.184-.491v.482" transform="translate(3.913 12.472)"/><path class="b" d="M17.68,44.946l-.142-2.237c-.2.566-.376,1.106-.527,1.605" transform="translate(4.38 10.996)"/><path class="b" d="M17.8,48.6v-.008" transform="translate(4.584 12.51)"/><path class="b" d="M14.562,42.158l-1.446-.607" transform="translate(3.377 10.698)"/><path class="b" d="M8.87,56.8l-4.33-.882Z" transform="translate(1.169 14.397)"/><path class="b" d="M12.517,57.54v.017l-4.347-.9Z" transform="translate(2.103 14.588)"/><path class="b" d="M22.053,35.933l-.836.324c-.334.133-.669.266-.986.408a16.834,16.834,0,0,0-2.65,1.381,10.163,10.163,0,0,0-2.625,2.4,9.711,9.711,0,0,0-1.513,3.011c-.786,2.5-.627,3.56-.092,3.876a.309.309,0,0,0,.1.058.334.334,0,0,0,.125,0c.777.166,2.006-.832,2.558-1.855l.635-1.115,1.07-1.855.46-.832.242-.408a1.675,1.675,0,0,1,1.914-.832,1.568,1.568,0,0,1,.426.166,1.709,1.709,0,0,1,.66,2.321c-.042.108-.075.216-.109.316-.184.516-.36,1.023-.518,1.489-.058.158-.117.316-.167.466-.2.566-.376,1.106-.527,1.605-.309.932-.543,1.747-.761,2.5-.4,1.281-.694,2.279-1,3.127a4.984,4.984,0,0,1-.184.491c-.075.2-.15.391-.242.582a1.87,1.87,0,0,1-.092.183A8.748,8.748,0,0,1,16.394,56c-1.421,1.522-1.881,2.861-2.4,5.207l-9.2-1.88a.671.671,0,0,0-.259,0A52.372,52.372,0,0,1,4.749,53.6c.677-7.661,3.344-14.889,12.59-19.356Q18.576,33.637,20,33.1l.836-.333a1.725,1.725,0,0,1,2.149,1.01,1.71,1.71,0,0,1-.912,2.184Z" transform="translate(1.169 8.413)"/><path class="b" d="M8.87,56.8l-4.33-.882Z" transform="translate(1.169 14.397)"/><path class="b" d="M12.517,57.54v.017l-4.347-.9Z" transform="translate(2.103 14.588)"/><path class="b" d="M25.064,39.7l-.46-7.594a1.091,1.091,0,0,1,1.028-1.148l6.554-.416a1.1,1.1,0,0,1,.792.269,1.088,1.088,0,0,1,.37.746l.451,7.6a1.089,1.089,0,0,1-.614,1.048,1.1,1.1,0,0,1-.414.108l-6.537.408a1.1,1.1,0,0,1-.8-.268,1.088,1.088,0,0,1-.37-.755Z" transform="translate(6.334 7.863)"/><path class="b" d="M15.879,40.538l-.242.408-.46.832-.067-1.023-.226-3.518a16.833,16.833,0,0,1,2.65-1.381l.259,3.859a1.675,1.675,0,0,0-1.914.824Z" transform="translate(3.832 9.231)"/><path class="b" d="M18.031,44.615l.326,5.157a.628.628,0,0,1-.117,0l-.167-.067a1.137,1.137,0,0,1,0,.241l-2.424.15v-.482c.309-.832.6-1.847,1-3.127.217-.724.451-1.539.761-2.5" transform="translate(4.029 11.326)"/><path class="b" d="M17.68,44.946l-.142-2.237c-.2.566-.376,1.106-.527,1.605" transform="translate(4.38 10.996)"/><path class="b" d="M17.866,48.623v.108h-.309a1.121,1.121,0,0,0,0-.241l.167.067a.628.628,0,0,0,.117,0h.067Z" transform="translate(4.52 12.484)"/><path class="b" d="M42.064,56.955a2.191,2.191,0,0,1-2.048,2.312L18.188,60.639A2.195,2.195,0,0,1,15.856,58.6l-.134-2a3.351,3.351,0,0,0,2.809,1.289L35.777,56.8H36a3.248,3.248,0,0,0,2.508-1.389,3.315,3.315,0,0,0,.577-2.071L37.574,29.423a1.071,1.071,0,0,0-.371-.749,1.082,1.082,0,0,0-.8-.257l-2.876.183a1.052,1.052,0,0,0,.125-.557l-.075-1.09a2,2,0,0,0-.376-1.065l4.673-.258a2.2,2.2,0,0,1,1.586.54,2.175,2.175,0,0,1,.738,1.5l.836,12.793.418,6.8.485,8.135Z" transform="translate(4.048 6.598)"/><path class="b" d="M21.093,29.175l-2.884.191a1.1,1.1,0,0,0-.736.371,1.086,1.086,0,0,0-.267.777l.259,4.159q-1.413.541-2.658,1.148l-.426-6.762a2.174,2.174,0,0,1,1.99-2.3l4.673-.3a2.062,2.062,0,0,0-.226,1.106l.059,1.081a.986.986,0,0,0,.217.532Z" transform="translate(3.701 6.811)"/><path class="b" d="M37.342,28.852a1.075,1.075,0,0,0-.745-.958,1.084,1.084,0,0,0-.426-.048l-2.876.183a1.088,1.088,0,0,1-.895.6l-10.918.682a1.054,1.054,0,0,1-.961-.491l-2.884.191a1.1,1.1,0,0,0-.742.368,1.086,1.086,0,0,0-.27.78l.259,4.159.836-.333a1.725,1.725,0,0,1,2.149,1.01,1.71,1.71,0,0,1-.912,2.184l-.836.324c-.334.133-.669.266-.986.408l.259,3.86a1.563,1.563,0,0,1,.426.166,1.709,1.709,0,0,1,.66,2.321c-.042.108-.075.216-.109.316-.184.516-.36,1.023-.518,1.489-.058.158-.117.316-.167.466l.142,2.238.326,5.157h0v.108L31.39,53.2a1.128,1.128,0,0,1,1.129.832,2.852,2.852,0,0,0,.176.408v.05a2.333,2.333,0,0,0,.209.341,1.162,1.162,0,0,0,.176.225v.058l.117.133.134.116" transform="translate(4.28 7.168)"/><path class="b" d="M17.871,48.6h0Z" transform="translate(4.584 12.513)"/><path class="b" d="M33.8,39.161a1.089,1.089,0,0,1-.614,1.048,1.1,1.1,0,0,1-.414.108l-6.537.408a1.1,1.1,0,0,1-.795-.271,1.088,1.088,0,0,1-.367-.752L24.6,32.108a1.091,1.091,0,0,1,1.028-1.148l6.554-.416a1.1,1.1,0,0,1,.792.269,1.088,1.088,0,0,1,.37.746Z" transform="translate(6.334 7.863)"/><path class="b" d="M32.677,28.552a1.053,1.053,0,0,1-.125.557h0a1.086,1.086,0,0,1-.894.6L20.74,30.39a1.054,1.054,0,0,1-.961-.491.987.987,0,0,1-.2-.532l-.058-1.081a2.061,2.061,0,0,1,.226-1.106,2.174,2.174,0,0,1,1.814-1.206l2.19-.133A2.184,2.184,0,0,1,25.8,23.651a2.187,2.187,0,0,1,2.316,1.906l2.174-.125a2.143,2.143,0,0,1,1.956.965,2,2,0,0,1,.36,1.065Z" transform="translate(5.024 6.088)"/><path class="b" d="M19.6,42.692l14.738-.923" transform="translate(5.046 10.754)"/><path class="b" d="M18.993,33.067l4.916-.308" transform="translate(4.89 8.434)"/><path class="b" d="M19.132,35.224l4.916-.308" transform="translate(4.926 8.99)"/><path class="b" d="M19.272,37.387l4.907-.308" transform="translate(4.962 9.547)"/><path class="b" d="M19.737,44.857l14.73-.932" transform="translate(5.082 11.309)"/><path class="b" d="M33.8,39.161a1.089,1.089,0,0,1-.614,1.048,1.1,1.1,0,0,1-.414.108l-6.537.408a1.1,1.1,0,0,1-.795-.271,1.088,1.088,0,0,1-.367-.752L24.6,32.108a1.091,1.091,0,0,1,1.028-1.148l6.554-.416a1.1,1.1,0,0,1,.792.269,1.088,1.088,0,0,1,.37.746Z" transform="translate(6.334 7.863)"/><path class="b" d="M27.084,34.507a1.412,1.412,0,0,0,.5.932,1.426,1.426,0,0,0,1.964-.127,1.41,1.41,0,0,0,.372-.988v-.657a1.421,1.421,0,0,0-2.834.183Z" transform="translate(6.973 8.342)"/><path class="b" d="M25.834,38.871V38.7a3.336,3.336,0,0,1,3.126-3.108,3.341,3.341,0,0,1,3.495,2.693v.175Z" transform="translate(6.651 9.161)"/><path class="b" d="M15.635,49.022l2.424-.15h.309L31.6,48.04a1.128,1.128,0,0,1,1.129.832,2.875,2.875,0,0,0,.176.408v.05a2.316,2.316,0,0,0,.209.341,1.153,1.153,0,0,0,.176.225v.058l.117.133.134.117" transform="translate(4.026 12.368)"/><path class="b" d="M15.73,48.82h-.217c-.075.2-.151.391-.242.582a1.335,1.335,0,0,0,.125.391,3.432,3.432,0,0,0,.443.832" transform="translate(3.931 12.569)"/><path class="b" d="M8.169,56.659l4.347.9V57.54" transform="translate(2.103 14.588)"/><path class="b" d="M2,60.3l.777-3.735a1.095,1.095,0,0,1,1.237-.832h.05l1.137.233,4.322.882.242.05,4.339.907.836.175a1.089,1.089,0,0,1,.836,1.289L15,63" transform="translate(0.515 14.346)"/><path class="b" d="M2,60.3l.777-3.735a1.095,1.095,0,0,1,1.237-.832h.05l1.137.233,4.322.882.242.05,4.339.907.836.175a1.089,1.089,0,0,1,.836,1.289L15,63" transform="translate(0.515 14.346)"/><path class="b" d="M15.108,57.035l-.293,1.431h-.234l-.836-.175L9.4,57.409l-.251-.091-4.322-.89L3.688,56.2H3.463l.293-1.447a1.094,1.094,0,0,1,1.028-.832.676.676,0,0,1,.259,0l9.2,1.88a1.09,1.09,0,0,1,.87,1.239Z" transform="translate(0.891 13.878)"/><path class="b" d="M9.093,56.849l-4.322-.882-1.129-.241,1.137.233Z" transform="translate(0.938 14.347)"/></svg>