<svg xmlns="http://www.w3.org/2000/svg" width="82" height="82" viewBox="0 0 82 82"><defs><style>.a{fill:#fff;}.b,.c{fill:none;stroke:#a18b80;}.b{stroke-linecap:round;stroke-linejoin:round;}</style></defs><rect class="a" width="82" height="82"/><path class="b" d="M32.484,50.083V66.144" transform="translate(9.074 13.99)"/><path class="b" d="M18.023,15.091a1.659,1.659,0,0,1,.04.378v.883a9.876,9.876,0,0,0,.784,3.845,10.036,10.036,0,0,0,2.226,3.258A10.266,10.266,0,0,0,24.4,25.631a10.431,10.431,0,0,0,3.925.759H44.721a10.354,10.354,0,0,0,7.241-2.945,9.946,9.946,0,0,0,3-7.1v-1a.848.848,0,0,1,0-.268" transform="translate(5.035 4.211)"/><path class="b" d="M60.679,14.885a2.039,2.039,0,0,1,.1.639v.883a14.578,14.578,0,0,1-3.988,10A15.152,15.152,0,0,1,46.94,31.1a1.37,1.37,0,0,0-.863.415,1.319,1.319,0,0,0-.368.871l-.056,1.9-.161,5.89L45.065,54.9l-.3,2.366-1.979,15.21a3.981,3.981,0,0,1-1.338,2.5,4.133,4.133,0,0,1-2.684,1.013H36.386A4.133,4.133,0,0,1,33.7,74.972a3.981,3.981,0,0,1-1.338-2.5L30.321,57.243l-.3-2.366L29.6,40.148l-.161-5.89-.056-1.9a1.319,1.319,0,0,0-.368-.871,1.37,1.37,0,0,0-.863-.415A15.152,15.152,0,0,1,18.3,26.38a14.578,14.578,0,0,1-3.988-10v-.978a1.844,1.844,0,0,1,.08-.552" transform="translate(3.998 4.149)"/><path class="b" d="M34.269,37H32.314a2.781,2.781,0,0,0-1.128.239,2.731,2.731,0,0,0-.927.674,2.664,2.664,0,0,0-.561.988,2.631,2.631,0,0,0-.1,1.127l.957,7.01h5.47l.957-7.01a2.631,2.631,0,0,0-.1-1.129,2.666,2.666,0,0,0-.563-.989,2.733,2.733,0,0,0-.93-.673A2.781,2.781,0,0,0,34.269,37Z" transform="translate(8.263 10.335)"/><path class="b" d="M32.484,37V47.044" transform="translate(9.074 10.335)"/><path class="b" d="M29.711,40.141h7.095" transform="translate(8.3 11.213)"/><path class="b" d="M29.994,42.231h6.371" transform="translate(8.379 11.797)"/><path class="b" d="M41.638,46.183l-7.513,5.362-7.513-5.362V44.85H41.638Z" transform="translate(7.434 12.529)"/><path class="b" d="M42.184,36.178l.169-5.89a5.263,5.263,0,0,0-3.322-1.135c-1.754,0-3.95.788-4.778,1.979-.8-1.175-3.033-1.979-4.778-1.979a5.263,5.263,0,0,0-3.322,1.135l.169,5.89a5.3,5.3,0,0,0,3.153,1.009c1.754,0,3.95-.158,4.778-1.34.8,1.175,3.033,1.34,4.778,1.34a5.292,5.292,0,0,0,3.153-1.009Z" transform="translate(7.306 8.144)"/><path class="b" d="M28.215,30.654V23.92" transform="translate(7.882 6.682)"/><path class="b" d="M36.754,30.654V23.92" transform="translate(10.267 6.682)"/><path class="b" d="M18.469,15.088h1.544V12.407H18.831" transform="translate(5.159 3.466)"/><path class="b" d="M14.058,12.407h-.788v2.681h1.142" transform="translate(3.707 3.466)"/><path class="b" d="M21.721,19.161H20.354a.691.691,0,0,1-.484-.2.664.664,0,0,1-.2-.474V10.464a.664.664,0,0,1,.2-.474.691.691,0,0,1,.484-.2h1.367a.691.691,0,0,1,.484.2.664.664,0,0,1,.2.474v8.027a.664.664,0,0,1-.2.474A.691.691,0,0,1,21.721,19.161Z" transform="translate(5.495 2.736)"/><path class="b" d="M13.183,19.161H11.815a.691.691,0,0,1-.483-.2.663.663,0,0,1-.2-.474V10.464a.663.663,0,0,1,.2-.474.691.691,0,0,1,.483-.2h1.367a.7.7,0,0,1,.262.051.685.685,0,0,1,.222.145.668.668,0,0,1,.148.217.658.658,0,0,1,.052.257v8.027a.657.657,0,0,1-.052.256.668.668,0,0,1-.148.217.688.688,0,0,1-.222.145A.7.7,0,0,1,13.183,19.161Z" transform="translate(3.11 2.736)"/><path class="b" d="M11.043,17.521H9.684a.691.691,0,0,1-.483-.2.663.663,0,0,1-.2-.474V11.5a.664.664,0,0,1,.214-.449.691.691,0,0,1,.47-.182h1.367a.7.7,0,0,1,.262.051.689.689,0,0,1,.222.145.669.669,0,0,1,.148.217.657.657,0,0,1,.052.256v5.322a.66.66,0,0,1-.055.256.671.671,0,0,1-.151.216.683.683,0,0,1-.224.143.7.7,0,0,1-.262.048Z" transform="translate(2.514 3.035)"/><path class="b" d="M23.863,17.53H22.5a.7.7,0,0,1-.265-.046A.686.686,0,0,1,22,17.342a.673.673,0,0,1-.153-.217.662.662,0,0,1-.056-.258V11.505a.664.664,0,0,1,.2-.474.691.691,0,0,1,.483-.2h1.367a.691.691,0,0,1,.483.2.664.664,0,0,1,.2.474v5.362a.663.663,0,0,1-.2.463A.691.691,0,0,1,23.863,17.53Z" transform="translate(6.088 3.027)"/><path class="b" d="M43.074,17.53H41.707a.691.691,0,0,1-.483-.2.664.664,0,0,1-.2-.474V11.505a.664.664,0,0,1,.2-.474.691.691,0,0,1,.483-.2h1.367a.691.691,0,0,1,.483.2.664.664,0,0,1,.2.474v5.362a.663.663,0,0,1-.2.469A.69.69,0,0,1,43.074,17.53Z" transform="translate(11.46 3.027)"/><path class="b" d="M55.873,17.53H54.506a.69.69,0,0,1-.455-.207.663.663,0,0,1-.189-.455V11.505a.664.664,0,0,1,.2-.474.691.691,0,0,1,.483-.2h1.367a.691.691,0,0,1,.483.2.663.663,0,0,1,.2.474v5.362a.658.658,0,0,1-.058.263.668.668,0,0,1-.159.22.687.687,0,0,1-.235.141.7.7,0,0,1-.272.039Z" transform="translate(15.046 3.027)"/><path class="b" d="M50.806,15.088h1.142V12.407H51.16" transform="translate(14.193 3.466)"/><path class="b" d="M46.467,12.407H45.292v2.681h1.544" transform="translate(12.652 3.466)"/><path class="b" d="M43.844,19.161h1.367a.691.691,0,0,0,.483-.2.664.664,0,0,0,.2-.474V10.464a.664.664,0,0,0-.2-.474.691.691,0,0,0-.483-.2H43.844a.691.691,0,0,0-.483.2.663.663,0,0,0-.2.474v8.027a.663.663,0,0,0,.2.474A.691.691,0,0,0,43.844,19.161Z" transform="translate(12.057 2.736)"/><path class="b" d="M52.383,19.161h1.367a.691.691,0,0,0,.483-.2.664.664,0,0,0,.2-.474V10.464a.664.664,0,0,0-.2-.474.691.691,0,0,0-.483-.2H52.383a.691.691,0,0,0-.483.2.664.664,0,0,0-.2.474v8.027a.664.664,0,0,0,.2.474A.691.691,0,0,0,52.383,19.161Z" transform="translate(14.442 2.736)"/><path class="b" d="M13.892,14.15a3.024,3.024,0,0,0,.309,1.283,3.084,3.084,0,0,0,.828,1.038,3.161,3.161,0,0,0,1.2.6,3.2,3.2,0,0,0,1.343.057,3.292,3.292,0,0,0,1.945-1.189A3.174,3.174,0,0,0,20.19,13.8v-.788a2.032,2.032,0,0,0-.641-1.415,2.114,2.114,0,0,0-1.467-.572H15.991a2.127,2.127,0,0,0-.811.166,2.093,2.093,0,0,0-.681.462,2.048,2.048,0,0,0-.445.685,2.013,2.013,0,0,0-.139.8Z" transform="translate(3.881 3.078)"/><path class="b" d="M52.453,14.15a3.026,3.026,0,0,1-.309,1.283,3.086,3.086,0,0,1-.828,1.038,3.16,3.16,0,0,1-1.2.6,3.2,3.2,0,0,1-1.343.057,3.292,3.292,0,0,1-1.945-1.189,3.174,3.174,0,0,1-.677-2.147v-.788a2.032,2.032,0,0,1,.641-1.415,2.115,2.115,0,0,1,1.467-.572h2.091a2.128,2.128,0,0,1,.811.166,2.092,2.092,0,0,1,.681.462,2.046,2.046,0,0,1,.445.685,2.015,2.015,0,0,1,.139.8Z" transform="translate(12.892 3.078)"/><path class="b" d="M27.847,7.64a3.16,3.16,0,0,1-.45-3.6c.861-1.4,2.88-1.782,4.714-.938" transform="translate(7.55 0.742)"/><path class="b" d="M30.679,6.234a3.806,3.806,0,0,1,.434-2.7,4.365,4.365,0,0,1,.7-.994C33.325.888,35.634.5,36.985,1.692S38.2,5.067,36.809,6.7" transform="translate(8.547 0.279)"/><path class="b" d="M44.005,17.416a9.664,9.664,0,0,0,.45-2.9A9.508,9.508,0,0,0,42.811,9.18,9.8,9.8,0,0,0,38.43,5.628,9.578,9.578,0,0,0,35.213,4.9a4.1,4.1,0,0,0-.571,0,9.42,9.42,0,0,0-2.325.284,9.682,9.682,0,0,0-7.107,6.559,9.446,9.446,0,0,0,.045,5.709" transform="translate(6.925 1.367)"/><path class="b" d="M42.83,15.524v-.907a.66.66,0,0,0-.054-.26.668.668,0,0,0-.152-.219.686.686,0,0,0-.227-.144.694.694,0,0,0-.267-.046c-4.135.118-9.452-.678-11.6-4.061-.274,2.641-1.609,3.8-3.483,4a.689.689,0,0,0-.43.219.663.663,0,0,0-.174.443v.97c-2.341,0-2.18,4.013.41,4.013A7.985,7.985,0,0,0,29.8,23.6a8.273,8.273,0,0,0,9.667,0,7.984,7.984,0,0,0,2.945-4.068h0C45.009,19.537,45.162,15.524,42.83,15.524Z" transform="translate(6.926 2.762)"/><path class="b" d="M30.881,18.212a3.754,3.754,0,0,0,4.094,0" transform="translate(8.626 5.088)"/><path class="c" d="M30.285,14.32a.383.383,0,0,1,.069-.038h.157a.4.4,0,0,1,.159.033.384.384,0,0,1,.115.078h0a.366.366,0,0,1,.054.067.347.347,0,0,1,.052.152c0,.007,0,.014,0,.021h0a.337.337,0,0,1-.009.061.351.351,0,0,1-.056.12.369.369,0,0,1-.076.078l-.007.005a.385.385,0,0,1-.088.048.4.4,0,0,1-.186.025l-.038-.006a.394.394,0,0,1-.1-.032.389.389,0,0,1-.052-.03.376.376,0,0,1-.047-.039.364.364,0,0,1-.051-.062.359.359,0,0,1-.029-.053.34.34,0,0,1-.02-.064.348.348,0,0,1-.008-.072.346.346,0,0,1,.024-.128.359.359,0,0,1,.073-.114l.006-.006A.367.367,0,0,1,30.285,14.32Zm.186.079a.222.222,0,0,1,.078.014.218.218,0,0,1,.1.074.209.209,0,0,1,.037.166.211.211,0,0,1-.059.109l-.006.006a.219.219,0,0,1-.105.052.224.224,0,0,1-.042,0,.221.221,0,0,1-.083-.016.224.224,0,0,1-.031-.015.216.216,0,0,1-.067-.063.214.214,0,0,1-.018-.031.209.209,0,0,1-.014-.132.212.212,0,0,1,.059-.106l.006-.006a.218.218,0,0,1,.108-.053A.222.222,0,0,1,30.471,14.4Z" transform="translate(8.417 3.989)"/><path class="c" d="M34.617,14.43a.219.219,0,0,0-.13.042.2.2,0,0,0-.023.02.213.213,0,0,0-.046.066.208.208,0,0,0-.018.085.21.21,0,0,0,.05.1.218.218,0,0,0,.1.064.21.21,0,0,0,.034.008l-.028.174a.4.4,0,0,1-.058-.019.382.382,0,0,1-.117-.076h0a.364.364,0,0,1-.042-.048.355.355,0,0,1-.058-.126v0a.345.345,0,0,1-.008-.052c0-.007,0-.015,0-.022a.343.343,0,0,1,.02-.117l0-.01a.36.36,0,0,1,.078-.119l.022-.021.032-.025a.39.39,0,0,1,.076-.041l.061.062Zm0,0,.032-.032.027.006a.218.218,0,0,1,.08.043l.017.016a.211.211,0,0,1,.048.08.2.2,0,0,1,.007.028l.187-.031a.348.348,0,0,0-.022-.054.36.36,0,0,0-.07-.095.37.37,0,0,0-.035-.03.387.387,0,0,0-.176-.075l-.045,0h-.051v.148Zm.272.213h.142a.343.343,0,0,1-.023.122l-.079-.081Z" transform="translate(9.572 3.989)"/><path class="b" d="M32.484,50.083V66.144" transform="translate(9.074 13.99)"/><path class="b" d="M18.023,15.091a1.659,1.659,0,0,1,.04.378v.883a9.876,9.876,0,0,0,.784,3.845,10.036,10.036,0,0,0,2.226,3.258A10.266,10.266,0,0,0,24.4,25.631a10.431,10.431,0,0,0,3.925.759H44.721a10.354,10.354,0,0,0,7.241-2.945,9.946,9.946,0,0,0,3-7.1v-1a.848.848,0,0,1,0-.268" transform="translate(5.035 4.211)"/><path class="b" d="M60.679,14.885a2.039,2.039,0,0,1,.1.639v.883a14.578,14.578,0,0,1-3.988,10A15.152,15.152,0,0,1,46.94,31.1a1.37,1.37,0,0,0-.863.415,1.319,1.319,0,0,0-.368.871l-.056,1.9-.161,5.89L45.065,54.9l-.3,2.366-1.979,15.21a3.981,3.981,0,0,1-1.338,2.5,4.133,4.133,0,0,1-2.684,1.013H36.386A4.133,4.133,0,0,1,33.7,74.972a3.981,3.981,0,0,1-1.338-2.5L30.321,57.243l-.3-2.366L29.6,40.148l-.161-5.89-.056-1.9a1.319,1.319,0,0,0-.368-.871,1.37,1.37,0,0,0-.863-.415A15.152,15.152,0,0,1,18.3,26.38a14.578,14.578,0,0,1-3.988-10v-.978a1.844,1.844,0,0,1,.08-.552" transform="translate(3.998 4.149)"/><path class="b" d="M34.269,37H32.314a2.781,2.781,0,0,0-1.128.239,2.731,2.731,0,0,0-.927.674,2.664,2.664,0,0,0-.561.988,2.631,2.631,0,0,0-.1,1.127l.957,7.01h5.47l.957-7.01a2.631,2.631,0,0,0-.1-1.129,2.666,2.666,0,0,0-.563-.989,2.733,2.733,0,0,0-.93-.673A2.781,2.781,0,0,0,34.269,37Z" transform="translate(8.263 10.335)"/><path class="b" d="M32.484,37V47.044" transform="translate(9.074 10.335)"/><path class="b" d="M29.711,40.141h7.095" transform="translate(8.3 11.213)"/><path class="b" d="M29.994,42.231h6.371" transform="translate(8.379 11.797)"/><path class="b" d="M41.638,46.183l-7.513,5.362-7.513-5.362V44.85H41.638Z" transform="translate(7.434 12.529)"/><path class="b" d="M42.184,36.178l.169-5.89a5.263,5.263,0,0,0-3.322-1.135c-1.754,0-3.95.788-4.778,1.979-.8-1.175-3.033-1.979-4.778-1.979a5.263,5.263,0,0,0-3.322,1.135l.169,5.89a5.3,5.3,0,0,0,3.153,1.009c1.754,0,3.95-.158,4.778-1.34.8,1.175,3.033,1.34,4.778,1.34a5.292,5.292,0,0,0,3.153-1.009Z" transform="translate(7.306 8.144)"/><path class="b" d="M28.215,30.654V23.92" transform="translate(7.882 6.682)"/><path class="b" d="M36.754,30.654V23.92" transform="translate(10.267 6.682)"/><path class="b" d="M18.469,15.088h1.544V12.407H18.831" transform="translate(5.159 3.466)"/><path class="b" d="M14.058,12.407h-.788v2.681h1.142" transform="translate(3.707 3.466)"/><path class="b" d="M21.721,19.161H20.354a.691.691,0,0,1-.484-.2.664.664,0,0,1-.2-.474V10.464a.664.664,0,0,1,.2-.474.691.691,0,0,1,.484-.2h1.367a.691.691,0,0,1,.484.2.664.664,0,0,1,.2.474v8.027a.664.664,0,0,1-.2.474A.691.691,0,0,1,21.721,19.161Z" transform="translate(5.495 2.736)"/><path class="b" d="M13.183,19.161H11.815a.691.691,0,0,1-.483-.2.663.663,0,0,1-.2-.474V10.464a.663.663,0,0,1,.2-.474.691.691,0,0,1,.483-.2h1.367a.7.7,0,0,1,.262.051.685.685,0,0,1,.222.145.668.668,0,0,1,.148.217.658.658,0,0,1,.052.257v8.027a.657.657,0,0,1-.052.256.668.668,0,0,1-.148.217.688.688,0,0,1-.222.145A.7.7,0,0,1,13.183,19.161Z" transform="translate(3.11 2.736)"/><path class="b" d="M11.043,17.521H9.684a.691.691,0,0,1-.483-.2.663.663,0,0,1-.2-.474V11.5a.664.664,0,0,1,.214-.449.691.691,0,0,1,.47-.182h1.367a.7.7,0,0,1,.262.051.689.689,0,0,1,.222.145.669.669,0,0,1,.148.217.657.657,0,0,1,.052.256v5.322a.66.66,0,0,1-.055.256.671.671,0,0,1-.151.216.683.683,0,0,1-.224.143.7.7,0,0,1-.262.048Z" transform="translate(2.514 3.035)"/><path class="b" d="M23.863,17.53H22.5a.7.7,0,0,1-.265-.046A.686.686,0,0,1,22,17.342a.673.673,0,0,1-.153-.217.662.662,0,0,1-.056-.258V11.505a.664.664,0,0,1,.2-.474.691.691,0,0,1,.483-.2h1.367a.691.691,0,0,1,.483.2.664.664,0,0,1,.2.474v5.362a.663.663,0,0,1-.2.463A.691.691,0,0,1,23.863,17.53Z" transform="translate(6.088 3.027)"/><path class="b" d="M43.074,17.53H41.707a.691.691,0,0,1-.483-.2.664.664,0,0,1-.2-.474V11.505a.664.664,0,0,1,.2-.474.691.691,0,0,1,.483-.2h1.367a.691.691,0,0,1,.483.2.664.664,0,0,1,.2.474v5.362a.663.663,0,0,1-.2.469A.69.69,0,0,1,43.074,17.53Z" transform="translate(11.46 3.027)"/><path class="b" d="M55.873,17.53H54.506a.69.69,0,0,1-.455-.207.663.663,0,0,1-.189-.455V11.505a.664.664,0,0,1,.2-.474.691.691,0,0,1,.483-.2h1.367a.691.691,0,0,1,.483.2.663.663,0,0,1,.2.474v5.362a.658.658,0,0,1-.058.263.668.668,0,0,1-.159.22.687.687,0,0,1-.235.141.7.7,0,0,1-.272.039Z" transform="translate(15.046 3.027)"/><path class="b" d="M50.806,15.088h1.142V12.407H51.16" transform="translate(14.193 3.466)"/><path class="b" d="M46.467,12.407H45.292v2.681h1.544" transform="translate(12.652 3.466)"/><path class="b" d="M43.844,19.161h1.367a.691.691,0,0,0,.483-.2.664.664,0,0,0,.2-.474V10.464a.664.664,0,0,0-.2-.474.691.691,0,0,0-.483-.2H43.844a.691.691,0,0,0-.483.2.663.663,0,0,0-.2.474v8.027a.663.663,0,0,0,.2.474A.691.691,0,0,0,43.844,19.161Z" transform="translate(12.057 2.736)"/><path class="b" d="M52.383,19.161h1.367a.691.691,0,0,0,.483-.2.664.664,0,0,0,.2-.474V10.464a.664.664,0,0,0-.2-.474.691.691,0,0,0-.483-.2H52.383a.691.691,0,0,0-.483.2.664.664,0,0,0-.2.474v8.027a.664.664,0,0,0,.2.474A.691.691,0,0,0,52.383,19.161Z" transform="translate(14.442 2.736)"/><path class="b" d="M13.892,14.15a3.024,3.024,0,0,0,.309,1.283,3.084,3.084,0,0,0,.828,1.038,3.161,3.161,0,0,0,1.2.6,3.2,3.2,0,0,0,1.343.057,3.292,3.292,0,0,0,1.945-1.189A3.174,3.174,0,0,0,20.19,13.8v-.788a2.032,2.032,0,0,0-.641-1.415,2.114,2.114,0,0,0-1.467-.572H15.991a2.127,2.127,0,0,0-.811.166,2.093,2.093,0,0,0-.681.462,2.048,2.048,0,0,0-.445.685,2.013,2.013,0,0,0-.139.8Z" transform="translate(3.881 3.078)"/><path class="b" d="M52.453,14.15a3.026,3.026,0,0,1-.309,1.283,3.086,3.086,0,0,1-.828,1.038,3.16,3.16,0,0,1-1.2.6,3.2,3.2,0,0,1-1.343.057,3.292,3.292,0,0,1-1.945-1.189,3.174,3.174,0,0,1-.677-2.147v-.788a2.032,2.032,0,0,1,.641-1.415,2.115,2.115,0,0,1,1.467-.572h2.091a2.128,2.128,0,0,1,.811.166,2.092,2.092,0,0,1,.681.462,2.046,2.046,0,0,1,.445.685,2.015,2.015,0,0,1,.139.8Z" transform="translate(12.892 3.078)"/><path class="b" d="M27.847,7.64a3.16,3.16,0,0,1-.45-3.6c.861-1.4,2.88-1.782,4.714-.938" transform="translate(7.55 0.742)"/><path class="b" d="M30.679,6.234a3.806,3.806,0,0,1,.434-2.7,4.365,4.365,0,0,1,.7-.994C33.325.888,35.634.5,36.985,1.692S38.2,5.067,36.809,6.7" transform="translate(8.547 0.279)"/><path class="b" d="M44.005,17.416a9.664,9.664,0,0,0,.45-2.9A9.508,9.508,0,0,0,42.811,9.18,9.8,9.8,0,0,0,38.43,5.628,9.578,9.578,0,0,0,35.213,4.9a4.1,4.1,0,0,0-.571,0,9.42,9.42,0,0,0-2.325.284,9.682,9.682,0,0,0-7.107,6.559,9.446,9.446,0,0,0,.045,5.709" transform="translate(6.925 1.367)"/><path class="b" d="M42.83,15.524v-.907a.66.66,0,0,0-.054-.26.668.668,0,0,0-.152-.219.686.686,0,0,0-.227-.144.694.694,0,0,0-.267-.046c-4.135.118-9.452-.678-11.6-4.061-.274,2.641-1.609,3.8-3.483,4a.689.689,0,0,0-.43.219.663.663,0,0,0-.174.443v.97c-2.341,0-2.18,4.013.41,4.013A7.985,7.985,0,0,0,29.8,23.6a8.273,8.273,0,0,0,9.667,0,7.984,7.984,0,0,0,2.945-4.068h0C45.009,19.537,45.162,15.524,42.83,15.524Z" transform="translate(6.926 2.762)"/><path class="b" d="M30.881,18.212a3.754,3.754,0,0,0,4.094,0" transform="translate(8.626 5.088)"/><path class="c" d="M30.285,14.32a.383.383,0,0,1,.069-.038h.157a.4.4,0,0,1,.159.033.384.384,0,0,1,.115.078h0a.366.366,0,0,1,.054.067.347.347,0,0,1,.052.152c0,.007,0,.014,0,.021h0a.337.337,0,0,1-.009.061.351.351,0,0,1-.056.12.369.369,0,0,1-.076.078l-.007.005a.385.385,0,0,1-.088.048.4.4,0,0,1-.186.025l-.038-.006a.394.394,0,0,1-.1-.032.389.389,0,0,1-.052-.03.376.376,0,0,1-.047-.039.364.364,0,0,1-.051-.062.359.359,0,0,1-.029-.053.34.34,0,0,1-.02-.064.348.348,0,0,1-.008-.072.346.346,0,0,1,.024-.128.359.359,0,0,1,.073-.114l.006-.006A.367.367,0,0,1,30.285,14.32Zm.186.079a.222.222,0,0,1,.078.014.218.218,0,0,1,.1.074.209.209,0,0,1,.037.166.211.211,0,0,1-.059.109l-.006.006a.219.219,0,0,1-.105.052.224.224,0,0,1-.042,0,.221.221,0,0,1-.083-.016.224.224,0,0,1-.031-.015.216.216,0,0,1-.067-.063.214.214,0,0,1-.018-.031.209.209,0,0,1-.014-.132.212.212,0,0,1,.059-.106l.006-.006a.218.218,0,0,1,.108-.053A.222.222,0,0,1,30.471,14.4Z" transform="translate(8.417 3.989)"/><path class="c" d="M34.617,14.43a.219.219,0,0,0-.13.042.2.2,0,0,0-.023.02.213.213,0,0,0-.046.066.208.208,0,0,0-.018.085.21.21,0,0,0,.05.1.218.218,0,0,0,.1.064.21.21,0,0,0,.034.008l-.028.174a.4.4,0,0,1-.058-.019.382.382,0,0,1-.117-.076h0a.364.364,0,0,1-.042-.048.355.355,0,0,1-.058-.126v0a.345.345,0,0,1-.008-.052c0-.007,0-.015,0-.022a.343.343,0,0,1,.02-.117l0-.01a.36.36,0,0,1,.078-.119l.022-.021.032-.025a.39.39,0,0,1,.076-.041l.061.062Zm0,0,.032-.032.027.006a.218.218,0,0,1,.08.043l.017.016a.211.211,0,0,1,.048.08.2.2,0,0,1,.007.028l.187-.031a.348.348,0,0,0-.022-.054.36.36,0,0,0-.07-.095.37.37,0,0,0-.035-.03.387.387,0,0,0-.176-.075l-.045,0h-.051v.148Zm.272.213h.142a.343.343,0,0,1-.023.122l-.079-.081Z" transform="translate(9.572 3.989)"/></svg>